<svg xmlns="http://www.w3.org/2000/svg" viewBox="0 0 437 125" preserveAspectRatio="xMidYMid meet">
<path d="M 24.0 80.0 L 24.0 98.0 L 36.0 98.0 L 36.0 81.0" fill="...troke-width="2" stroke-linecap="round" stroke-linejoin="round"/>
<path d="M 274.0 87.0 L 274.0 84.0 L 258.0 69.0 L 217.0 84.0 L 2...troke-width="2" stroke-linecap="round" stroke-linejoin="round"/>
<path d="M 355.0 91.0 L 357.0 97.0 L 363.0 100.0 L 413.0 99.0 L ...troke-width="2" stroke-linecap="round" stroke-linejoin="round"/>
<path d="M 341.0 60.0 L 340.0 63.0 L 343.0 64.0 L 344.0 62.0 L 3...troke-width="2" stroke-linecap="round" stroke-linejoin="round"/>
<path d="M 331.0 60.0 L 330.0 63.0 L 332.0 64.0 L 333.0 61.0" fi...troke-width="2" stroke-linecap="round" stroke-linejoin="round"/>
<path d="M 320.0 60.0 L 319.0 63.0 L 322.0 64.0 L 323.0 62.0 L 3...troke-width="2" stroke-linecap="round" stroke-linejoin="round"/>
<path d="M 310.0 60.0 L 309.0 63.0 L 311.0 64.0 L 312.0 61.0" fi...troke-width="2" stroke-linecap="round" stroke-linejoin="round"/>
<path d="M 299.0 60.0 L 298.0 62.0 L 299.0 64.0 L 301.0 64.0 L 3...troke-width="2" stroke-linecap="round" stroke-linejoin="round"/>
<path d="M 179.0 60.0 L 178.0 62.0 L 181.0 64.0 L 182.0 61.0" fi...troke-width="2" stroke-linecap="round" stroke-linejoin="round"/>
<path d="M 169.0 60.0 L 168.0 62.0 L 169.0 64.0 L 171.0 64.0 L 1...troke-width="2" stroke-linecap="round" stroke-linejoin="round"/>
<path d="M 161.0 60.0 L 158.0 61.0 L 159.0 64.0 L 162.0 62.0" fi...troke-width="2" stroke-linecap="round" stroke-linejoin="round"/>
<path d="M 149.0 60.0 L 148.0 63.0 L 150.0 64.0 L 151.0 61.0" fi...troke-width="2" stroke-linecap="round" stroke-linejoin="round"/>
<path d="M 138.0 60.0 L 137.0 62.0 L 140.0 64.0 L 141.0 61.0" fi...troke-width="2" stroke-linecap="round" stroke-linejoin="round"/>
<path d="M 383.0 31.0 L 374.0 36.0 L 370.0 44.0 L 370.0 50.0 L 3...troke-width="2" stroke-linecap="round" stroke-linejoin="round"/>
<path d="M 227.0 29.0 L 214.0 32.0 L 203.0 38.0 L 201.0 44.0 L 2...troke-width="2" stroke-linecap="round" stroke-linejoin="round"/>
<path d="M 253.0 27.0 L 210.0 42.0 L 209.0 70.0 L 253.0 56.0" fi...troke-width="2" stroke-linecap="round" stroke-linejoin="round"/>
<path d="M 257.0 18.0 L 233.0 28.0 L 258.0 22.0 L 258.0 60.0 L 2...troke-width="2" stroke-linecap="round" stroke-linejoin="round"/>
<path d="M 6.0 70.0 L 14.0 74.0 L 15.0 89.0 L 18.0 73.0 L 42.0 7...troke-width="2" stroke-linecap="round" stroke-linejoin="round"/>
</svg>
