<svg xmlns="http://www.w3.org/2000/svg" xmlns:xlink="http://www.w3.org/1999/xlink" width="600" zoomAndPan="magnify" viewBox="0 0 450 149.999998" height="200" preserveAspectRatio="xMidYMid meet" version="1.0"><defs><clipPath id="ff3c7eb72d"><path d="M 42 83 L 130 83 L 130 122.304688 L 42 122.304688 Z M 42 83 " clip-rule="nonzero"/></clipPath><clipPath id="75a50c8f00"><path d="M 52 83 L 138 83 L 138 122.304688 L 52 122.304688 Z M 52 83 " clip-rule="nonzero"/></clipPath><clipPath id="657e72c7b6"><path d="M 35.191406 64 L 145.441406 64 L 145.441406 88 L 35.191406 88 Z M 35.191406 64 " clip-rule="nonzero"/></clipPath><clipPath id="6112e4812e"><path d="M 35.191406 68 L 145.441406 68 L 145.441406 122 L 35.191406 122 Z M 35.191406 68 " clip-rule="nonzero"/></clipPath><clipPath id="f5114363a0"><path d="M 68 62 L 113 62 L 113 122.304688 L 68 122.304688 Z M 68 62 " clip-rule="nonzero"/></clipPath><clipPath id="40d23d705a"><path d="M 88 27.804688 L 107 27.804688 L 107 44 L 88 44 Z M 88 27.804688 " clip-rule="nonzero"/></clipPath><clipPath id="d367247dc3"><path d="M 215 39 L 293.882812 39 L 293.882812 107 L 215 107 Z M 215 39 " clip-rule="nonzero"/></clipPath><clipPath id="ee5c637450"><path d="M 214.382812 35 L 283 35 L 283 114 L 214.382812 114 Z M 214.382812 35 " clip-rule="nonzero"/></clipPath><clipPath id="70155e8fad"><path d="M 215 92 L 286 92 L 286 121.914062 L 215 121.914062 Z M 215 92 " clip-rule="nonzero"/></clipPath><clipPath id="ba1cf21c85"><path d="M 356 47.347656 L 415 47.347656 L 415 111.847656 L 356 111.847656 Z M 356 47.347656 " clip-rule="nonzero"/></clipPath><clipPath id="8c481b1819"><path d="M 155.363281 75 L 161 75 L 161 79.5 L 155.363281 79.5 Z M 155.363281 75 " clip-rule="nonzero"/></clipPath><clipPath id="d4b9fde01c"><path d="M 164 75 L 170 75 L 170 79.5 L 164 79.5 Z M 164 75 " clip-rule="nonzero"/></clipPath><clipPath id="263b96844d"><path d="M 174 75 L 180 75 L 180 79.5 L 174 79.5 Z M 174 75 " clip-rule="nonzero"/></clipPath><clipPath id="c2332deae5"><path d="M 183 75 L 189 75 L 189 79.5 L 183 79.5 Z M 183 75 " clip-rule="nonzero"/></clipPath><clipPath id="2230f480a9"><path d="M 193 75 L 198.113281 75 L 198.113281 79.5 L 193 79.5 Z M 193 75 " clip-rule="nonzero"/></clipPath><clipPath id="4ecafb880a"><path d="M 303.289062 77.371094 L 309 77.371094 L 309 81.871094 L 303.289062 81.871094 Z M 303.289062 77.371094 " clip-rule="nonzero"/></clipPath><clipPath id="3d89421754"><path d="M 312 77.371094 L 318 77.371094 L 318 81.871094 L 312 81.871094 Z M 312 77.371094 " clip-rule="nonzero"/></clipPath><clipPath id="14dcf96afa"><path d="M 322 77.371094 L 328 77.371094 L 328 81.871094 L 322 81.871094 Z M 322 77.371094 " clip-rule="nonzero"/></clipPath><clipPath id="a65856adce"><path d="M 331 77.371094 L 337 77.371094 L 337 81.871094 L 331 81.871094 Z M 331 77.371094 " clip-rule="nonzero"/></clipPath><clipPath id="fb19b87cb4"><path d="M 341 77.371094 L 346.039062 77.371094 L 346.039062 81.871094 L 341 81.871094 Z M 341 77.371094 " clip-rule="nonzero"/></clipPath></defs><g clip-path="url(#ff3c7eb72d)"><path fill="#000000" d="M 70.800781 122.1875 L 49.429688 122.1875 C 45.804688 122.1875 42.859375 119.246094 42.859375 115.621094 L 42.859375 108.765625 C 42.859375 107.601562 43.804688 106.679688 44.945312 106.679688 C 46.089844 106.679688 47.035156 107.625 47.035156 108.765625 L 47.035156 115.621094 C 47.035156 116.9375 48.089844 117.992188 49.40625 117.992188 L 70.753906 117.992188 C 71.917969 117.992188 72.84375 118.9375 72.84375 120.078125 C 72.84375 121.222656 71.941406 122.1875 70.800781 122.1875 Z M 47.078125 99.785156 L 47.078125 85.285156 C 47.078125 84.121094 46.132812 83.199219 44.992188 83.199219 C 43.847656 83.199219 42.90625 84.144531 42.90625 85.285156 L 42.90625 99.785156 C 42.90625 100.949219 43.847656 101.871094 44.992188 101.871094 C 46.132812 101.871094 47.078125 100.949219 47.078125 99.785156 Z M 129.359375 109.25 L 129.359375 94.378906 C 129.359375 93.457031 128.609375 92.6875 127.667969 92.6875 L 118.179688 92.6875 C 117.253906 92.6875 116.488281 93.4375 116.488281 94.378906 L 116.488281 109.25 C 116.488281 110.171875 117.234375 110.941406 118.179688 110.941406 L 127.667969 110.941406 C 128.609375 110.917969 129.359375 110.171875 129.359375 109.25 Z M 119.890625 96.050781 L 126.019531 96.050781 L 126.019531 107.558594 L 119.890625 107.558594 Z M 119.890625 96.050781 " fill-opacity="1" fill-rule="nonzero"/></g><g clip-path="url(#75a50c8f00)"><path fill="#000000" d="M 131.402344 122.1875 L 110.050781 122.1875 C 108.886719 122.1875 107.964844 121.242188 107.964844 120.101562 C 107.964844 118.957031 108.910156 118.015625 110.050781 118.015625 L 131.402344 118.015625 C 132.71875 118.015625 133.773438 116.960938 133.773438 115.640625 L 133.773438 85.285156 C 133.773438 84.121094 134.71875 83.199219 135.859375 83.199219 C 137 83.199219 137.945312 84.144531 137.945312 85.285156 L 137.945312 115.621094 C 137.96875 119.246094 135.003906 122.1875 131.402344 122.1875 Z M 64.890625 109.25 L 64.890625 94.378906 C 64.890625 93.457031 64.144531 92.6875 63.199219 92.6875 L 53.734375 92.6875 C 52.808594 92.6875 52.042969 93.4375 52.042969 94.378906 L 52.042969 109.25 C 52.042969 110.171875 52.789062 110.941406 53.734375 110.941406 L 63.222656 110.941406 C 64.144531 110.917969 64.890625 110.171875 64.890625 109.25 Z M 55.425781 96.050781 L 61.550781 96.050781 L 61.550781 107.558594 L 55.425781 107.558594 Z M 55.425781 96.050781 " fill-opacity="1" fill-rule="nonzero"/></g><g clip-path="url(#657e72c7b6)"><path fill="#000000" d="M 143.21875 87.375 L 110.050781 87.375 C 108.886719 87.375 107.964844 86.429688 107.964844 85.285156 C 107.964844 84.121094 108.910156 83.199219 110.050781 83.199219 L 143.238281 83.199219 C 144.402344 83.199219 145.328125 84.144531 145.328125 85.285156 C 145.328125 86.429688 144.382812 87.375 143.21875 87.375 Z M 72.886719 85.285156 C 72.886719 84.121094 71.941406 83.199219 70.800781 83.199219 L 37.609375 83.199219 C 36.445312 83.199219 35.523438 84.144531 35.523438 85.285156 C 35.523438 86.449219 36.46875 87.375 37.609375 87.375 L 70.800781 87.375 C 71.941406 87.375 72.886719 86.449219 72.886719 85.285156 Z M 98.410156 72.523438 C 98.410156 68.109375 94.808594 64.507812 90.390625 64.507812 C 85.976562 64.507812 82.375 68.109375 82.375 72.523438 C 82.375 76.941406 85.976562 80.542969 90.390625 80.542969 C 94.808594 80.542969 98.410156 76.941406 98.410156 72.523438 Z M 95.070312 72.523438 C 95.070312 75.09375 92.984375 77.183594 90.414062 77.183594 C 87.84375 77.183594 85.757812 75.09375 85.757812 72.523438 C 85.757812 69.957031 87.84375 67.867188 90.414062 67.867188 C 92.984375 67.890625 95.070312 69.976562 95.070312 72.523438 Z M 95.070312 72.523438 " fill-opacity="1" fill-rule="nonzero"/></g><g clip-path="url(#6112e4812e)"><path fill="#000000" d="M 97.574219 121.726562 C 96.519531 121.726562 95.6875 120.890625 95.6875 119.835938 L 95.6875 96.269531 L 85.144531 96.269531 L 85.144531 119.835938 C 85.144531 120.890625 84.308594 121.726562 83.253906 121.726562 C 82.199219 121.726562 81.363281 120.890625 81.363281 119.835938 L 81.363281 94.378906 C 81.363281 93.324219 82.199219 92.492188 83.253906 92.492188 L 97.597656 92.492188 C 98.652344 92.492188 99.484375 93.324219 99.484375 94.378906 L 99.484375 119.835938 C 99.464844 120.871094 98.628906 121.726562 97.574219 121.726562 Z M 39.433594 86.296875 L 45.011719 76.238281 C 46.398438 73.753906 48.988281 72.21875 51.84375 72.21875 L 70.800781 72.21875 C 71.964844 72.21875 72.886719 71.273438 72.886719 70.132812 C 72.886719 68.96875 71.941406 68.042969 70.800781 68.042969 L 51.820312 68.042969 C 47.472656 68.042969 43.429688 70.417969 41.324219 74.214844 L 35.765625 84.253906 C 35.195312 85.265625 35.566406 86.539062 36.578125 87.109375 C 36.90625 87.285156 37.257812 87.375 37.589844 87.375 C 38.335938 87.375 39.058594 86.976562 39.433594 86.296875 Z M 144.25 87.109375 C 145.261719 86.539062 145.632812 85.265625 145.0625 84.253906 L 139.484375 74.195312 C 137.375 70.371094 133.355469 68.023438 128.984375 68.023438 L 110.027344 68.023438 C 108.863281 68.023438 107.941406 68.96875 107.941406 70.109375 C 107.941406 71.273438 108.886719 72.195312 110.027344 72.195312 L 128.984375 72.195312 C 131.816406 72.195312 134.433594 73.734375 135.816406 76.214844 L 141.394531 86.273438 C 141.789062 86.957031 142.492188 87.351562 143.238281 87.351562 C 143.570312 87.375 143.921875 87.285156 144.25 87.109375 Z M 144.25 87.109375 " fill-opacity="1" fill-rule="nonzero"/></g><g clip-path="url(#f5114363a0)"><path fill="#000000" d="M 110.050781 102.792969 C 108.886719 102.792969 107.964844 101.847656 107.964844 100.707031 L 107.964844 64.949219 C 107.964844 63.785156 108.910156 62.859375 110.050781 62.859375 C 111.191406 62.859375 112.136719 63.804688 112.136719 64.949219 L 112.136719 100.683594 C 112.136719 101.847656 111.191406 102.792969 110.050781 102.792969 Z M 112.136719 120.101562 L 112.136719 108.589844 C 112.136719 107.425781 111.191406 106.503906 110.050781 106.503906 C 108.910156 106.503906 107.964844 107.449219 107.964844 108.589844 L 107.964844 117.992188 L 72.886719 117.992188 L 72.886719 64.949219 C 72.886719 63.785156 71.941406 62.859375 70.800781 62.859375 C 69.65625 62.859375 68.714844 63.804688 68.714844 64.949219 L 68.714844 120.078125 C 68.714844 121.242188 69.65625 122.164062 70.800781 122.164062 L 110.050781 122.164062 C 111.191406 122.1875 112.136719 121.265625 112.136719 120.101562 Z M 112.136719 120.101562 " fill-opacity="1" fill-rule="nonzero"/></g><path fill="#000000" d="M 111.632812 66.308594 C 110.886719 67.1875 109.546875 67.296875 108.667969 66.550781 L 90.414062 50.910156 L 72.160156 66.527344 C 71.765625 66.859375 71.28125 67.035156 70.800781 67.035156 C 70.207031 67.035156 69.613281 66.792969 69.195312 66.308594 C 68.449219 65.429688 68.539062 64.113281 69.4375 63.34375 L 88.328125 47.179688 L 88.328125 31.625 C 88.328125 30.460938 89.273438 29.539062 90.414062 29.539062 C 91.578125 29.539062 92.5 30.484375 92.5 31.625 L 92.5 47.199219 L 111.390625 63.367188 C 112.292969 64.113281 112.402344 65.429688 111.632812 66.308594 Z M 111.632812 66.308594 " fill-opacity="1" fill-rule="nonzero"/><g clip-path="url(#40d23d705a)"><path fill="#000000" d="M 88.304688 43.355469 L 88.304688 30.132812 C 88.304688 29.410156 88.65625 28.75 89.226562 28.332031 C 89.800781 27.914062 90.566406 27.804688 91.226562 28.046875 L 104.714844 32.789062 C 106.007812 33.253906 106.84375 34.480469 106.800781 35.84375 C 106.757812 37.207031 105.832031 38.390625 104.515625 38.742188 Z M 92.523438 32.964844 L 92.523438 37.800781 L 100.167969 35.644531 Z M 89.863281 32.023438 Z M 89.863281 32.023438 " fill-opacity="1" fill-rule="nonzero"/></g><g clip-path="url(#d367247dc3)"><path fill="#000000" d="M 293.097656 101.449219 C 292.664062 103.695312 291.132812 105.539062 289.007812 106.371094 C 288.800781 106.460938 288.574219 106.496094 288.367188 106.496094 C 287.671875 106.496094 287.007812 106.078125 286.730469 105.382812 C 286.382812 104.476562 286.816406 103.449219 287.722656 103.101562 C 288.730469 102.703125 289.445312 101.867188 289.652344 100.789062 C 289.863281 99.710938 289.53125 98.667969 288.730469 97.917969 L 267.578125 77.863281 L 218.246094 95.953125 C 217.34375 96.285156 216.316406 95.8125 215.984375 94.910156 C 215.65625 93.988281 216.125 92.980469 217.03125 92.648438 L 266.257812 74.609375 L 266.257812 40.828125 C 266.257812 39.855469 267.039062 39.074219 268.015625 39.074219 C 268.988281 39.074219 269.769531 39.855469 269.769531 40.828125 L 269.769531 75.078125 L 291.132812 95.363281 C 292.800781 96.925781 293.53125 99.207031 293.097656 101.449219 Z M 229.207031 65.40625 L 256.726562 55.703125 C 257.367188 55.476562 257.699219 54.78125 257.472656 54.136719 C 257.246094 53.492188 256.550781 53.164062 255.90625 53.386719 L 228.390625 63.09375 C 227.746094 63.320312 227.414062 64.015625 227.640625 64.660156 C 227.816406 65.164062 228.300781 65.476562 228.804688 65.476562 C 228.929688 65.476562 229.066406 65.460938 229.207031 65.40625 Z M 229.1875 71.21875 L 239.46875 67.722656 C 240.113281 67.496094 240.460938 66.800781 240.234375 66.15625 C 240.007812 65.511719 239.3125 65.164062 238.667969 65.390625 L 228.390625 68.886719 C 227.746094 69.113281 227.398438 69.808594 227.625 70.453125 C 227.796875 70.957031 228.285156 71.289062 228.789062 71.289062 C 228.929688 71.269531 229.066406 71.253906 229.1875 71.21875 Z M 229.1875 77.011719 L 239.46875 73.515625 C 240.113281 73.289062 240.460938 72.59375 240.234375 71.949219 C 240.007812 71.304688 239.3125 70.957031 238.667969 71.183594 L 228.390625 74.679688 C 227.746094 74.90625 227.398438 75.601562 227.625 76.246094 C 227.796875 76.75 228.285156 77.078125 228.789062 77.078125 C 228.929688 77.078125 229.066406 77.046875 229.1875 77.011719 Z M 229.1875 77.011719 " fill-opacity="1" fill-rule="nonzero"/></g><g clip-path="url(#ee5c637450)"><path fill="#000000" d="M 247.574219 113.46875 C 245.785156 113.46875 244.027344 112.738281 242.722656 111.363281 L 229.207031 97.085938 C 228.929688 96.789062 228.804688 96.351562 228.894531 95.953125 C 228.996094 95.554688 229.277344 95.222656 229.675781 95.082031 L 265.910156 81.8125 C 266.34375 81.65625 266.832031 81.742188 267.179688 82.074219 L 281.425781 95.449219 C 282.261719 96.230469 282.644531 97.378906 282.417969 98.511719 C 282.207031 99.640625 281.425781 100.5625 280.363281 100.996094 L 250.027344 113 C 249.246094 113.3125 248.410156 113.46875 247.574219 113.46875 Z M 232.285156 96.753906 L 244.515625 109.679688 C 245.714844 110.949219 247.523438 111.347656 249.140625 110.703125 L 279.460938 98.703125 C 279.859375 98.546875 279.964844 98.195312 280 98.039062 C 280.035156 97.882812 280.050781 97.535156 279.738281 97.242188 L 266.046875 84.386719 Z M 245.226562 45.527344 L 263.421875 38.863281 C 264.082031 38.621094 264.777344 38.722656 265.351562 39.105469 C 265.925781 39.507812 266.257812 40.132812 266.257812 40.828125 C 266.257812 41.804688 267.039062 42.585938 268.015625 42.585938 C 268.988281 42.585938 269.769531 41.804688 269.769531 40.828125 C 269.769531 38.984375 268.867188 37.261719 267.371094 36.21875 C 265.855469 35.160156 263.925781 34.914062 262.222656 35.542969 L 244.007812 42.222656 C 243.085938 42.550781 242.636719 43.558594 242.964844 44.480469 C 243.226562 45.195312 243.90625 45.628906 244.617188 45.628906 C 244.828125 45.628906 245.019531 45.59375 245.226562 45.527344 Z M 217.933594 90.300781 L 217.933594 59.597656 C 217.933594 57.179688 219.464844 54.988281 221.726562 54.171875 L 237.730469 48.308594 C 238.652344 47.980469 239.105469 46.96875 238.773438 46.046875 C 238.441406 45.125 237.433594 44.671875 236.511719 45.003906 L 220.527344 50.867188 C 216.875 52.207031 214.421875 55.71875 214.421875 59.597656 L 214.421875 90.300781 C 214.421875 91.273438 215.203125 92.058594 216.175781 92.058594 C 217.152344 92.058594 217.933594 91.257812 217.933594 90.300781 Z M 217.933594 90.300781 " fill-opacity="1" fill-rule="nonzero"/></g><path fill="#000000" d="M 223.03125 85.152344 C 222.789062 85.152344 222.527344 85.082031 222.316406 84.925781 C 221.988281 84.699219 221.796875 84.316406 221.796875 83.917969 L 221.796875 58.539062 C 221.796875 58.015625 222.125 57.546875 222.613281 57.371094 L 261.664062 43.421875 C 262.046875 43.28125 262.464844 43.351562 262.777344 43.578125 C 263.109375 43.804688 263.300781 44.1875 263.300781 44.585938 L 263.300781 69.964844 C 263.300781 70.488281 262.96875 70.957031 262.484375 71.132812 L 223.449219 85.082031 C 223.308594 85.132812 223.171875 85.152344 223.03125 85.152344 Z M 224.265625 59.40625 L 224.265625 82.175781 L 260.847656 69.113281 L 260.847656 46.34375 Z M 224.265625 59.40625 " fill-opacity="1" fill-rule="nonzero"/><g clip-path="url(#70155e8fad)"><path fill="#000000" d="M 246.929688 122.183594 C 244.21875 122.183594 241.554688 121.125 239.574219 119.140625 L 216.386719 95.535156 C 215.707031 94.839844 215.707031 93.726562 216.402344 93.046875 C 217.097656 92.371094 218.210938 92.371094 218.890625 93.066406 L 242.0625 116.652344 C 243.992188 118.582031 246.898438 119.191406 249.453125 118.183594 L 283.148438 104.894531 C 284.050781 104.546875 285.078125 104.980469 285.425781 105.886719 C 285.773438 106.789062 285.339844 107.816406 284.433594 108.164062 L 250.742188 121.453125 C 249.507812 121.941406 248.21875 122.183594 246.929688 122.183594 Z M 246.929688 122.183594 " fill-opacity="1" fill-rule="nonzero"/></g><path fill="#000000" d="M 272.03125 93.777344 L 268.257812 95.117188 L 265.195312 92.144531 L 267.683594 91.273438 C 268.328125 91.046875 268.65625 90.351562 268.429688 89.707031 C 268.207031 89.066406 267.507812 88.734375 266.867188 88.960938 L 263.230469 90.246094 L 261.28125 88.351562 C 260.796875 87.882812 260.011719 87.882812 259.542969 88.371094 C 259.074219 88.855469 259.074219 89.640625 259.558594 90.109375 L 260.636719 91.152344 L 255.296875 93.011719 L 253.523438 91.308594 C 253.039062 90.839844 252.253906 90.839844 251.785156 91.328125 C 251.316406 91.8125 251.316406 92.597656 251.800781 93.066406 L 252.6875 93.917969 L 246.984375 95.9375 L 245.402344 94.40625 C 244.914062 93.9375 244.132812 93.9375 243.660156 94.421875 C 243.191406 94.910156 243.191406 95.691406 243.679688 96.160156 L 244.375 96.839844 L 239.382812 98.597656 C 238.738281 98.824219 238.40625 99.519531 238.632812 100.164062 C 238.808594 100.667969 239.296875 100.980469 239.800781 100.980469 C 239.9375 100.980469 240.078125 100.964844 240.21875 100.910156 L 246.375 98.738281 L 249.4375 101.710938 L 244.582031 103.414062 C 243.941406 103.640625 243.609375 104.335938 243.835938 104.980469 C 244.007812 105.484375 244.496094 105.796875 245 105.796875 C 245.140625 105.796875 245.277344 105.78125 245.417969 105.730469 L 251.417969 103.605469 L 253.941406 106.058594 C 254.183594 106.285156 254.5 106.40625 254.792969 106.40625 C 255.105469 106.40625 255.4375 106.285156 255.679688 106.023438 C 256.152344 105.539062 256.152344 104.753906 255.664062 104.285156 L 254.011719 102.683594 L 259.714844 100.667969 L 262.066406 102.929688 C 262.308594 103.15625 262.621094 103.277344 262.917969 103.277344 C 263.230469 103.277344 263.5625 103.15625 263.804688 102.894531 C 264.273438 102.40625 264.273438 101.625 263.785156 101.15625 L 262.324219 99.746094 L 267.648438 97.867188 L 269.804688 99.953125 C 270.050781 100.179688 270.363281 100.300781 270.65625 100.300781 C 270.972656 100.300781 271.300781 100.179688 271.546875 99.917969 C 272.015625 99.433594 272.015625 98.648438 271.527344 98.179688 L 270.257812 96.945312 L 272.882812 96.023438 C 273.527344 95.796875 273.859375 95.101562 273.632812 94.457031 C 273.390625 93.902344 272.675781 93.554688 272.03125 93.777344 Z M 252.0625 100.839844 L 249 97.867188 L 254.707031 95.847656 L 257.769531 98.824219 Z M 260.34375 97.902344 L 257.28125 94.925781 L 262.605469 93.046875 L 265.664062 96.023438 Z M 276.902344 59.492188 L 275.164062 65.632812 C 274.9375 66.398438 274.242188 66.921875 273.476562 66.921875 C 273.320312 66.921875 273.164062 66.902344 272.988281 66.851562 C 272.050781 66.589844 271.511719 65.617188 271.789062 64.675781 L 273.527344 58.539062 C 273.789062 57.597656 274.761719 57.058594 275.703125 57.335938 C 276.625 57.597656 277.179688 58.570312 276.902344 59.492188 Z M 277.894531 70.417969 C 277.269531 70.417969 276.675781 70.085938 276.363281 69.511719 C 275.894531 68.660156 276.191406 67.601562 277.042969 67.128906 L 283.058594 63.773438 C 283.914062 63.304688 284.972656 63.597656 285.445312 64.453125 C 285.914062 65.304688 285.617188 66.363281 284.765625 66.835938 L 278.746094 70.191406 C 278.46875 70.347656 278.171875 70.417969 277.894531 70.417969 Z M 287.355469 76.785156 C 287.128906 77.550781 286.433594 78.070312 285.667969 78.070312 C 285.511719 78.070312 285.355469 78.054688 285.183594 78 L 278.035156 75.964844 C 277.09375 75.707031 276.554688 74.730469 276.832031 73.792969 C 277.09375 72.851562 278.066406 72.3125 279.007812 72.59375 L 286.15625 74.628906 C 287.097656 74.871094 287.636719 75.84375 287.355469 76.785156 Z M 287.355469 76.785156 " fill-opacity="1" fill-rule="nonzero"/><g clip-path="url(#ba1cf21c85)"><path fill="#000000" d="M 385.300781 84.691406 C 374.277344 84.691406 365.394531 91.707031 361.535156 103.457031 C 361.269531 104.253906 361.402344 105.105469 361.898438 105.785156 C 362.390625 106.46875 363.152344 106.855469 363.988281 106.855469 L 406.609375 106.855469 C 407.445312 106.855469 408.207031 106.46875 408.699219 105.785156 C 409.195312 105.105469 409.328125 104.253906 409.0625 103.457031 C 405.203125 91.707031 396.320312 84.691406 385.300781 84.691406 Z M 406.609375 112.019531 L 363.988281 112.019531 C 361.472656 112.019531 359.1875 110.851562 357.714844 108.816406 C 356.234375 106.777344 355.839844 104.234375 356.628906 101.84375 C 361.21875 87.871094 371.9375 79.527344 385.300781 79.527344 C 398.660156 79.527344 409.378906 87.871094 413.972656 101.84375 C 414.757812 104.234375 414.363281 106.777344 412.882812 108.816406 C 411.410156 110.851562 409.125 112.019531 406.609375 112.019531 Z M 385.300781 52.625 C 379.492188 52.625 374.761719 57.351562 374.761719 63.160156 C 374.761719 68.976562 381.136719 73.695312 385.300781 73.695312 C 389.460938 73.695312 395.835938 68.976562 395.835938 63.160156 C 395.835938 57.351562 391.105469 52.625 385.300781 52.625 Z M 385.300781 78.859375 C 378.234375 78.859375 369.597656 71.613281 369.597656 63.160156 C 369.597656 54.503906 376.640625 47.457031 385.300781 47.457031 C 393.957031 47.457031 401 54.503906 401 63.160156 C 401 71.613281 392.367188 78.859375 385.300781 78.859375 " fill-opacity="1" fill-rule="nonzero"/></g><g clip-path="url(#8c481b1819)"><path fill="#000000" d="M 160.214844 77.367188 C 160.214844 77.679688 160.15625 77.984375 160.035156 78.273438 C 159.914062 78.5625 159.742188 78.820312 159.523438 79.042969 C 159.300781 79.261719 159.042969 79.433594 158.753906 79.554688 C 158.464844 79.675781 158.160156 79.734375 157.847656 79.734375 C 157.535156 79.734375 157.230469 79.675781 156.941406 79.554688 C 156.652344 79.433594 156.394531 79.261719 156.175781 79.042969 C 155.953125 78.820312 155.78125 78.5625 155.660156 78.273438 C 155.539062 77.984375 155.480469 77.679688 155.480469 77.367188 C 155.480469 77.054688 155.539062 76.75 155.660156 76.460938 C 155.78125 76.171875 155.953125 75.914062 156.175781 75.691406 C 156.394531 75.472656 156.652344 75.300781 156.941406 75.179688 C 157.230469 75.058594 157.535156 75 157.847656 75 C 158.160156 75 158.464844 75.058594 158.753906 75.179688 C 159.042969 75.300781 159.300781 75.472656 159.523438 75.691406 C 159.742188 75.914062 159.914062 76.171875 160.035156 76.460938 C 160.15625 76.75 160.214844 77.054688 160.214844 77.367188 Z M 160.214844 77.367188 " fill-opacity="1" fill-rule="nonzero"/></g><g clip-path="url(#d4b9fde01c)"><path fill="#000000" d="M 169.683594 77.367188 C 169.683594 77.679688 169.625 77.984375 169.503906 78.273438 C 169.382812 78.5625 169.210938 78.820312 168.992188 79.042969 C 168.769531 79.261719 168.511719 79.433594 168.222656 79.554688 C 167.933594 79.675781 167.628906 79.734375 167.316406 79.734375 C 167.003906 79.734375 166.699219 79.675781 166.410156 79.554688 C 166.121094 79.433594 165.863281 79.261719 165.644531 79.042969 C 165.421875 78.820312 165.25 78.5625 165.128906 78.273438 C 165.007812 77.984375 164.949219 77.679688 164.949219 77.367188 C 164.949219 77.054688 165.007812 76.75 165.128906 76.460938 C 165.25 76.171875 165.421875 75.914062 165.644531 75.691406 C 165.863281 75.472656 166.121094 75.300781 166.410156 75.179688 C 166.699219 75.058594 167.003906 75 167.316406 75 C 167.628906 75 167.933594 75.058594 168.222656 75.179688 C 168.511719 75.300781 168.769531 75.472656 168.992188 75.691406 C 169.210938 75.914062 169.382812 76.171875 169.503906 76.460938 C 169.625 76.75 169.683594 77.054688 169.683594 77.367188 Z M 169.683594 77.367188 " fill-opacity="1" fill-rule="nonzero"/></g><g clip-path="url(#263b96844d)"><path fill="#000000" d="M 179.152344 77.367188 C 179.152344 77.679688 179.09375 77.984375 178.972656 78.273438 C 178.851562 78.5625 178.679688 78.820312 178.460938 79.042969 C 178.238281 79.261719 177.980469 79.433594 177.691406 79.554688 C 177.402344 79.675781 177.097656 79.734375 176.785156 79.734375 C 176.472656 79.734375 176.167969 79.675781 175.878906 79.554688 C 175.589844 79.433594 175.332031 79.261719 175.113281 79.042969 C 174.890625 78.820312 174.71875 78.5625 174.597656 78.273438 C 174.476562 77.984375 174.417969 77.679688 174.417969 77.367188 C 174.417969 77.054688 174.476562 76.75 174.597656 76.460938 C 174.71875 76.171875 174.890625 75.914062 175.113281 75.691406 C 175.332031 75.472656 175.589844 75.300781 175.878906 75.179688 C 176.167969 75.058594 176.472656 75 176.785156 75 C 177.097656 75 177.402344 75.058594 177.691406 75.179688 C 177.980469 75.300781 178.238281 75.472656 178.460938 75.691406 C 178.679688 75.914062 178.851562 76.171875 178.972656 76.460938 C 179.09375 76.75 179.152344 77.054688 179.152344 77.367188 Z M 179.152344 77.367188 " fill-opacity="1" fill-rule="nonzero"/></g><g clip-path="url(#c2332deae5)"><path fill="#000000" d="M 188.621094 77.367188 C 188.621094 77.679688 188.5625 77.984375 188.441406 78.273438 C 188.320312 78.5625 188.148438 78.820312 187.929688 79.042969 C 187.707031 79.261719 187.449219 79.433594 187.160156 79.554688 C 186.871094 79.675781 186.566406 79.734375 186.253906 79.734375 C 185.941406 79.734375 185.636719 79.675781 185.347656 79.554688 C 185.058594 79.433594 184.800781 79.261719 184.582031 79.042969 C 184.359375 78.820312 184.1875 78.5625 184.066406 78.273438 C 183.945312 77.984375 183.886719 77.679688 183.886719 77.367188 C 183.886719 77.054688 183.945312 76.75 184.066406 76.460938 C 184.1875 76.171875 184.359375 75.914062 184.582031 75.691406 C 184.800781 75.472656 185.058594 75.300781 185.347656 75.179688 C 185.636719 75.058594 185.941406 75 186.253906 75 C 186.566406 75 186.871094 75.058594 187.160156 75.179688 C 187.449219 75.300781 187.707031 75.472656 187.929688 75.691406 C 188.148438 75.914062 188.320312 76.171875 188.441406 76.460938 C 188.5625 76.75 188.621094 77.054688 188.621094 77.367188 Z M 188.621094 77.367188 " fill-opacity="1" fill-rule="nonzero"/></g><g clip-path="url(#2230f480a9)"><path fill="#000000" d="M 198.089844 77.367188 C 198.089844 77.679688 198.03125 77.984375 197.910156 78.273438 C 197.789062 78.5625 197.617188 78.820312 197.398438 79.042969 C 197.175781 79.261719 196.917969 79.433594 196.628906 79.554688 C 196.339844 79.675781 196.035156 79.734375 195.722656 79.734375 C 195.410156 79.734375 195.105469 79.675781 194.816406 79.554688 C 194.527344 79.433594 194.269531 79.261719 194.050781 79.042969 C 193.828125 78.820312 193.65625 78.5625 193.535156 78.273438 C 193.414062 77.984375 193.355469 77.679688 193.355469 77.367188 C 193.355469 77.054688 193.414062 76.75 193.535156 76.460938 C 193.65625 76.171875 193.828125 75.914062 194.050781 75.691406 C 194.269531 75.472656 194.527344 75.300781 194.816406 75.179688 C 195.105469 75.058594 195.410156 75 195.722656 75 C 196.035156 75 196.339844 75.058594 196.628906 75.179688 C 196.917969 75.300781 197.175781 75.472656 197.398438 75.691406 C 197.617188 75.914062 197.789062 76.171875 197.910156 76.460938 C 198.03125 76.75 198.089844 77.054688 198.089844 77.367188 Z M 198.089844 77.367188 " fill-opacity="1" fill-rule="nonzero"/></g><g clip-path="url(#4ecafb880a)"><path fill="#000000" d="M 308.140625 79.738281 C 308.140625 80.050781 308.082031 80.351562 307.960938 80.644531 C 307.839844 80.933594 307.667969 81.1875 307.445312 81.410156 C 307.226562 81.632812 306.96875 81.804688 306.679688 81.925781 C 306.390625 82.042969 306.085938 82.105469 305.773438 82.105469 C 305.460938 82.105469 305.15625 82.042969 304.867188 81.925781 C 304.578125 81.804688 304.320312 81.632812 304.097656 81.410156 C 303.878906 81.1875 303.707031 80.933594 303.585938 80.644531 C 303.464844 80.351562 303.40625 80.050781 303.40625 79.738281 C 303.40625 79.421875 303.464844 79.121094 303.585938 78.832031 C 303.707031 78.542969 303.878906 78.285156 304.097656 78.0625 C 304.320312 77.839844 304.578125 77.671875 304.867188 77.550781 C 305.15625 77.429688 305.460938 77.371094 305.773438 77.371094 C 306.085938 77.371094 306.390625 77.429688 306.679688 77.550781 C 306.96875 77.671875 307.226562 77.839844 307.445312 78.0625 C 307.667969 78.285156 307.839844 78.542969 307.960938 78.832031 C 308.082031 79.121094 308.140625 79.421875 308.140625 79.738281 Z M 308.140625 79.738281 " fill-opacity="1" fill-rule="nonzero"/></g><g clip-path="url(#3d89421754)"><path fill="#000000" d="M 317.609375 79.738281 C 317.609375 80.050781 317.550781 80.351562 317.429688 80.644531 C 317.308594 80.933594 317.136719 81.1875 316.914062 81.410156 C 316.695312 81.632812 316.4375 81.804688 316.148438 81.925781 C 315.859375 82.042969 315.554688 82.105469 315.242188 82.105469 C 314.929688 82.105469 314.625 82.042969 314.335938 81.925781 C 314.046875 81.804688 313.789062 81.632812 313.566406 81.410156 C 313.347656 81.1875 313.175781 80.933594 313.054688 80.644531 C 312.933594 80.351562 312.875 80.050781 312.875 79.738281 C 312.875 79.421875 312.933594 79.121094 313.054688 78.832031 C 313.175781 78.542969 313.347656 78.285156 313.566406 78.0625 C 313.789062 77.839844 314.046875 77.671875 314.335938 77.550781 C 314.625 77.429688 314.929688 77.371094 315.242188 77.371094 C 315.554688 77.371094 315.859375 77.429688 316.148438 77.550781 C 316.4375 77.671875 316.695312 77.839844 316.914062 78.0625 C 317.136719 78.285156 317.308594 78.542969 317.429688 78.832031 C 317.550781 79.121094 317.609375 79.421875 317.609375 79.738281 Z M 317.609375 79.738281 " fill-opacity="1" fill-rule="nonzero"/></g><g clip-path="url(#14dcf96afa)"><path fill="#000000" d="M 327.078125 79.738281 C 327.078125 80.050781 327.019531 80.351562 326.898438 80.644531 C 326.777344 80.933594 326.605469 81.1875 326.382812 81.410156 C 326.164062 81.632812 325.90625 81.804688 325.617188 81.925781 C 325.328125 82.042969 325.023438 82.105469 324.710938 82.105469 C 324.398438 82.105469 324.09375 82.042969 323.804688 81.925781 C 323.515625 81.804688 323.257812 81.632812 323.035156 81.410156 C 322.816406 81.1875 322.644531 80.933594 322.523438 80.644531 C 322.402344 80.351562 322.34375 80.050781 322.34375 79.738281 C 322.34375 79.421875 322.402344 79.121094 322.523438 78.832031 C 322.644531 78.542969 322.816406 78.285156 323.035156 78.0625 C 323.257812 77.839844 323.515625 77.671875 323.804688 77.550781 C 324.09375 77.429688 324.398438 77.371094 324.710938 77.371094 C 325.023438 77.371094 325.328125 77.429688 325.617188 77.550781 C 325.90625 77.671875 326.164062 77.839844 326.382812 78.0625 C 326.605469 78.285156 326.777344 78.542969 326.898438 78.832031 C 327.019531 79.121094 327.078125 79.421875 327.078125 79.738281 Z M 327.078125 79.738281 " fill-opacity="1" fill-rule="nonzero"/></g><g clip-path="url(#a65856adce)"><path fill="#000000" d="M 336.546875 79.738281 C 336.546875 80.050781 336.488281 80.351562 336.367188 80.644531 C 336.246094 80.933594 336.074219 81.1875 335.851562 81.410156 C 335.632812 81.632812 335.375 81.804688 335.085938 81.925781 C 334.796875 82.042969 334.492188 82.105469 334.179688 82.105469 C 333.867188 82.105469 333.5625 82.042969 333.273438 81.925781 C 332.984375 81.804688 332.726562 81.632812 332.503906 81.410156 C 332.285156 81.1875 332.113281 80.933594 331.992188 80.644531 C 331.871094 80.351562 331.8125 80.050781 331.8125 79.738281 C 331.8125 79.421875 331.871094 79.121094 331.992188 78.832031 C 332.113281 78.542969 332.285156 78.285156 332.503906 78.0625 C 332.726562 77.839844 332.984375 77.671875 333.273438 77.550781 C 333.5625 77.429688 333.867188 77.371094 334.179688 77.371094 C 334.492188 77.371094 334.796875 77.429688 335.085938 77.550781 C 335.375 77.671875 335.632812 77.839844 335.851562 78.0625 C 336.074219 78.285156 336.246094 78.542969 336.367188 78.832031 C 336.488281 79.121094 336.546875 79.421875 336.546875 79.738281 Z M 336.546875 79.738281 " fill-opacity="1" fill-rule="nonzero"/></g><g clip-path="url(#fb19b87cb4)"><path fill="#000000" d="M 346.015625 79.738281 C 346.015625 80.050781 345.957031 80.351562 345.835938 80.644531 C 345.714844 80.933594 345.542969 81.1875 345.320312 81.410156 C 345.101562 81.632812 344.84375 81.804688 344.554688 81.925781 C 344.265625 82.042969 343.960938 82.105469 343.648438 82.105469 C 343.335938 82.105469 343.03125 82.042969 342.742188 81.925781 C 342.453125 81.804688 342.195312 81.632812 341.972656 81.410156 C 341.753906 81.1875 341.582031 80.933594 341.460938 80.644531 C 341.339844 80.351562 341.28125 80.050781 341.28125 79.738281 C 341.28125 79.421875 341.339844 79.121094 341.460938 78.832031 C 341.582031 78.542969 341.753906 78.285156 341.972656 78.0625 C 342.195312 77.839844 342.453125 77.671875 342.742188 77.550781 C 343.03125 77.429688 343.335938 77.371094 343.648438 77.371094 C 343.960938 77.371094 344.265625 77.429688 344.554688 77.550781 C 344.84375 77.671875 345.101562 77.839844 345.320312 78.0625 C 345.542969 78.285156 345.714844 78.542969 345.835938 78.832031 C 345.957031 79.121094 346.015625 79.421875 346.015625 79.738281 Z M 346.015625 79.738281 " fill-opacity="1" fill-rule="nonzero"/></g></svg>