<svg xmlns="http://www.w3.org/2000/svg" xmlns:xlink="http://www.w3.org/1999/xlink" width="600" zoomAndPan="magnify" viewBox="0 0 450 149.999998" height="200" preserveAspectRatio="xMidYMid meet" version="1.0"><defs><clipPath id="d891251e33"><path d="M 42 83 L 130 83 L 130 122.304688 L 42 122.304688 Z M 42 83 " clip-rule="nonzero"/></clipPath><clipPath id="7ca4a11d60"><path d="M 52 83 L 138 83 L 138 122.304688 L 52 122.304688 Z M 52 83 " clip-rule="nonzero"/></clipPath><clipPath id="8d2e4a6db9"><path d="M 35.191406 64 L 145.441406 64 L 145.441406 88 L 35.191406 88 Z M 35.191406 64 " clip-rule="nonzero"/></clipPath><clipPath id="c31223bb04"><path d="M 35.191406 68 L 145.441406 68 L 145.441406 122 L 35.191406 122 Z M 35.191406 68 " clip-rule="nonzero"/></clipPath><clipPath id="8d3a24a8d6"><path d="M 68 62 L 113 62 L 113 122.304688 L 68 122.304688 Z M 68 62 " clip-rule="nonzero"/></clipPath><clipPath id="a4fd939f7c"><path d="M 88 27.804688 L 107 27.804688 L 107 44 L 88 44 Z M 88 27.804688 " clip-rule="nonzero"/></clipPath><clipPath id="849c25783a"><path d="M 215 39 L 293.882812 39 L 293.882812 107 L 215 107 Z M 215 39 " clip-rule="nonzero"/></clipPath><clipPath id="6503fd6320"><path d="M 214.382812 35 L 283 35 L 283 114 L 214.382812 114 Z M 214.382812 35 " clip-rule="nonzero"/></clipPath><clipPath id="0b0a4458da"><path d="M 215 92 L 286 92 L 286 121.914062 L 215 121.914062 Z M 215 92 " clip-rule="nonzero"/></clipPath><clipPath id="cdceeea53a"><path d="M 356 47.347656 L 415 47.347656 L 415 111.847656 L 356 111.847656 Z M 356 47.347656 " clip-rule="nonzero"/></clipPath><clipPath id="dcee6beed0"><path d="M 155.363281 75 L 161 75 L 161 79.5 L 155.363281 79.5 Z M 155.363281 75 " clip-rule="nonzero"/></clipPath><clipPath id="4ad5197f1e"><path d="M 164 75 L 170 75 L 170 79.5 L 164 79.5 Z M 164 75 " clip-rule="nonzero"/></clipPath><clipPath id="85dd510aa1"><path d="M 174 75 L 180 75 L 180 79.5 L 174 79.5 Z M 174 75 " clip-rule="nonzero"/></clipPath><clipPath id="674c697f76"><path d="M 183 75 L 189 75 L 189 79.5 L 183 79.5 Z M 183 75 " clip-rule="nonzero"/></clipPath><clipPath id="be0780ae59"><path d="M 193 75 L 198.113281 75 L 198.113281 79.5 L 193 79.5 Z M 193 75 " clip-rule="nonzero"/></clipPath><clipPath id="87a6ad4eae"><path d="M 303.289062 77.371094 L 309 77.371094 L 309 81.871094 L 303.289062 81.871094 Z M 303.289062 77.371094 " clip-rule="nonzero"/></clipPath><clipPath id="6b3679c2cc"><path d="M 312 77.371094 L 318 77.371094 L 318 81.871094 L 312 81.871094 Z M 312 77.371094 " clip-rule="nonzero"/></clipPath><clipPath id="37199677f4"><path d="M 322 77.371094 L 328 77.371094 L 328 81.871094 L 322 81.871094 Z M 322 77.371094 " clip-rule="nonzero"/></clipPath><clipPath id="413ce61364"><path d="M 331 77.371094 L 337 77.371094 L 337 81.871094 L 331 81.871094 Z M 331 77.371094 " clip-rule="nonzero"/></clipPath><clipPath id="5a5e04e564"><path d="M 341 77.371094 L 346 77.371094 L 346 81.871094 L 341 81.871094 Z M 341 77.371094 " clip-rule="nonzero"/></clipPath></defs><g clip-path="url(#d891251e33)"><path fill="#ffffff" d="M 70.800781 122.1875 L 49.429688 122.1875 C 45.804688 122.1875 42.859375 119.246094 42.859375 115.621094 L 42.859375 108.765625 C 42.859375 107.601562 43.804688 106.679688 44.945312 106.679688 C 46.089844 106.679688 47.035156 107.625 47.035156 108.765625 L 47.035156 115.621094 C 47.035156 116.9375 48.089844 117.992188 49.40625 117.992188 L 70.753906 117.992188 C 71.917969 117.992188 72.84375 118.9375 72.84375 120.078125 C 72.84375 121.222656 71.941406 122.1875 70.800781 122.1875 Z M 47.078125 99.785156 L 47.078125 85.285156 C 47.078125 84.121094 46.132812 83.199219 44.992188 83.199219 C 43.847656 83.199219 42.90625 84.144531 42.90625 85.285156 L 42.90625 99.785156 C 42.90625 100.949219 43.847656 101.871094 44.992188 101.871094 C 46.132812 101.871094 47.078125 100.949219 47.078125 99.785156 Z M 129.359375 109.25 L 129.359375 94.378906 C 129.359375 93.457031 128.609375 92.6875 127.667969 92.6875 L 118.179688 92.6875 C 117.253906 92.6875 116.488281 93.4375 116.488281 94.378906 L 116.488281 109.25 C 116.488281 110.171875 117.234375 110.941406 118.179688 110.941406 L 127.667969 110.941406 C 128.609375 110.917969 129.359375 110.171875 129.359375 109.25 Z M 119.890625 96.050781 L 126.019531 96.050781 L 126.019531 107.558594 L 119.890625 107.558594 Z M 119.890625 96.050781 " fill-opacity="1" fill-rule="nonzero"/></g><g clip-path="url(#7ca4a11d60)"><path fill="#ffffff" d="M 131.402344 122.1875 L 110.050781 122.1875 C 108.886719 122.1875 107.964844 121.242188 107.964844 120.101562 C 107.964844 118.957031 108.910156 118.015625 110.050781 118.015625 L 131.402344 118.015625 C 132.71875 118.015625 133.773438 116.960938 133.773438 115.640625 L 133.773438 85.285156 C 133.773438 84.121094 134.71875 83.199219 135.859375 83.199219 C 137 83.199219 137.945312 84.144531 137.945312 85.285156 L 137.945312 115.621094 C 137.96875 119.246094 135.003906 122.1875 131.402344 122.1875 Z M 64.890625 109.25 L 64.890625 94.378906 C 64.890625 93.457031 64.144531 92.6875 63.199219 92.6875 L 53.734375 92.6875 C 52.808594 92.6875 52.042969 93.4375 52.042969 94.378906 L 52.042969 109.25 C 52.042969 110.171875 52.789062 110.941406 53.734375 110.941406 L 63.222656 110.941406 C 64.144531 110.917969 64.890625 110.171875 64.890625 109.25 Z M 55.425781 96.050781 L 61.550781 96.050781 L 61.550781 107.558594 L 55.425781 107.558594 Z M 55.425781 96.050781 " fill-opacity="1" fill-rule="nonzero"/></g><g clip-path="url(#8d2e4a6db9)"><path fill="#ffffff" d="M 143.21875 87.375 L 110.050781 87.375 C 108.886719 87.375 107.964844 86.429688 107.964844 85.285156 C 107.964844 84.121094 108.910156 83.199219 110.050781 83.199219 L 143.238281 83.199219 C 144.402344 83.199219 145.328125 84.144531 145.328125 85.285156 C 145.328125 86.429688 144.382812 87.375 143.21875 87.375 Z M 72.886719 85.285156 C 72.886719 84.121094 71.941406 83.199219 70.800781 83.199219 L 37.609375 83.199219 C 36.445312 83.199219 35.523438 84.144531 35.523438 85.285156 C 35.523438 86.449219 36.46875 87.375 37.609375 87.375 L 70.800781 87.375 C 71.941406 87.375 72.886719 86.449219 72.886719 85.285156 Z M 98.410156 72.523438 C 98.410156 68.109375 94.808594 64.507812 90.390625 64.507812 C 85.976562 64.507812 82.375 68.109375 82.375 72.523438 C 82.375 76.941406 85.976562 80.542969 90.390625 80.542969 C 94.808594 80.542969 98.410156 76.941406 98.410156 72.523438 Z M 95.070312 72.523438 C 95.070312 75.09375 92.984375 77.183594 90.414062 77.183594 C 87.84375 77.183594 85.757812 75.09375 85.757812 72.523438 C 85.757812 69.957031 87.84375 67.867188 90.414062 67.867188 C 92.984375 67.890625 95.070312 69.976562 95.070312 72.523438 Z M 95.070312 72.523438 " fill-opacity="1" fill-rule="nonzero"/></g><g clip-path="url(#c31223bb04)"><path fill="#ffffff" d="M 97.574219 121.726562 C 96.519531 121.726562 95.6875 120.890625 95.6875 119.835938 L 95.6875 96.269531 L 85.144531 96.269531 L 85.144531 119.835938 C 85.144531 120.890625 84.308594 121.726562 83.253906 121.726562 C 82.199219 121.726562 81.363281 120.890625 81.363281 119.835938 L 81.363281 94.378906 C 81.363281 93.324219 82.199219 92.492188 83.253906 92.492188 L 97.597656 92.492188 C 98.652344 92.492188 99.484375 93.324219 99.484375 94.378906 L 99.484375 119.835938 C 99.464844 120.871094 98.628906 121.726562 97.574219 121.726562 Z M 39.433594 86.296875 L 45.011719 76.238281 C 46.398438 73.753906 48.988281 72.21875 51.84375 72.21875 L 70.800781 72.21875 C 71.964844 72.21875 72.886719 71.273438 72.886719 70.132812 C 72.886719 68.96875 71.941406 68.042969 70.800781 68.042969 L 51.820312 68.042969 C 47.472656 68.042969 43.429688 70.417969 41.324219 74.214844 L 35.765625 84.253906 C 35.195312 85.265625 35.566406 86.539062 36.578125 87.109375 C 36.90625 87.285156 37.257812 87.375 37.589844 87.375 C 38.335938 87.375 39.058594 86.976562 39.433594 86.296875 Z M 144.25 87.109375 C 145.261719 86.539062 145.632812 85.265625 145.0625 84.253906 L 139.484375 74.195312 C 137.375 70.371094 133.355469 68.023438 128.984375 68.023438 L 110.027344 68.023438 C 108.863281 68.023438 107.941406 68.96875 107.941406 70.109375 C 107.941406 71.273438 108.886719 72.195312 110.027344 72.195312 L 128.984375 72.195312 C 131.816406 72.195312 134.433594 73.734375 135.816406 76.214844 L 141.394531 86.273438 C 141.789062 86.957031 142.492188 87.351562 143.238281 87.351562 C 143.570312 87.375 143.921875 87.285156 144.25 87.109375 Z M 144.25 87.109375 " fill-opacity="1" fill-rule="nonzero"/></g><g clip-path="url(#8d3a24a8d6)"><path fill="#ffffff" d="M 110.050781 102.792969 C 108.886719 102.792969 107.964844 101.847656 107.964844 100.707031 L 107.964844 64.949219 C 107.964844 63.785156 108.910156 62.859375 110.050781 62.859375 C 111.191406 62.859375 112.136719 63.804688 112.136719 64.949219 L 112.136719 100.683594 C 112.136719 101.847656 111.191406 102.792969 110.050781 102.792969 Z M 112.136719 120.101562 L 112.136719 108.589844 C 112.136719 107.425781 111.191406 106.503906 110.050781 106.503906 C 108.910156 106.503906 107.964844 107.449219 107.964844 108.589844 L 107.964844 117.992188 L 72.886719 117.992188 L 72.886719 64.949219 C 72.886719 63.785156 71.941406 62.859375 70.800781 62.859375 C 69.65625 62.859375 68.714844 63.804688 68.714844 64.949219 L 68.714844 120.078125 C 68.714844 121.242188 69.65625 122.164062 70.800781 122.164062 L 110.050781 122.164062 C 111.191406 122.1875 112.136719 121.265625 112.136719 120.101562 Z M 112.136719 120.101562 " fill-opacity="1" fill-rule="nonzero"/></g><path fill="#ffffff" d="M 111.632812 66.308594 C 110.886719 67.1875 109.546875 67.296875 108.667969 66.550781 L 90.414062 50.910156 L 72.160156 66.527344 C 71.765625 66.859375 71.28125 67.035156 70.800781 67.035156 C 70.207031 67.035156 69.613281 66.792969 69.195312 66.308594 C 68.449219 65.429688 68.539062 64.113281 69.4375 63.34375 L 88.328125 47.179688 L 88.328125 31.625 C 88.328125 30.460938 89.273438 29.539062 90.414062 29.539062 C 91.578125 29.539062 92.5 30.484375 92.5 31.625 L 92.5 47.199219 L 111.390625 63.367188 C 112.292969 64.113281 112.402344 65.429688 111.632812 66.308594 Z M 111.632812 66.308594 " fill-opacity="1" fill-rule="nonzero"/><g clip-path="url(#a4fd939f7c)"><path fill="#ffffff" d="M 88.304688 43.355469 L 88.304688 30.132812 C 88.304688 29.410156 88.65625 28.75 89.226562 28.332031 C 89.800781 27.914062 90.566406 27.804688 91.226562 28.046875 L 104.714844 32.789062 C 106.007812 33.253906 106.84375 34.480469 106.800781 35.84375 C 106.757812 37.207031 105.832031 38.390625 104.515625 38.742188 Z M 92.523438 32.964844 L 92.523438 37.800781 L 100.167969 35.644531 Z M 89.863281 32.023438 Z M 89.863281 32.023438 " fill-opacity="1" fill-rule="nonzero"/></g><g clip-path="url(#849c25783a)"><path fill="#ffffff" d="M 293.097656 101.449219 C 292.664062 103.695312 291.132812 105.539062 289.007812 106.371094 C 288.800781 106.460938 288.574219 106.496094 288.367188 106.496094 C 287.671875 106.496094 287.007812 106.078125 286.730469 105.382812 C 286.382812 104.476562 286.816406 103.449219 287.722656 103.101562 C 288.730469 102.703125 289.445312 101.867188 289.652344 100.789062 C 289.863281 99.710938 289.53125 98.667969 288.730469 97.917969 L 267.578125 77.863281 L 218.246094 95.953125 C 217.34375 96.285156 216.316406 95.8125 215.984375 94.910156 C 215.65625 93.988281 216.125 92.980469 217.03125 92.648438 L 266.257812 74.609375 L 266.257812 40.828125 C 266.257812 39.855469 267.039062 39.074219 268.015625 39.074219 C 268.988281 39.074219 269.769531 39.855469 269.769531 40.828125 L 269.769531 75.078125 L 291.132812 95.363281 C 292.800781 96.925781 293.53125 99.207031 293.097656 101.449219 Z M 229.207031 65.40625 L 256.726562 55.703125 C 257.367188 55.476562 257.699219 54.78125 257.472656 54.136719 C 257.246094 53.492188 256.550781 53.164062 255.90625 53.386719 L 228.390625 63.09375 C 227.746094 63.320312 227.414062 64.015625 227.640625 64.660156 C 227.816406 65.164062 228.300781 65.476562 228.804688 65.476562 C 228.929688 65.476562 229.066406 65.460938 229.207031 65.40625 Z M 229.1875 71.21875 L 239.46875 67.722656 C 240.113281 67.496094 240.460938 66.800781 240.234375 66.15625 C 240.007812 65.511719 239.3125 65.164062 238.667969 65.390625 L 228.390625 68.886719 C 227.746094 69.113281 227.398438 69.808594 227.625 70.453125 C 227.796875 70.957031 228.285156 71.289062 228.789062 71.289062 C 228.929688 71.269531 229.066406 71.253906 229.1875 71.21875 Z M 229.1875 77.011719 L 239.46875 73.515625 C 240.113281 73.289062 240.460938 72.59375 240.234375 71.949219 C 240.007812 71.304688 239.3125 70.957031 238.667969 71.183594 L 228.390625 74.679688 C 227.746094 74.90625 227.398438 75.601562 227.625 76.246094 C 227.796875 76.75 228.285156 77.078125 228.789062 77.078125 C 228.929688 77.078125 229.066406 77.046875 229.1875 77.011719 Z M 229.1875 77.011719 " fill-opacity="1" fill-rule="nonzero"/></g><g clip-path="url(#6503fd6320)"><path fill="#ffffff" d="M 247.574219 113.46875 C 245.785156 113.46875 244.027344 112.738281 242.722656 111.363281 L 229.207031 97.085938 C 228.929688 96.789062 228.804688 96.351562 228.894531 95.953125 C 228.996094 95.554688 229.277344 95.222656 229.675781 95.082031 L 265.910156 81.8125 C 266.34375 81.65625 266.832031 81.742188 267.179688 82.074219 L 281.425781 95.449219 C 282.261719 96.230469 282.644531 97.378906 282.417969 98.511719 C 282.207031 99.640625 281.425781 100.5625 280.363281 100.996094 L 250.027344 113 C 249.246094 113.3125 248.410156 113.46875 247.574219 113.46875 Z M 232.285156 96.753906 L 244.515625 109.679688 C 245.714844 110.949219 247.523438 111.347656 249.140625 110.703125 L 279.460938 98.703125 C 279.859375 98.546875 279.964844 98.195312 280 98.039062 C 280.035156 97.882812 280.050781 97.535156 279.738281 97.242188 L 266.046875 84.386719 Z M 245.226562 45.527344 L 263.421875 38.863281 C 264.082031 38.621094 264.777344 38.722656 265.351562 39.105469 C 265.925781 39.507812 266.257812 40.132812 266.257812 40.828125 C 266.257812 41.804688 267.039062 42.585938 268.015625 42.585938 C 268.988281 42.585938 269.769531 41.804688 269.769531 40.828125 C 269.769531 38.984375 268.867188 37.261719 267.371094 36.21875 C 265.855469 35.160156 263.925781 34.914062 262.222656 35.542969 L 244.007812 42.222656 C 243.085938 42.550781 242.636719 43.558594 242.964844 44.480469 C 243.226562 45.195312 243.90625 45.628906 244.617188 45.628906 C 244.828125 45.628906 245.019531 45.59375 245.226562 45.527344 Z M 217.933594 90.300781 L 217.933594 59.597656 C 217.933594 57.179688 219.464844 54.988281 221.726562 54.171875 L 237.730469 48.308594 C 238.652344 47.980469 239.105469 46.96875 238.773438 46.046875 C 238.441406 45.125 237.433594 44.671875 236.511719 45.003906 L 220.527344 50.867188 C 216.875 52.207031 214.421875 55.71875 214.421875 59.597656 L 214.421875 90.300781 C 214.421875 91.273438 215.203125 92.058594 216.175781 92.058594 C 217.152344 92.058594 217.933594 91.257812 217.933594 90.300781 Z M 217.933594 90.300781 " fill-opacity="1" fill-rule="nonzero"/></g><path fill="#ffffff" d="M 223.03125 85.152344 C 222.789062 85.152344 222.527344 85.082031 222.316406 84.925781 C 221.988281 84.699219 221.796875 84.316406 221.796875 83.917969 L 221.796875 58.539062 C 221.796875 58.015625 222.125 57.546875 222.613281 57.371094 L 261.664062 43.421875 C 262.046875 43.28125 262.464844 43.351562 262.777344 43.578125 C 263.109375 43.804688 263.300781 44.1875 263.300781 44.585938 L 263.300781 69.964844 C 263.300781 70.488281 262.96875 70.957031 262.484375 71.132812 L 223.449219 85.082031 C 223.308594 85.132812 223.171875 85.152344 223.03125 85.152344 Z M 224.265625 59.40625 L 224.265625 82.175781 L 260.847656 69.113281 L 260.847656 46.34375 Z M 224.265625 59.40625 " fill-opacity="1" fill-rule="nonzero"/><g clip-path="url(#0b0a4458da)"><path fill="#ffffff" d="M 246.929688 122.183594 C 244.21875 122.183594 241.554688 121.125 239.574219 119.140625 L 216.386719 95.535156 C 215.707031 94.839844 215.707031 93.726562 216.402344 93.046875 C 217.097656 92.371094 218.210938 92.371094 218.890625 93.066406 L 242.0625 116.652344 C 243.992188 118.582031 246.898438 119.191406 249.453125 118.183594 L 283.148438 104.894531 C 284.050781 104.546875 285.078125 104.980469 285.425781 105.886719 C 285.773438 106.789062 285.339844 107.816406 284.433594 108.164062 L 250.742188 121.453125 C 249.507812 121.941406 248.21875 122.183594 246.929688 122.183594 Z M 246.929688 122.183594 " fill-opacity="1" fill-rule="nonzero"/></g><path fill="#ffffff" d="M 272.03125 93.777344 L 268.257812 95.117188 L 265.195312 92.144531 L 267.683594 91.273438 C 268.328125 91.046875 268.65625 90.351562 268.429688 89.707031 C 268.207031 89.066406 267.507812 88.734375 266.867188 88.960938 L 263.230469 90.246094 L 261.28125 88.351562 C 260.796875 87.882812 260.011719 87.882812 259.542969 88.371094 C 259.074219 88.855469 259.074219 89.640625 259.558594 90.109375 L 260.636719 91.152344 L 255.296875 93.011719 L 253.523438 91.308594 C 253.039062 90.839844 252.253906 90.839844 251.785156 91.328125 C 251.316406 91.8125 251.316406 92.597656 251.800781 93.066406 L 252.6875 93.917969 L 246.984375 95.9375 L 245.402344 94.40625 C 244.914062 93.9375 244.132812 93.9375 243.660156 94.421875 C 243.191406 94.910156 243.191406 95.691406 243.679688 96.160156 L 244.375 96.839844 L 239.382812 98.597656 C 238.738281 98.824219 238.40625 99.519531 238.632812 100.164062 C 238.808594 100.667969 239.296875 100.980469 239.800781 100.980469 C 239.9375 100.980469 240.078125 100.964844 240.21875 100.910156 L 246.375 98.738281 L 249.4375 101.710938 L 244.582031 103.414062 C 243.941406 103.640625 243.609375 104.335938 243.835938 104.980469 C 244.007812 105.484375 244.496094 105.796875 245 105.796875 C 245.140625 105.796875 245.277344 105.78125 245.417969 105.730469 L 251.417969 103.605469 L 253.941406 106.058594 C 254.183594 106.285156 254.5 106.40625 254.792969 106.40625 C 255.105469 106.40625 255.4375 106.285156 255.679688 106.023438 C 256.152344 105.539062 256.152344 104.753906 255.664062 104.285156 L 254.011719 102.683594 L 259.714844 100.667969 L 262.066406 102.929688 C 262.308594 103.15625 262.621094 103.277344 262.917969 103.277344 C 263.230469 103.277344 263.5625 103.15625 263.804688 102.894531 C 264.273438 102.40625 264.273438 101.625 263.785156 101.15625 L 262.324219 99.746094 L 267.648438 97.867188 L 269.804688 99.953125 C 270.050781 100.179688 270.363281 100.300781 270.65625 100.300781 C 270.972656 100.300781 271.300781 100.179688 271.546875 99.917969 C 272.015625 99.433594 272.015625 98.648438 271.527344 98.179688 L 270.257812 96.945312 L 272.882812 96.023438 C 273.527344 95.796875 273.859375 95.101562 273.632812 94.457031 C 273.390625 93.902344 272.675781 93.554688 272.03125 93.777344 Z M 252.0625 100.839844 L 249 97.867188 L 254.707031 95.847656 L 257.769531 98.824219 Z M 260.34375 97.902344 L 257.28125 94.925781 L 262.605469 93.046875 L 265.664062 96.023438 Z M 276.902344 59.492188 L 275.164062 65.632812 C 274.9375 66.398438 274.242188 66.921875 273.476562 66.921875 C 273.320312 66.921875 273.164062 66.902344 272.988281 66.851562 C 272.050781 66.589844 271.511719 65.617188 271.789062 64.675781 L 273.527344 58.539062 C 273.789062 57.597656 274.761719 57.058594 275.703125 57.335938 C 276.625 57.597656 277.179688 58.570312 276.902344 59.492188 Z M 277.894531 70.417969 C 277.269531 70.417969 276.675781 70.085938 276.363281 69.511719 C 275.894531 68.660156 276.191406 67.601562 277.042969 67.128906 L 283.058594 63.773438 C 283.914062 63.304688 284.972656 63.597656 285.445312 64.453125 C 285.914062 65.304688 285.617188 66.363281 284.765625 66.835938 L 278.746094 70.191406 C 278.46875 70.347656 278.171875 70.417969 277.894531 70.417969 Z M 287.355469 76.785156 C 287.128906 77.550781 286.433594 78.070312 285.667969 78.070312 C 285.511719 78.070312 285.355469 78.054688 285.183594 78 L 278.035156 75.964844 C 277.09375 75.707031 276.554688 74.730469 276.832031 73.792969 C 277.09375 72.851562 278.066406 72.3125 279.007812 72.59375 L 286.15625 74.628906 C 287.097656 74.871094 287.636719 75.84375 287.355469 76.785156 Z M 287.355469 76.785156 " fill-opacity="1" fill-rule="nonzero"/><g clip-path="url(#cdceeea53a)"><path fill="#ffffff" d="M 385.453125 84.527344 C 374.375 84.527344 365.445312 91.515625 361.5625 103.210938 C 361.296875 104.007812 361.433594 104.855469 361.929688 105.53125 C 362.421875 106.210938 363.1875 106.597656 364.03125 106.597656 L 406.871094 106.597656 C 407.714844 106.597656 408.480469 106.210938 408.972656 105.53125 C 409.46875 104.855469 409.605469 104.007812 409.339844 103.210938 C 405.457031 91.515625 396.53125 84.527344 385.453125 84.527344 Z M 406.871094 111.738281 L 364.03125 111.738281 C 361.503906 111.738281 359.203125 110.578125 357.722656 108.546875 C 356.238281 106.519531 355.839844 103.988281 356.632812 101.609375 C 361.246094 87.695312 372.019531 79.386719 385.453125 79.386719 C 398.882812 79.386719 409.65625 87.695312 414.273438 101.609375 C 415.0625 103.988281 414.664062 106.519531 413.179688 108.546875 C 411.699219 110.578125 409.398438 111.738281 406.871094 111.738281 Z M 385.453125 52.601562 C 379.613281 52.601562 374.859375 57.304688 374.859375 63.09375 C 374.859375 68.882812 381.269531 73.582031 385.453125 73.582031 C 389.632812 73.582031 396.042969 68.882812 396.042969 63.09375 C 396.042969 57.304688 391.289062 52.601562 385.453125 52.601562 Z M 385.453125 78.722656 C 378.347656 78.722656 369.667969 71.507812 369.667969 63.09375 C 369.667969 54.472656 376.75 47.457031 385.453125 47.457031 C 394.152344 47.457031 401.234375 54.472656 401.234375 63.09375 C 401.234375 71.507812 392.554688 78.722656 385.453125 78.722656 " fill-opacity="1" fill-rule="nonzero"/></g><g clip-path="url(#dcee6beed0)"><path fill="#ffffff" d="M 160.210938 77.25 C 160.210938 77.546875 160.152344 77.835938 160.03125 78.109375 C 159.914062 78.386719 159.742188 78.628906 159.519531 78.839844 C 159.296875 79.050781 159.042969 79.214844 158.753906 79.328125 C 158.460938 79.441406 158.160156 79.5 157.847656 79.5 C 157.53125 79.5 157.230469 79.441406 156.941406 79.328125 C 156.652344 79.214844 156.394531 79.050781 156.171875 78.839844 C 155.953125 78.628906 155.78125 78.386719 155.660156 78.109375 C 155.539062 77.835938 155.480469 77.546875 155.480469 77.25 C 155.480469 76.953125 155.539062 76.664062 155.660156 76.390625 C 155.78125 76.113281 155.953125 75.871094 156.171875 75.660156 C 156.394531 75.449219 156.652344 75.285156 156.941406 75.171875 C 157.230469 75.058594 157.53125 75 157.847656 75 C 158.160156 75 158.460938 75.058594 158.753906 75.171875 C 159.042969 75.285156 159.296875 75.449219 159.519531 75.660156 C 159.742188 75.871094 159.914062 76.113281 160.03125 76.390625 C 160.152344 76.664062 160.210938 76.953125 160.210938 77.25 Z M 160.210938 77.25 " fill-opacity="1" fill-rule="nonzero"/></g><g clip-path="url(#4ad5197f1e)"><path fill="#ffffff" d="M 169.675781 77.25 C 169.675781 77.546875 169.617188 77.835938 169.496094 78.109375 C 169.375 78.386719 169.207031 78.628906 168.984375 78.839844 C 168.761719 79.050781 168.507812 79.214844 168.214844 79.328125 C 167.925781 79.441406 167.625 79.5 167.3125 79.5 C 166.996094 79.5 166.695312 79.441406 166.40625 79.328125 C 166.117188 79.214844 165.859375 79.050781 165.636719 78.839844 C 165.414062 78.628906 165.246094 78.386719 165.125 78.109375 C 165.003906 77.835938 164.945312 77.546875 164.945312 77.25 C 164.945312 76.953125 165.003906 76.664062 165.125 76.390625 C 165.246094 76.113281 165.414062 75.871094 165.636719 75.660156 C 165.859375 75.449219 166.117188 75.285156 166.40625 75.171875 C 166.695312 75.058594 166.996094 75 167.3125 75 C 167.625 75 167.925781 75.058594 168.214844 75.171875 C 168.507812 75.285156 168.761719 75.449219 168.984375 75.660156 C 169.207031 75.871094 169.375 76.113281 169.496094 76.390625 C 169.617188 76.664062 169.675781 76.953125 169.675781 77.25 Z M 169.675781 77.25 " fill-opacity="1" fill-rule="nonzero"/></g><g clip-path="url(#85dd510aa1)"><path fill="#ffffff" d="M 179.140625 77.25 C 179.140625 77.546875 179.082031 77.835938 178.960938 78.109375 C 178.839844 78.386719 178.671875 78.628906 178.449219 78.839844 C 178.226562 79.050781 177.96875 79.214844 177.679688 79.328125 C 177.390625 79.441406 177.089844 79.5 176.773438 79.5 C 176.460938 79.5 176.160156 79.441406 175.871094 79.328125 C 175.578125 79.214844 175.324219 79.050781 175.101562 78.839844 C 174.878906 78.628906 174.710938 78.386719 174.589844 78.109375 C 174.46875 77.835938 174.410156 77.546875 174.410156 77.25 C 174.410156 76.953125 174.46875 76.664062 174.589844 76.390625 C 174.710938 76.113281 174.878906 75.871094 175.101562 75.660156 C 175.324219 75.449219 175.578125 75.285156 175.871094 75.171875 C 176.160156 75.058594 176.460938 75 176.773438 75 C 177.089844 75 177.390625 75.058594 177.679688 75.171875 C 177.96875 75.285156 178.226562 75.449219 178.449219 75.660156 C 178.671875 75.871094 178.839844 76.113281 178.960938 76.390625 C 179.082031 76.664062 179.140625 76.953125 179.140625 77.25 Z M 179.140625 77.25 " fill-opacity="1" fill-rule="nonzero"/></g><g clip-path="url(#674c697f76)"><path fill="#ffffff" d="M 188.605469 77.25 C 188.605469 77.546875 188.546875 77.835938 188.425781 78.109375 C 188.304688 78.386719 188.132812 78.628906 187.914062 78.839844 C 187.691406 79.050781 187.433594 79.214844 187.144531 79.328125 C 186.855469 79.441406 186.554688 79.5 186.238281 79.5 C 185.925781 79.5 185.625 79.441406 185.332031 79.328125 C 185.042969 79.214844 184.789062 79.050781 184.566406 78.839844 C 184.34375 78.628906 184.171875 78.386719 184.054688 78.109375 C 183.933594 77.835938 183.875 77.546875 183.875 77.25 C 183.875 76.953125 183.933594 76.664062 184.054688 76.390625 C 184.171875 76.113281 184.34375 75.871094 184.566406 75.660156 C 184.789062 75.449219 185.042969 75.285156 185.332031 75.171875 C 185.625 75.058594 185.925781 75 186.238281 75 C 186.554688 75 186.855469 75.058594 187.144531 75.171875 C 187.433594 75.285156 187.691406 75.449219 187.914062 75.660156 C 188.132812 75.871094 188.304688 76.113281 188.425781 76.390625 C 188.546875 76.664062 188.605469 76.953125 188.605469 77.25 Z M 188.605469 77.25 " fill-opacity="1" fill-rule="nonzero"/></g><g clip-path="url(#be0780ae59)"><path fill="#ffffff" d="M 198.070312 77.25 C 198.070312 77.546875 198.007812 77.835938 197.890625 78.109375 C 197.769531 78.386719 197.597656 78.628906 197.375 78.839844 C 197.15625 79.050781 196.898438 79.214844 196.609375 79.328125 C 196.320312 79.441406 196.015625 79.5 195.703125 79.5 C 195.390625 79.5 195.085938 79.441406 194.796875 79.328125 C 194.507812 79.214844 194.253906 79.050781 194.03125 78.839844 C 193.808594 78.628906 193.636719 78.386719 193.515625 78.109375 C 193.398438 77.835938 193.335938 77.546875 193.335938 77.25 C 193.335938 76.953125 193.398438 76.664062 193.515625 76.390625 C 193.636719 76.113281 193.808594 75.871094 194.03125 75.660156 C 194.253906 75.449219 194.507812 75.285156 194.796875 75.171875 C 195.085938 75.058594 195.390625 75 195.703125 75 C 196.015625 75 196.320312 75.058594 196.609375 75.171875 C 196.898438 75.285156 197.15625 75.449219 197.375 75.660156 C 197.597656 75.871094 197.769531 76.113281 197.890625 76.390625 C 198.007812 76.664062 198.070312 76.953125 198.070312 77.25 Z M 198.070312 77.25 " fill-opacity="1" fill-rule="nonzero"/></g><g clip-path="url(#87a6ad4eae)"><path fill="#ffffff" d="M 308.136719 79.621094 C 308.136719 79.917969 308.078125 80.207031 307.957031 80.480469 C 307.835938 80.757812 307.667969 81 307.445312 81.210938 C 307.222656 81.421875 306.96875 81.585938 306.675781 81.699219 C 306.386719 81.8125 306.085938 81.871094 305.773438 81.871094 C 305.457031 81.871094 305.15625 81.8125 304.867188 81.699219 C 304.578125 81.585938 304.320312 81.421875 304.097656 81.210938 C 303.875 81 303.707031 80.757812 303.585938 80.480469 C 303.464844 80.207031 303.40625 79.917969 303.40625 79.621094 C 303.40625 79.320312 303.464844 79.035156 303.585938 78.757812 C 303.707031 78.484375 303.875 78.238281 304.097656 78.027344 C 304.320312 77.816406 304.578125 77.65625 304.867188 77.542969 C 305.15625 77.425781 305.457031 77.371094 305.773438 77.371094 C 306.085938 77.371094 306.386719 77.425781 306.675781 77.542969 C 306.96875 77.65625 307.222656 77.816406 307.445312 78.027344 C 307.667969 78.238281 307.835938 78.484375 307.957031 78.757812 C 308.078125 79.035156 308.136719 79.320312 308.136719 79.621094 Z M 308.136719 79.621094 " fill-opacity="1" fill-rule="nonzero"/></g><g clip-path="url(#6b3679c2cc)"><path fill="#ffffff" d="M 317.601562 79.621094 C 317.601562 79.917969 317.542969 80.207031 317.421875 80.480469 C 317.300781 80.757812 317.132812 81 316.910156 81.210938 C 316.6875 81.421875 316.429688 81.585938 316.140625 81.699219 C 315.851562 81.8125 315.550781 81.871094 315.234375 81.871094 C 314.921875 81.871094 314.621094 81.8125 314.332031 81.699219 C 314.039062 81.585938 313.785156 81.421875 313.5625 81.210938 C 313.339844 81 313.171875 80.757812 313.050781 80.480469 C 312.929688 80.207031 312.871094 79.917969 312.871094 79.621094 C 312.871094 79.320312 312.929688 79.035156 313.050781 78.757812 C 313.171875 78.484375 313.339844 78.238281 313.5625 78.027344 C 313.785156 77.816406 314.039062 77.65625 314.332031 77.542969 C 314.621094 77.425781 314.921875 77.371094 315.234375 77.371094 C 315.550781 77.371094 315.851562 77.425781 316.140625 77.542969 C 316.429688 77.65625 316.6875 77.816406 316.910156 78.027344 C 317.132812 78.238281 317.300781 78.484375 317.421875 78.757812 C 317.542969 79.035156 317.601562 79.320312 317.601562 79.621094 Z M 317.601562 79.621094 " fill-opacity="1" fill-rule="nonzero"/></g><g clip-path="url(#37199677f4)"><path fill="#ffffff" d="M 327.066406 79.621094 C 327.066406 79.917969 327.007812 80.207031 326.886719 80.480469 C 326.765625 80.757812 326.59375 81 326.375 81.210938 C 326.152344 81.421875 325.894531 81.585938 325.605469 81.699219 C 325.316406 81.8125 325.015625 81.871094 324.699219 81.871094 C 324.386719 81.871094 324.085938 81.8125 323.792969 81.699219 C 323.503906 81.585938 323.25 81.421875 323.027344 81.210938 C 322.804688 81 322.632812 80.757812 322.515625 80.480469 C 322.394531 80.207031 322.335938 79.917969 322.335938 79.621094 C 322.335938 79.320312 322.394531 79.035156 322.515625 78.757812 C 322.632812 78.484375 322.804688 78.238281 323.027344 78.027344 C 323.25 77.816406 323.503906 77.65625 323.792969 77.542969 C 324.085938 77.425781 324.386719 77.371094 324.699219 77.371094 C 325.015625 77.371094 325.316406 77.425781 325.605469 77.542969 C 325.894531 77.65625 326.152344 77.816406 326.375 78.027344 C 326.59375 78.238281 326.765625 78.484375 326.886719 78.757812 C 327.007812 79.035156 327.066406 79.320312 327.066406 79.621094 Z M 327.066406 79.621094 " fill-opacity="1" fill-rule="nonzero"/></g><g clip-path="url(#413ce61364)"><path fill="#ffffff" d="M 336.53125 79.621094 C 336.53125 79.917969 336.46875 80.207031 336.351562 80.480469 C 336.230469 80.757812 336.058594 81 335.835938 81.210938 C 335.617188 81.421875 335.359375 81.585938 335.070312 81.699219 C 334.78125 81.8125 334.476562 81.871094 334.164062 81.871094 C 333.851562 81.871094 333.546875 81.8125 333.257812 81.699219 C 332.96875 81.585938 332.714844 81.421875 332.492188 81.210938 C 332.269531 81 332.097656 80.757812 331.976562 80.480469 C 331.859375 80.207031 331.796875 79.917969 331.796875 79.621094 C 331.796875 79.320312 331.859375 79.035156 331.976562 78.757812 C 332.097656 78.484375 332.269531 78.238281 332.492188 78.027344 C 332.714844 77.816406 332.96875 77.65625 333.257812 77.542969 C 333.546875 77.425781 333.851562 77.371094 334.164062 77.371094 C 334.476562 77.371094 334.78125 77.425781 335.070312 77.542969 C 335.359375 77.65625 335.617188 77.816406 335.835938 78.027344 C 336.058594 78.238281 336.230469 78.484375 336.351562 78.757812 C 336.46875 79.035156 336.53125 79.320312 336.53125 79.621094 Z M 336.53125 79.621094 " fill-opacity="1" fill-rule="nonzero"/></g><g clip-path="url(#5a5e04e564)"><path fill="#ffffff" d="M 345.996094 79.621094 C 345.996094 79.917969 345.933594 80.207031 345.816406 80.480469 C 345.695312 80.757812 345.523438 81 345.300781 81.210938 C 345.078125 81.421875 344.824219 81.585938 344.535156 81.699219 C 344.242188 81.8125 343.941406 81.871094 343.628906 81.871094 C 343.316406 81.871094 343.011719 81.8125 342.722656 81.699219 C 342.433594 81.585938 342.175781 81.421875 341.957031 81.210938 C 341.734375 81 341.5625 80.757812 341.441406 80.480469 C 341.324219 80.207031 341.261719 79.917969 341.261719 79.621094 C 341.261719 79.320312 341.324219 79.035156 341.441406 78.757812 C 341.5625 78.484375 341.734375 78.238281 341.957031 78.027344 C 342.175781 77.816406 342.433594 77.65625 342.722656 77.542969 C 343.011719 77.425781 343.316406 77.371094 343.628906 77.371094 C 343.941406 77.371094 344.242188 77.425781 344.535156 77.542969 C 344.824219 77.65625 345.078125 77.816406 345.300781 78.027344 C 345.523438 78.238281 345.695312 78.484375 345.816406 78.757812 C 345.933594 79.035156 345.996094 79.320312 345.996094 79.621094 Z M 345.996094 79.621094 " fill-opacity="1" fill-rule="nonzero"/></g></svg>