<?xml version="1.0" encoding="utf-8"?>
<svg version="1.1" xmlns:xlink="http://www.w3.org/1999/xlink" width="47px" height="31px" xmlns="http://www.w3.org/2000/svg">
  <g transform="matrix(1 0 0 1 -245 -341 )">
    <path d="M 22.520833333333332 17.942057291666668  L 10.811631944444445 14.2890625  L 10.444444444444445 20.666666666666668  C 10.390046296296294 21.595052083333332  10.947627314814813 22.45616319444444  12.1171875 23.25  C 13.286747685185182 24.043836805555554  14.884693287037033 24.6728515625  16.911024305555557 25.137044270833336  C 18.937355324074076 25.601236979166664  21.133680555555557 25.833333333333336  23.5 25.833333333333336  C 25.866319444444443 25.833333333333336  28.062644675925924 25.601236979166664  30.088975694444443 25.137044270833336  C 32.11530671296296 24.6728515625  33.71325231481481 24.043836805555554  34.8828125 23.25  C 36.05237268518518 22.45616319444444  36.6099537037037 21.595052083333332  36.55555555555556 20.666666666666668  L 36.18836805555556 14.2890625  L 24.479166666666664 17.942057291666668  C 24.17997685185185 18.036241319444446  23.853587962962962 18.083333333333332  23.5 18.083333333333332  C 23.14641203703703 18.083333333333332  22.820023148148145 18.036241319444446  22.520833333333332 17.942057291666668  Z M 0.44878472222222454 7.124348958333335  C 0.14959490740740122 7.23198784722222  0 7.440538194444443  0 7.75  C 0 8.059461805555554  0.14959490740740122 8.268012152777773  0.44878472222222454 8.375651041666666  L 23.296006944444443 15.479817708333334  C 23.350405092592588 15.493272569444443  23.418402777777775 15.5  23.5 15.5  C 23.581597222222225 15.5  23.649594907407405 15.493272569444443  23.703993055555557 15.479817708333334  L 37.00434027777778 11.322265625  C 37.58912037037037 11.779730902777773  38.07190393518518 12.52983940972222  38.45269097222222 13.572591145833334  C 38.83347800925926 14.615342881944443  39.064670138888886 15.816189236111107  39.146267361111114 17.175130208333332  C 38.28949652777778 17.659505208333332  37.861111111111114 18.392795138888886  37.861111111111114 19.375  C 37.861111111111114 20.303385416666668  38.25549768518519 21.023220486111107  39.04427083333333 21.534505208333332  L 37.861111111111114 30.2734375  C 37.83391203703704 30.461805555555554  37.88831018518518 30.629991319444446  38.02430555555556 30.777994791666664  C 38.146701388888886 30.92599826388889  38.30989583333333 31  38.513888888888886 31  L 42.43055555555556 31  C 42.634548611111114 31  42.79774305555556 30.92599826388889  42.920138888888886 30.777994791666664  C 43.05613425925926 30.629991319444446  43.110532407407405 30.461805555555554  43.08333333333333 30.2734375  L 41.900173611111114 21.534505208333332  C 42.68894675925926 21.023220486111107  43.08333333333333 20.303385416666668  43.08333333333333 19.375  C 43.08333333333333 18.392795138888886  42.64134837962963 17.64605034722222  41.75737847222222 17.134765625  C 41.60778356481481 14.349609375  40.94140625 12.129557291666666  39.75824652777778 10.474609375  L 46.55121527777778 8.375651041666666  C 46.850405092592595 8.268012152777773  47 8.059461805555554  47 7.75  C 47 7.440538194444443  46.850405092592595 7.23198784722222  46.55121527777778 7.124348958333335  L 23.703993055555557 0.02018229166666552  C 23.649594907407405 0.006727430555554026  23.581597222222225 0  23.5 0  C 23.418402777777775 0  23.350405092592588 0.006727430555554026  23.296006944444443 0.02018229166666552  L 0.44878472222222454 7.124348958333335  Z " fill-rule="nonzero" fill="#77b6ea" stroke="none" transform="matrix(1 0 0 1 245 341 )" />
  </g>
</svg>