<svg xmlns="http://www.w3.org/2000/svg" xmlns:xlink="http://www.w3.org/1999/xlink" width="1080" zoomAndPan="magnify" viewBox="0 0 810 1012.49997" height="1350" preserveAspectRatio="xMidYMid meet" version="1.0"><defs><clipPath id="2a886eee59"><path d="M 57.699219 158 L 752.605469 158 L 752.605469 784 L 57.699219 784 Z M 57.699219 158 " clip-rule="nonzero"/></clipPath></defs><g clip-path="url(#2a886eee59)"><path fill="#ffbc3e" d="M 636.523438 390.234375 C 636.523438 644.917969 752.289062 621.765625 752.289062 737.53125 C 752.289062 737.53125 752.289062 783.835938 705.984375 783.835938 L 104.003906 783.835938 C 57.699219 783.835938 57.699219 737.53125 57.699219 737.53125 C 57.699219 621.765625 173.464844 644.917969 173.464844 390.234375 C 173.464844 262.382812 277.121094 158.703125 404.996094 158.703125 C 532.867188 158.703125 636.523438 262.382812 636.523438 390.234375 Z M 636.523438 390.234375 " fill-opacity="1" fill-rule="nonzero"/></g><path fill="#ffbc3e" d="M 474.453125 158.703125 C 474.453125 159.839844 474.425781 160.976562 474.371094 162.113281 C 474.3125 163.246094 474.230469 164.382812 474.121094 165.511719 C 474.007812 166.644531 473.867188 167.773438 473.703125 168.894531 C 473.535156 170.019531 473.339844 171.140625 473.117188 172.253906 C 472.898438 173.371094 472.648438 174.480469 472.371094 175.582031 C 472.097656 176.683594 471.792969 177.78125 471.464844 178.867188 C 471.132812 179.957031 470.777344 181.035156 470.394531 182.105469 C 470.011719 183.175781 469.601562 184.234375 469.167969 185.285156 C 468.730469 186.335938 468.269531 187.375 467.785156 188.402344 C 467.300781 189.429688 466.789062 190.445312 466.253906 191.445312 C 465.714844 192.449219 465.15625 193.4375 464.570312 194.414062 C 463.988281 195.386719 463.378906 196.347656 462.746094 197.292969 C 462.117188 198.238281 461.460938 199.167969 460.785156 200.082031 C 460.109375 200.996094 459.410156 201.890625 458.6875 202.769531 C 457.964844 203.648438 457.222656 204.507812 456.460938 205.351562 C 455.695312 206.191406 454.914062 207.015625 454.109375 207.820312 C 453.304688 208.625 452.484375 209.40625 451.640625 210.171875 C 450.796875 210.933594 449.9375 211.675781 449.058594 212.398438 C 448.179688 213.117188 447.285156 213.816406 446.371094 214.496094 C 445.457031 215.171875 444.527344 215.824219 443.585938 216.457031 C 442.640625 217.089844 441.679688 217.695312 440.703125 218.28125 C 439.730469 218.867188 438.738281 219.425781 437.738281 219.960938 C 436.734375 220.496094 435.71875 221.007812 434.691406 221.496094 C 433.664062 221.980469 432.625 222.441406 431.574219 222.875 C 430.523438 223.3125 429.464844 223.71875 428.394531 224.101562 C 427.324219 224.484375 426.246094 224.84375 425.15625 225.171875 C 424.070312 225.503906 422.972656 225.804688 421.871094 226.082031 C 420.769531 226.359375 419.660156 226.605469 418.546875 226.828125 C 417.429688 227.050781 416.3125 227.246094 415.1875 227.410156 C 414.0625 227.578125 412.933594 227.71875 411.804688 227.828125 C 410.671875 227.941406 409.539062 228.023438 408.402344 228.078125 C 407.265625 228.136719 406.132812 228.164062 404.996094 228.164062 C 403.859375 228.164062 402.722656 228.136719 401.585938 228.078125 C 400.453125 228.023438 399.316406 227.941406 398.1875 227.828125 C 397.054688 227.71875 395.925781 227.578125 394.804688 227.410156 C 393.679688 227.246094 392.558594 227.050781 391.445312 226.828125 C 390.328125 226.605469 389.21875 226.359375 388.117188 226.082031 C 387.015625 225.804688 385.917969 225.503906 384.832031 225.171875 C 383.742188 224.84375 382.664062 224.484375 381.59375 224.101562 C 380.523438 223.71875 379.464844 223.3125 378.414062 222.875 C 377.363281 222.441406 376.324219 221.980469 375.296875 221.496094 C 374.269531 221.007812 373.253906 220.496094 372.253906 219.960938 C 371.25 219.425781 370.261719 218.867188 369.285156 218.28125 C 368.3125 217.695312 367.351562 217.089844 366.40625 216.457031 C 365.460938 215.824219 364.53125 215.171875 363.617188 214.496094 C 362.703125 213.816406 361.808594 213.117188 360.929688 212.398438 C 360.050781 211.675781 359.191406 210.933594 358.347656 210.171875 C 357.507812 209.40625 356.683594 208.625 355.878906 207.820312 C 355.074219 207.015625 354.292969 206.191406 353.527344 205.351562 C 352.765625 204.507812 352.023438 203.648438 351.300781 202.769531 C 350.582031 201.890625 349.882812 200.996094 349.203125 200.082031 C 348.527344 199.167969 347.875 198.238281 347.242188 197.292969 C 346.609375 196.347656 346.003906 195.386719 345.417969 194.414062 C 344.832031 193.4375 344.273438 192.449219 343.738281 191.445312 C 343.203125 190.445312 342.691406 189.429688 342.203125 188.402344 C 341.71875 187.375 341.257812 186.335938 340.824219 185.285156 C 340.386719 184.234375 339.980469 183.175781 339.597656 182.105469 C 339.214844 181.035156 338.855469 179.957031 338.527344 178.867188 C 338.195312 177.78125 337.894531 176.683594 337.617188 175.582031 C 337.339844 174.480469 337.09375 173.371094 336.871094 172.253906 C 336.648438 171.140625 336.453125 170.019531 336.289062 168.894531 C 336.121094 167.773438 335.980469 166.644531 335.871094 165.511719 C 335.757812 164.382812 335.675781 163.246094 335.621094 162.113281 C 335.5625 160.976562 335.535156 159.839844 335.535156 158.703125 C 335.535156 157.566406 335.5625 156.429688 335.621094 155.296875 C 335.675781 154.160156 335.757812 153.027344 335.871094 151.894531 C 335.980469 150.765625 336.121094 149.636719 336.289062 148.511719 C 336.453125 147.386719 336.648438 146.269531 336.871094 145.152344 C 337.09375 144.039062 337.339844 142.929688 337.617188 141.828125 C 337.894531 140.722656 338.195312 139.628906 338.527344 138.542969 C 338.855469 137.453125 339.214844 136.375 339.597656 135.304688 C 339.980469 134.234375 340.386719 133.171875 340.824219 132.125 C 341.257812 131.074219 341.71875 130.035156 342.203125 129.007812 C 342.691406 127.980469 343.203125 126.964844 343.738281 125.960938 C 344.273438 124.960938 344.832031 123.96875 345.417969 122.996094 C 346.003906 122.019531 346.609375 121.058594 347.242188 120.113281 C 347.875 119.167969 348.527344 118.242188 349.203125 117.328125 C 349.882812 116.414062 350.582031 115.519531 351.300781 114.640625 C 352.023438 113.761719 352.765625 112.902344 353.527344 112.058594 C 354.292969 111.214844 355.074219 110.394531 355.878906 109.589844 C 356.683594 108.785156 357.507812 108.003906 358.347656 107.238281 C 359.191406 106.476562 360.050781 105.734375 360.929688 105.011719 C 361.808594 104.289062 362.703125 103.589844 363.617188 102.914062 C 364.53125 102.238281 365.460938 101.582031 366.40625 100.953125 C 367.351562 100.320312 368.3125 99.710938 369.285156 99.128906 C 370.261719 98.542969 371.25 97.984375 372.253906 97.445312 C 373.253906 96.910156 374.269531 96.398438 375.296875 95.914062 C 376.324219 95.429688 377.363281 94.96875 378.414062 94.53125 C 379.464844 94.097656 380.523438 93.6875 381.59375 93.304688 C 382.664062 92.921875 383.742188 92.566406 384.832031 92.234375 C 385.917969 91.90625 387.015625 91.601562 388.117188 91.328125 C 389.21875 91.050781 390.328125 90.800781 391.445312 90.578125 C 392.558594 90.359375 393.679688 90.164062 394.804688 89.996094 C 395.925781 89.832031 397.054688 89.691406 398.1875 89.578125 C 399.316406 89.46875 400.453125 89.386719 401.585938 89.328125 C 402.722656 89.273438 403.859375 89.246094 404.996094 89.246094 C 406.132812 89.246094 407.265625 89.273438 408.402344 89.328125 C 409.539062 89.386719 410.671875 89.46875 411.804688 89.578125 C 412.933594 89.691406 414.0625 89.832031 415.1875 89.996094 C 416.3125 90.164062 417.429688 90.359375 418.546875 90.578125 C 419.660156 90.800781 420.769531 91.050781 421.871094 91.328125 C 422.972656 91.601562 424.070312 91.90625 425.15625 92.234375 C 426.246094 92.566406 427.324219 92.921875 428.394531 93.304688 C 429.464844 93.6875 430.523438 94.097656 431.574219 94.53125 C 432.625 94.96875 433.664062 95.429688 434.691406 95.914062 C 435.71875 96.398438 436.734375 96.910156 437.738281 97.445312 C 438.738281 97.984375 439.730469 98.542969 440.703125 99.128906 C 441.679688 99.710938 442.640625 100.320312 443.585938 100.953125 C 444.527344 101.582031 445.457031 102.238281 446.371094 102.914062 C 447.285156 103.589844 448.179688 104.289062 449.058594 105.011719 C 449.9375 105.734375 450.796875 106.476562 451.640625 107.238281 C 452.484375 108.003906 453.304688 108.785156 454.109375 109.589844 C 454.914062 110.394531 455.695312 111.214844 456.460938 112.058594 C 457.222656 112.902344 457.964844 113.761719 458.6875 114.640625 C 459.410156 115.519531 460.109375 116.414062 460.785156 117.328125 C 461.460938 118.242188 462.117188 119.167969 462.746094 120.113281 C 463.378906 121.058594 463.988281 122.019531 464.570312 122.996094 C 465.15625 123.96875 465.714844 124.960938 466.253906 125.960938 C 466.789062 126.964844 467.300781 127.980469 467.785156 129.007812 C 468.269531 130.035156 468.730469 131.074219 469.167969 132.125 C 469.601562 133.171875 470.011719 134.234375 470.394531 135.304688 C 470.777344 136.375 471.132812 137.453125 471.464844 138.542969 C 471.792969 139.628906 472.097656 140.722656 472.371094 141.828125 C 472.648438 142.929688 472.898438 144.039062 473.117188 145.152344 C 473.339844 146.269531 473.535156 147.386719 473.703125 148.511719 C 473.867188 149.636719 474.007812 150.765625 474.121094 151.894531 C 474.230469 153.027344 474.3125 154.160156 474.371094 155.296875 C 474.425781 156.429688 474.453125 157.566406 474.453125 158.703125 Z M 474.453125 158.703125 " fill-opacity="1" fill-rule="nonzero"/><path fill="#ffbc3e" d="M 404.996094 922.753906 C 456.140625 922.753906 497.605469 881.285156 497.605469 830.140625 L 312.382812 830.140625 C 312.382812 881.285156 353.851562 922.753906 404.996094 922.753906 Z M 404.996094 922.753906 " fill-opacity="1" fill-rule="nonzero"/></svg>