<svg xmlns="http://www.w3.org/2000/svg" xmlns:xlink="http://www.w3.org/1999/xlink" width="100" zoomAndPan="magnify" viewBox="0 0 75 74.999997" height="100" preserveAspectRatio="xMidYMid meet" version="1.0"><defs><clipPath id="f16904bca8"><path d="M 7.5 14.699219 L 67.5 14.699219 L 67.5 60.449219 L 7.5 60.449219 Z M 7.5 14.699219 " clip-rule="nonzero"/></clipPath></defs><g clip-path="url(#f16904bca8)"><path fill="#141c44" d="M 39.585938 37.25 C 38.398438 38.304688 36.605469 38.304688 35.417969 37.25 L 15.015625 19.160156 L 59.984375 19.160156 Z M 47.542969 38.941406 L 44.503906 42.179688 L 59.074219 55.847656 L 15.761719 55.847656 L 29.589844 42.125 L 26.464844 38.972656 L 11.945312 53.378906 L 11.945312 22.371094 L 32.46875 40.574219 C 33.855469 41.804688 35.644531 42.480469 37.5 42.480469 C 39.359375 42.480469 41.144531 41.804688 42.53125 40.574219 L 63.058594 22.371094 L 63.058594 53.496094 Z M 60.867188 14.71875 L 14.132812 14.71875 C 10.476562 14.71875 7.503906 17.695312 7.503906 21.351562 L 7.503906 53.65625 C 7.503906 57.3125 10.476562 60.289062 14.132812 60.289062 L 60.867188 60.289062 C 64.527344 60.289062 67.5 57.3125 67.5 53.65625 L 67.5 21.351562 C 67.5 17.695312 64.527344 14.71875 60.867188 14.71875 " fill-opacity="1" fill-rule="nonzero"/></g></svg>