<svg xmlns="http://www.w3.org/2000/svg" xmlns:xlink="http://www.w3.org/1999/xlink" width="100" zoomAndPan="magnify" viewBox="0 0 75 74.999997" height="100" preserveAspectRatio="xMidYMid meet" version="1.0"><defs><clipPath id="49095810f8"><path d="M 7.5 7.5 L 67.5 7.5 L 67.5 67.5 L 7.5 67.5 Z M 7.5 7.5 " clip-rule="nonzero"/></clipPath></defs><g clip-path="url(#49095810f8)"><path fill="#141c44" d="M 67.71875 37.613281 C 67.71875 20.984375 54.238281 7.503906 37.609375 7.503906 C 20.984375 7.503906 7.5 20.984375 7.5 37.613281 C 7.5 51.734375 17.222656 63.585938 30.335938 66.839844 L 30.335938 46.816406 L 24.125 46.816406 L 24.125 37.613281 L 30.335938 37.613281 L 30.335938 33.648438 C 30.335938 23.402344 34.972656 18.648438 45.035156 18.648438 C 46.941406 18.648438 50.234375 19.023438 51.578125 19.398438 L 51.578125 27.738281 C 50.871094 27.664062 49.632812 27.625 48.101562 27.625 C 43.164062 27.625 41.257812 29.496094 41.257812 34.355469 L 41.257812 37.609375 L 51.089844 37.609375 L 49.402344 46.8125 L 41.257812 46.8125 L 41.257812 67.5 C 56.164062 65.699219 67.71875 53.003906 67.71875 37.609375 Z M 67.71875 37.613281 " fill-opacity="1" fill-rule="nonzero"/></g></svg>