<svg xmlns="http://www.w3.org/2000/svg" xmlns:xlink="http://www.w3.org/1999/xlink" width="100" zoomAndPan="magnify" viewBox="0 0 75 74.999997" height="100" preserveAspectRatio="xMidYMid meet" version="1.0"><defs><clipPath id="e9c8add820"><path d="M 7.5 7.5 L 67.5 7.5 L 67.5 67.5 L 7.5 67.5 Z M 7.5 7.5 " clip-rule="nonzero"/></clipPath></defs><g clip-path="url(#e9c8add820)"><path fill="#ffffff" d="M 67.507812 37.613281 C 67.507812 20.984375 54.074219 7.503906 37.503906 7.503906 C 20.933594 7.503906 7.5 20.984375 7.5 37.613281 C 7.5 51.734375 17.1875 63.585938 30.253906 66.839844 L 30.253906 46.816406 L 24.066406 46.816406 L 24.066406 37.613281 L 30.253906 37.613281 L 30.253906 33.648438 C 30.253906 23.402344 34.878906 18.648438 44.902344 18.648438 C 46.804688 18.648438 50.085938 19.023438 51.425781 19.398438 L 51.425781 27.738281 C 50.71875 27.664062 49.488281 27.625 47.960938 27.625 C 43.039062 27.625 41.136719 29.496094 41.136719 34.355469 L 41.136719 37.609375 L 50.9375 37.609375 L 49.253906 46.8125 L 41.136719 46.8125 L 41.136719 67.5 C 55.996094 65.699219 67.507812 53.003906 67.507812 37.609375 Z M 67.507812 37.613281 " fill-opacity="1" fill-rule="nonzero"/></g></svg>