<svg xmlns="http://www.w3.org/2000/svg" xmlns:xlink="http://www.w3.org/1999/xlink" width="100" zoomAndPan="magnify" viewBox="0 0 75 74.999997" height="100" preserveAspectRatio="xMidYMid meet" version="1.0"><defs><clipPath id="7ff855193a"><path d="M 7.5 7.5 L 67.5 7.5 L 67.5 67.5 L 7.5 67.5 Z M 7.5 7.5 " clip-rule="nonzero"/></clipPath></defs><g clip-path="url(#7ff855193a)"><path fill="#141c44" d="M 25.066406 7.707031 C 21.875 7.855469 19.699219 8.367188 17.792969 9.113281 C 15.820312 9.882812 14.148438 10.910156 12.488281 12.582031 C 10.824219 14.25 9.800781 15.925781 9.039062 17.898438 C 8.300781 19.8125 7.800781 21.988281 7.660156 25.183594 C 7.519531 28.378906 7.488281 29.398438 7.503906 37.546875 C 7.515625 45.6875 7.554688 46.710938 7.707031 49.910156 C 7.859375 53.101562 8.367188 55.277344 9.113281 57.183594 C 9.882812 59.15625 10.910156 60.824219 12.582031 62.488281 C 14.25 64.152344 15.925781 65.175781 17.898438 65.9375 C 19.808594 66.675781 21.988281 67.179688 25.179688 67.316406 C 28.378906 67.457031 29.398438 67.488281 37.542969 67.472656 C 45.6875 67.457031 46.707031 67.421875 49.90625 67.269531 C 53.097656 67.117188 55.273438 66.605469 57.179688 65.859375 C 59.152344 65.089844 60.824219 64.0625 62.488281 62.394531 C 64.148438 60.722656 65.171875 59.050781 65.933594 57.074219 C 66.671875 55.167969 67.175781 52.984375 67.3125 49.796875 C 67.453125 46.597656 67.484375 45.574219 67.472656 37.433594 C 67.457031 29.289062 67.417969 28.269531 67.269531 25.070312 C 67.117188 21.875 66.605469 19.699219 65.859375 17.792969 C 65.089844 15.820312 64.0625 14.152344 62.394531 12.488281 C 60.722656 10.828125 59.050781 9.800781 57.074219 9.039062 C 55.167969 8.300781 52.984375 7.800781 49.792969 7.660156 C 46.59375 7.519531 45.570312 7.488281 37.429688 7.503906 C 29.285156 7.515625 28.265625 7.554688 25.066406 7.707031 M 25.417969 61.914062 C 22.496094 61.789062 20.90625 61.300781 19.847656 60.894531 C 18.445312 60.351562 17.449219 59.703125 16.394531 58.660156 C 15.34375 57.609375 14.691406 56.613281 14.144531 55.21875 C 13.734375 54.160156 13.238281 52.574219 13.101562 49.648438 C 12.953125 46.488281 12.917969 45.539062 12.902344 37.535156 C 12.890625 29.53125 12.917969 28.582031 13.054688 25.417969 C 13.179688 22.496094 13.667969 20.90625 14.078125 19.851562 C 14.621094 18.449219 15.265625 17.449219 16.3125 16.398438 C 17.359375 15.34375 18.359375 14.695312 19.757812 14.148438 C 20.8125 13.734375 22.398438 13.242188 25.320312 13.105469 C 28.484375 12.953125 29.429688 12.921875 37.4375 12.90625 C 45.445312 12.890625 46.394531 12.917969 49.554688 13.058594 C 52.480469 13.1875 54.066406 13.667969 55.125 14.078125 C 56.527344 14.621094 57.527344 15.265625 58.578125 16.316406 C 59.628906 17.363281 60.28125 18.359375 60.828125 19.761719 C 61.238281 20.8125 61.730469 22.402344 61.871094 25.320312 C 62.019531 28.484375 62.054688 29.433594 62.066406 37.4375 C 62.082031 45.445312 62.054688 46.394531 61.914062 49.554688 C 61.789062 52.476562 61.300781 54.066406 60.894531 55.125 C 60.351562 56.523438 59.707031 57.523438 58.65625 58.574219 C 57.609375 59.625 56.613281 60.277344 55.210938 60.824219 C 54.15625 61.238281 52.570312 61.730469 49.648438 61.867188 C 46.488281 62.015625 45.539062 62.050781 37.53125 62.066406 C 29.527344 62.078125 28.578125 62.050781 25.414062 61.914062 M 49.863281 21.457031 C 49.867188 23.445312 51.484375 25.054688 53.46875 25.046875 C 55.453125 25.046875 57.0625 23.429688 57.058594 21.445312 C 57.058594 19.457031 55.441406 17.847656 53.453125 17.851562 C 51.46875 17.855469 49.859375 19.472656 49.863281 21.457031 M 22.089844 37.515625 C 22.105469 46.019531 29.011719 52.898438 37.515625 52.882812 C 46.019531 52.867188 52.898438 45.960938 52.882812 37.457031 C 52.867188 28.957031 45.957031 22.074219 37.453125 22.089844 C 28.953125 22.105469 22.070312 29.011719 22.089844 37.515625 M 27.488281 37.503906 C 27.480469 31.984375 31.945312 27.5 37.464844 27.492188 C 42.984375 27.480469 47.472656 31.945312 47.480469 37.46875 C 47.492188 42.988281 43.023438 47.472656 37.503906 47.480469 C 31.984375 47.492188 27.5 43.023438 27.492188 37.503906 " fill-opacity="1" fill-rule="nonzero"/></g></svg>