<svg xmlns="http://www.w3.org/2000/svg" xmlns:xlink="http://www.w3.org/1999/xlink" width="336" zoomAndPan="magnify" viewBox="0 0 252 143.999998" height="192" preserveAspectRatio="xMidYMid meet" version="1.0"><defs><filter x="0%" y="0%" width="100%" height="100%" id="d005d46448"><feColorMatrix values="0 0 0 0 1 0 0 0 0 1 0 0 0 0 1 0 0 0 1 0" color-interpolation-filters="sRGB"/></filter><clipPath id="e9954748cc"><path d="M 172.382812 85.542969 L 252 85.542969 L 252 144 L 172.382812 144 Z M 172.382812 85.542969 " clip-rule="nonzero"/></clipPath><clipPath id="67d9b6772a"><path d="M 230.378906 92.988281 L 256.613281 127.089844 C 259.355469 130.65625 259.835938 135.476562 257.847656 139.511719 C 255.859375 143.550781 251.746094 146.109375 247.246094 146.109375 L 184.242188 146.109375 C 179.738281 146.109375 175.628906 143.550781 173.640625 139.511719 C 171.652344 135.476562 172.132812 130.65625 174.875 127.089844 L 201.109375 92.988281 C 204.605469 88.445312 210.011719 85.785156 215.742188 85.785156 C 221.476562 85.785156 226.882812 88.445312 230.378906 92.988281 Z M 230.378906 92.988281 " clip-rule="nonzero"/></clipPath><clipPath id="b01a95fbe3"><path d="M 0.382812 0.679688 L 80 0.679688 L 80 59 L 0.382812 59 Z M 0.382812 0.679688 " clip-rule="nonzero"/></clipPath><clipPath id="803ffef8c2"><path d="M 58.378906 7.988281 L 84.613281 42.089844 C 87.355469 45.65625 87.835938 50.476562 85.847656 54.511719 C 83.859375 58.550781 79.746094 61.109375 75.246094 61.109375 L 12.242188 61.109375 C 7.738281 61.109375 3.628906 58.550781 1.640625 54.511719 C -0.347656 50.476562 0.132812 45.65625 2.875 42.089844 L 29.109375 7.988281 C 32.605469 3.445312 38.011719 0.785156 43.742188 0.785156 C 49.476562 0.785156 54.882812 3.445312 58.378906 7.988281 Z M 58.378906 7.988281 " clip-rule="nonzero"/></clipPath><clipPath id="24a792a13f"><rect x="0" width="80" y="0" height="59"/></clipPath><clipPath id="07f24fdae3"><path d="M 83.121094 63.03125 L 209.9375 63.03125 L 209.9375 144 L 83.121094 144 Z M 83.121094 63.03125 " clip-rule="nonzero"/></clipPath><clipPath id="6b45270b16"><path d="M 161.449219 70.597656 L 207.441406 129.269531 C 210.195312 132.789062 210.707031 137.570312 208.75 141.589844 C 206.792969 145.605469 202.714844 148.15625 198.246094 148.15625 L 95.042969 148.15625 C 90.570312 148.15625 86.496094 145.605469 84.539062 141.589844 C 82.582031 137.570312 83.089844 132.789062 85.847656 129.269531 L 131.839844 70.597656 C 135.40625 66.046875 140.863281 63.390625 146.644531 63.390625 C 152.425781 63.390625 157.882812 66.046875 161.449219 70.597656 Z M 161.449219 70.597656 " clip-rule="nonzero"/></clipPath><clipPath id="474e4beb42"><path d="M 0.121094 0.359375 L 126.9375 0.359375 L 126.9375 81 L 0.121094 81 Z M 0.121094 0.359375 " clip-rule="nonzero"/></clipPath><clipPath id="9a0e1624d0"><path d="M 78.449219 7.597656 L 124.441406 66.269531 C 127.195312 69.789062 127.707031 74.570312 125.75 78.589844 C 123.792969 82.605469 119.714844 85.15625 115.246094 85.15625 L 12.042969 85.15625 C 7.570312 85.15625 3.496094 82.605469 1.539062 78.589844 C -0.417969 74.570312 0.0898438 69.789062 2.847656 66.269531 L 48.839844 7.597656 C 52.40625 3.046875 57.863281 0.390625 63.644531 0.390625 C 69.425781 0.390625 74.882812 3.046875 78.449219 7.597656 Z M 78.449219 7.597656 " clip-rule="nonzero"/></clipPath><clipPath id="f167c39ac6"><rect x="0" width="127" y="0" height="81"/></clipPath><clipPath id="1abd7d37e1"><path d="M 0 124.546875 L 225.660156 124.546875 L 225.660156 144 L 0 144 Z M 0 124.546875 " clip-rule="nonzero"/></clipPath><clipPath id="7b796c1f93"><path d="M 0 0.546875 L 225.660156 0.546875 L 225.660156 20 L 0 20 Z M 0 0.546875 " clip-rule="nonzero"/></clipPath><clipPath id="be4c8d0555"><rect x="0" width="226" y="0" height="20"/></clipPath><clipPath id="a50457b3c7"><path d="M 75.210938 50.632812 L 115.710938 50.632812 L 115.710938 71.632812 L 75.210938 71.632812 Z M 75.210938 50.632812 " clip-rule="nonzero"/></clipPath><clipPath id="48e4460183"><path d="M 142.007812 0 L 185.507812 0 L 185.507812 28.5 L 142.007812 28.5 Z M 142.007812 0 " clip-rule="nonzero"/></clipPath><clipPath id="cdaad79751"><path d="M 191.648438 45.75 L 215.648438 45.75 L 215.648438 58.5 L 191.648438 58.5 Z M 191.648438 45.75 " clip-rule="nonzero"/></clipPath><clipPath id="391e3ae87f"><path d="M 14.398438 10.589844 L 57 10.589844 L 57 52.589844 L 14.398438 52.589844 Z M 14.398438 10.589844 " clip-rule="nonzero"/></clipPath><mask id="c7afdcbfe1"><g filter="url(#d005d46448)"><rect x="-25.2" width="302.4" fill="#000000" y="-14.4" height="172.799997" fill-opacity="0.04"/></g></mask><clipPath id="6a3166c546"><path d="M 0.601562 0.199219 L 8.761719 0.199219 L 8.761719 40.519531 L 0.601562 40.519531 Z M 0.601562 0.199219 " clip-rule="nonzero"/></clipPath><clipPath id="fb5b556799"><rect x="0" width="9" y="0" height="41"/></clipPath><mask id="51aea64f31"><g filter="url(#d005d46448)"><rect x="-25.2" width="302.4" fill="#000000" y="-14.4" height="172.799997" fill-opacity="0.04"/></g></mask><clipPath id="ac89302b2e"><path d="M 0.199219 0.199219 L 8.601562 0.199219 L 8.601562 40.519531 L 0.199219 40.519531 Z M 0.199219 0.199219 " clip-rule="nonzero"/></clipPath><clipPath id="8964df2d75"><rect x="0" width="9" y="0" height="41"/></clipPath><clipPath id="228eb41c42"><path d="M 18.765625 66.945312 L 84.765625 66.945312 L 84.765625 96 L 18.765625 96 Z M 18.765625 66.945312 " clip-rule="nonzero"/></clipPath><clipPath id="53d299c1da"><path d="M 25 119 L 78 119 L 78 124.695312 L 25 124.695312 Z M 25 119 " clip-rule="nonzero"/></clipPath><clipPath id="1171434f24"><path d="M 51 119 L 78 119 L 78 124.695312 L 51 124.695312 Z M 51 119 " clip-rule="nonzero"/></clipPath><mask id="c93890bfce"><g filter="url(#d005d46448)"><rect x="-25.2" width="302.4" fill="#000000" y="-14.4" height="172.799997" fill-opacity="0.05"/></g></mask><clipPath id="16e6a44510"><path d="M 1 0.0390625 L 26.761719 0.0390625 L 26.761719 5.695312 L 1 5.695312 Z M 1 0.0390625 " clip-rule="nonzero"/></clipPath><clipPath id="40c22c1eac"><rect x="0" width="27" y="0" height="6"/></clipPath><clipPath id="68fabed2ea"><path d="M 51 66.945312 L 84.765625 66.945312 L 84.765625 96 L 51 96 Z M 51 66.945312 " clip-rule="nonzero"/></clipPath><mask id="efa96ce452"><g filter="url(#d005d46448)"><rect x="-25.2" width="302.4" fill="#000000" y="-14.4" height="172.799997" fill-opacity="0.05"/></g></mask><clipPath id="829ed24c56"><path d="M 1 0.945312 L 33.765625 0.945312 L 33.765625 29 L 1 29 Z M 1 0.945312 " clip-rule="nonzero"/></clipPath><clipPath id="d144a2fa09"><rect x="0" width="34" y="0" height="30"/></clipPath><clipPath id="84b8829db5"><path d="M 19 69 L 84.765625 69 L 84.765625 96 L 19 96 Z M 19 69 " clip-rule="nonzero"/></clipPath><mask id="85d465766b"><g filter="url(#d005d46448)"><rect x="-25.2" width="302.4" fill="#000000" y="-14.4" height="172.799997" fill-opacity="0.05"/></g></mask><clipPath id="547b5de680"><path d="M 0.199219 0.121094 L 65.71875 0.121094 L 65.71875 26.28125 L 0.199219 26.28125 Z M 0.199219 0.121094 " clip-rule="nonzero"/></clipPath><clipPath id="53ba864645"><rect x="0" width="66" y="0" height="27"/></clipPath><clipPath id="6ee19d2aa6"><path d="M 25 121 L 78 121 L 78 124.695312 L 25 124.695312 Z M 25 121 " clip-rule="nonzero"/></clipPath><mask id="678c92feca"><g filter="url(#d005d46448)"><rect x="-25.2" width="302.4" fill="#000000" y="-14.4" height="172.799997" fill-opacity="0.05"/></g></mask><clipPath id="4e14bf2fc7"><path d="M 0.679688 0.679688 L 53 0.679688 L 53 3.695312 L 0.679688 3.695312 Z M 0.679688 0.679688 " clip-rule="nonzero"/></clipPath><clipPath id="6fef822933"><rect x="0" width="53" y="0" height="4"/></clipPath></defs><g clip-path="url(#e9954748cc)"><g clip-path="url(#67d9b6772a)"><g transform="matrix(1, 0, 0, 1, 172, 85)"><g clip-path="url(#24a792a13f)"><g clip-path="url(#b01a95fbe3)"><g clip-path="url(#803ffef8c2)"><rect x="-227.44" width="362.88" fill="#ffffff" height="207.359996" y="-116.679999" fill-opacity="1"/></g></g></g></g></g></g><g clip-path="url(#07f24fdae3)"><g clip-path="url(#6b45270b16)"><g transform="matrix(1, 0, 0, 1, 83, 63)"><g clip-path="url(#f167c39ac6)"><g clip-path="url(#474e4beb42)"><g clip-path="url(#9a0e1624d0)"><rect x="-138.44" width="362.88" fill="#ffffff" height="207.359996" y="-94.679999" fill-opacity="1"/></g></g></g></g></g></g><g clip-path="url(#1abd7d37e1)"><g transform="matrix(1, 0, 0, 1, 0, 124)"><g clip-path="url(#be4c8d0555)"><g clip-path="url(#7b796c1f93)"><path fill="#ffffff" d="M -7.199219 0.546875 L 225.667969 0.546875 L 225.667969 30.085938 L -7.199219 30.085938 Z M -7.199219 0.546875 " fill-opacity="1" fill-rule="nonzero"/></g></g></g></g><g clip-path="url(#a50457b3c7)"><path fill="#ffffff" d="M 108.050781 57.261719 C 107.382812 57.261719 106.738281 57.351562 106.125 57.515625 C 104.753906 53.527344 100.972656 50.660156 96.519531 50.660156 C 92.292969 50.660156 88.671875 53.242188 87.140625 56.914062 C 86.59375 56.738281 86.011719 56.644531 85.410156 56.644531 C 82.253906 56.644531 79.695312 59.203125 79.695312 62.363281 C 79.695312 62.367188 79.695312 62.371094 79.695312 62.375 C 77.191406 62.535156 75.210938 64.617188 75.210938 67.164062 C 75.210938 69.8125 77.359375 71.960938 80.007812 71.960938 C 80.082031 71.960938 80.15625 71.960938 80.230469 71.957031 L 80.230469 71.960938 L 80.265625 71.957031 C 80.300781 71.953125 80.332031 71.949219 80.363281 71.949219 L 107.484375 71.949219 C 107.671875 71.960938 107.859375 71.972656 108.050781 71.972656 C 112.113281 71.972656 115.40625 68.679688 115.40625 64.617188 C 115.40625 60.554688 112.113281 57.261719 108.050781 57.261719 Z M 108.050781 57.261719 " fill-opacity="1" fill-rule="nonzero"/></g><g clip-path="url(#48e4460183)"><path fill="#ffffff" d="M 185.203125 18.777344 C 185.203125 13.414062 180.980469 9.046875 175.675781 8.789062 C 173.964844 3.6875 169.148438 0 163.476562 0 C 156.785156 0 151.289062 5.105469 150.660156 11.628906 C 150.640625 11.628906 150.617188 11.625 150.601562 11.625 C 145.855469 11.625 142.011719 15.472656 142.011719 20.207031 C 142.011719 24.949219 145.855469 28.792969 150.597656 28.792969 L 175.550781 28.792969 L 175.550781 28.773438 C 180.910156 28.582031 185.203125 24.1875 185.203125 18.777344 Z M 185.203125 18.777344 " fill-opacity="1" fill-rule="nonzero"/></g><g clip-path="url(#cdaad79751)"><path fill="#ffffff" d="M 212.515625 52.398438 C 212.480469 52.398438 212.445312 52.398438 212.410156 52.402344 C 212.410156 52.359375 212.414062 52.320312 212.414062 52.277344 C 212.414062 50.523438 210.992188 49.105469 209.238281 49.105469 C 208.835938 49.105469 208.453125 49.179688 208.097656 49.316406 C 207.210938 47.230469 205.144531 45.765625 202.734375 45.765625 C 200.65625 45.765625 198.832031 46.855469 197.800781 48.496094 C 197.433594 48.394531 197.042969 48.335938 196.640625 48.335938 C 194.253906 48.335938 192.320312 50.273438 192.320312 52.65625 C 192.320312 53.128906 192.398438 53.585938 192.539062 54.011719 C 191.992188 54.523438 191.648438 55.25 191.648438 56.058594 C 191.648438 57.492188 192.730469 58.671875 194.121094 58.832031 L 194.121094 58.851562 L 194.171875 58.839844 L 194.21875 58.839844 C 194.292969 58.847656 194.367188 58.851562 194.441406 58.851562 C 194.515625 58.851562 194.589844 58.847656 194.664062 58.839844 L 212.304688 58.839844 C 212.375 58.84375 212.445312 58.847656 212.515625 58.847656 C 214.296875 58.847656 215.742188 57.40625 215.742188 55.625 C 215.742188 53.84375 214.296875 52.398438 212.515625 52.398438 Z M 212.515625 52.398438 " fill-opacity="1" fill-rule="nonzero"/></g><path fill="#ffffff" d="M 46.605469 31.449219 C 46.605469 32.160156 46.535156 32.867188 46.394531 33.5625 C 46.253906 34.261719 46.042969 34.9375 45.769531 35.59375 C 45.492188 36.253906 45.152344 36.878906 44.75 37.46875 C 44.347656 38.0625 43.894531 38.609375 43.382812 39.109375 C 42.871094 39.613281 42.316406 40.0625 41.714844 40.457031 C 41.113281 40.855469 40.480469 41.1875 39.8125 41.460938 C 39.144531 41.730469 38.457031 41.9375 37.746094 42.078125 C 37.039062 42.214844 36.320312 42.285156 35.597656 42.285156 C 34.875 42.285156 34.160156 42.214844 33.453125 42.078125 C 32.742188 41.9375 32.054688 41.730469 31.386719 41.460938 C 30.71875 41.1875 30.085938 40.855469 29.484375 40.457031 C 28.882812 40.0625 28.328125 39.613281 27.816406 39.109375 C 27.304688 38.609375 26.847656 38.0625 26.449219 37.46875 C 26.046875 36.878906 25.707031 36.253906 25.429688 35.59375 C 25.152344 34.9375 24.945312 34.261719 24.804688 33.5625 C 24.664062 32.867188 24.59375 32.160156 24.59375 31.449219 C 24.59375 30.738281 24.664062 30.03125 24.804688 29.335938 C 24.945312 28.636719 25.152344 27.960938 25.429688 27.300781 C 25.707031 26.644531 26.046875 26.019531 26.449219 25.429688 C 26.847656 24.835938 27.304688 24.289062 27.816406 23.789062 C 28.328125 23.285156 28.882812 22.835938 29.484375 22.441406 C 30.085938 22.042969 30.71875 21.710938 31.386719 21.4375 C 32.054688 21.167969 32.742188 20.960938 33.453125 20.820312 C 34.160156 20.683594 34.875 20.613281 35.597656 20.613281 C 36.320312 20.613281 37.039062 20.683594 37.746094 20.820312 C 38.457031 20.960938 39.144531 21.167969 39.8125 21.4375 C 40.480469 21.710938 41.113281 22.042969 41.714844 22.441406 C 42.316406 22.835938 42.871094 23.285156 43.382812 23.789062 C 43.894531 24.289062 44.347656 24.835938 44.75 25.429688 C 45.152344 26.019531 45.492188 26.644531 45.769531 27.300781 C 46.042969 27.960938 46.253906 28.636719 46.394531 29.335938 C 46.535156 30.03125 46.605469 30.738281 46.605469 31.449219 Z M 46.605469 31.449219 " fill-opacity="1" fill-rule="nonzero"/><g clip-path="url(#391e3ae87f)"><path fill="#ffffff" d="M 35.597656 17.925781 C 35.277344 17.925781 35.027344 17.675781 35.027344 17.355469 L 35.027344 11.160156 C 35.027344 10.839844 35.277344 10.589844 35.597656 10.589844 C 35.917969 10.589844 36.171875 10.839844 36.171875 11.160156 L 36.171875 17.355469 C 36.171875 17.664062 35.90625 17.925781 35.597656 17.925781 Z M 36.171875 51.738281 L 36.171875 45.542969 C 36.171875 45.222656 35.917969 44.96875 35.597656 44.96875 C 35.277344 44.96875 35.027344 45.222656 35.027344 45.542969 L 35.027344 51.738281 C 35.027344 52.058594 35.277344 52.308594 35.597656 52.308594 C 35.917969 52.308594 36.171875 52.058594 36.171875 51.738281 Z M 21.835938 31.449219 C 21.835938 31.128906 21.585938 30.878906 21.265625 30.878906 L 14.980469 30.878906 C 14.660156 30.878906 14.410156 31.128906 14.410156 31.449219 C 14.410156 31.769531 14.660156 32.019531 14.980469 32.019531 L 21.265625 32.019531 C 21.585938 32.019531 21.835938 31.769531 21.835938 31.449219 Z M 56.789062 31.449219 C 56.789062 31.128906 56.539062 30.878906 56.21875 30.878906 L 49.933594 30.878906 C 49.613281 30.878906 49.359375 31.128906 49.359375 31.449219 C 49.359375 31.769531 49.613281 32.019531 49.933594 32.019531 L 56.21875 32.019531 C 56.539062 32.019531 56.789062 31.769531 56.789062 31.449219 Z M 25.871094 21.882812 C 26.089844 21.652344 26.089844 21.300781 25.859375 21.070312 L 21.414062 16.691406 C 21.1875 16.476562 20.832031 16.476562 20.601562 16.703125 C 20.386719 16.933594 20.386719 17.289062 20.613281 17.515625 L 25.0625 21.894531 C 25.175781 22.007812 25.3125 22.054688 25.460938 22.054688 C 25.609375 22.054688 25.757812 21.996094 25.871094 21.882812 Z M 50.582031 46.203125 C 50.800781 45.976562 50.800781 45.621094 50.570312 45.394531 L 46.125 41.015625 C 45.898438 40.796875 45.542969 40.796875 45.316406 41.027344 C 45.097656 41.257812 45.097656 41.609375 45.324219 41.839844 L 49.773438 46.214844 C 49.886719 46.332031 50.023438 46.375 50.171875 46.375 C 50.320312 46.375 50.46875 46.320312 50.582031 46.203125 Z M 21.414062 46.203125 L 25.859375 41.828125 C 26.089844 41.609375 26.089844 41.246094 25.871094 41.015625 C 25.65625 40.789062 25.289062 40.789062 25.0625 41.003906 L 20.613281 45.394531 C 20.386719 45.609375 20.386719 45.976562 20.601562 46.203125 C 20.71875 46.320312 20.867188 46.375 21.015625 46.375 C 21.164062 46.375 21.300781 46.320312 21.414062 46.203125 Z M 46.125 21.894531 L 50.570312 17.515625 C 50.800781 17.300781 50.800781 16.933594 50.582031 16.703125 C 50.367188 16.476562 50 16.476562 49.773438 16.691406 L 45.324219 21.070312 C 45.097656 21.289062 45.097656 21.652344 45.316406 21.882812 C 45.429688 21.996094 45.578125 22.054688 45.726562 22.054688 C 45.875 22.054688 46.023438 21.996094 46.125 21.894531 Z M 30.320312 18.921875 C 30.605469 18.796875 30.742188 18.464844 30.628906 18.179688 L 29.507812 15.515625 C 29.382812 15.230469 29.050781 15.09375 28.753906 15.207031 C 28.46875 15.332031 28.328125 15.664062 28.445312 15.949219 L 29.5625 18.613281 C 29.65625 18.832031 29.871094 18.96875 30.089844 18.96875 C 30.179688 18.96875 30.25 18.957031 30.320312 18.921875 Z M 42.433594 47.703125 C 42.71875 47.578125 42.855469 47.246094 42.742188 46.960938 L 41.621094 44.296875 C 41.496094 44.011719 41.164062 43.875 40.867188 43.988281 C 40.582031 44.113281 40.445312 44.445312 40.558594 44.730469 L 41.679688 47.394531 C 41.769531 47.609375 41.988281 47.746094 42.207031 47.746094 C 42.285156 47.746094 42.367188 47.726562 42.433594 47.703125 Z M 19.835938 38.488281 L 22.546875 37.382812 C 22.84375 37.265625 22.980469 36.925781 22.855469 36.636719 C 22.742188 36.339844 22.398438 36.203125 22.113281 36.328125 L 19.402344 37.4375 C 19.105469 37.550781 18.96875 37.894531 19.09375 38.179688 C 19.1875 38.398438 19.402344 38.535156 19.621094 38.535156 C 19.6875 38.535156 19.769531 38.523438 19.835938 38.488281 Z M 49.074219 26.578125 L 51.785156 25.472656 C 52.082031 25.355469 52.21875 25.015625 52.09375 24.726562 C 51.976562 24.429688 51.636719 24.292969 51.347656 24.417969 L 48.640625 25.527344 C 48.34375 25.644531 48.207031 25.984375 48.332031 26.269531 C 48.421875 26.488281 48.640625 26.625 48.859375 26.625 C 48.9375 26.613281 49.007812 26.601562 49.074219 26.578125 Z M 41.621094 18.625 L 42.742188 15.960938 C 42.867188 15.675781 42.730469 15.332031 42.433594 15.21875 C 42.136719 15.09375 41.804688 15.230469 41.679688 15.527344 L 40.558594 18.191406 C 40.433594 18.476562 40.570312 18.820312 40.867188 18.933594 C 40.9375 18.96875 41.015625 18.980469 41.085938 18.980469 C 41.3125 18.96875 41.53125 18.84375 41.621094 18.625 Z M 29.507812 47.394531 L 30.628906 44.730469 C 30.753906 44.445312 30.617188 44.101562 30.320312 43.988281 C 30.019531 43.863281 29.691406 44 29.5625 44.296875 L 28.445312 46.960938 C 28.320312 47.246094 28.457031 47.589844 28.753906 47.703125 C 28.820312 47.738281 28.902344 47.746094 28.96875 47.746094 C 29.199219 47.746094 29.414062 47.609375 29.507812 47.394531 Z M 22.867188 26.261719 C 22.980469 25.960938 22.84375 25.632812 22.558594 25.515625 L 19.847656 24.410156 C 19.550781 24.292969 19.21875 24.429688 19.105469 24.71875 C 18.992188 25.015625 19.128906 25.34375 19.414062 25.460938 L 22.125 26.570312 C 22.191406 26.601562 22.273438 26.613281 22.339844 26.613281 C 22.558594 26.613281 22.773438 26.476562 22.867188 26.261719 Z M 52.105469 38.179688 C 52.21875 37.882812 52.082031 37.550781 51.796875 37.4375 L 49.074219 36.328125 C 48.777344 36.214844 48.445312 36.351562 48.332031 36.636719 C 48.21875 36.933594 48.355469 37.265625 48.640625 37.382812 L 51.347656 38.488281 C 51.417969 38.523438 51.5 38.535156 51.566406 38.535156 C 51.796875 38.535156 52.011719 38.398438 52.105469 38.179688 Z M 52.105469 38.179688 " fill-opacity="1" fill-rule="nonzero"/></g><path fill="#ffffff" d="M 52.699219 70.054688 L 27.742188 90.71875 L 27.742188 119.398438 L 75.484375 119.398438 L 75.484375 90.085938 Z M 60.417969 110.105469 C 60.417969 110.460938 60.125 110.738281 59.78125 110.738281 L 43.761719 110.738281 C 43.402344 110.738281 43.125 110.449219 43.125 110.105469 L 43.125 94.082031 C 43.125 93.726562 43.417969 93.449219 43.761719 93.449219 L 59.78125 93.449219 C 60.140625 93.449219 60.417969 93.699219 60.417969 94.082031 Z M 60.417969 110.105469 " fill-opacity="1" fill-rule="nonzero"/><g mask="url(#c7afdcbfe1)"><g transform="matrix(1, 0, 0, 1, 27, 79)"><g clip-path="url(#fb5b556799)"><g clip-path="url(#6a3166c546)"><path fill="#ffffff" d="M 8.710938 0.386719 L 0.742188 11.046875 L 0.742188 40.371094 L 8.710938 40.371094 Z M 8.710938 0.386719 " fill-opacity="1" fill-rule="nonzero"/></g></g></g></g><path fill="#ffffff" d="M 50.964844 93.128906 L 52.566406 93.128906 L 52.566406 111.070312 L 50.964844 111.070312 Z M 50.964844 93.128906 " fill-opacity="1" fill-rule="nonzero"/><path fill="#ffffff" d="M 42.796875 101.484375 L 60.734375 101.484375 L 60.734375 103.085938 L 42.796875 103.085938 Z M 42.796875 101.484375 " fill-opacity="1" fill-rule="nonzero"/><g mask="url(#51aea64f31)"><g transform="matrix(1, 0, 0, 1, 67, 79)"><g clip-path="url(#8964df2d75)"><g clip-path="url(#ac89302b2e)"><path fill="#ffffff" d="M 0.472656 40.371094 L 8.445312 40.371094 L 8.445312 11.046875 L 0.472656 0.386719 " fill-opacity="1" fill-rule="nonzero"/></g></g></g></g><g clip-path="url(#228eb41c42)"><path fill="#ffffff" d="M 21.109375 95.207031 C 20.40625 95.207031 19.703125 94.890625 19.253906 94.28125 C 18.445312 93.261719 18.671875 91.78125 19.703125 90.984375 L 50.671875 67.433594 C 51.507812 66.796875 52.683594 66.796875 53.519531 67.433594 L 84.039062 90.628906 C 85.054688 91.4375 85.28125 92.90625 84.488281 93.925781 C 83.679688 94.945312 82.210938 95.167969 81.191406 94.375 L 52.101562 72.265625 L 22.550781 94.730469 C 22.128906 95.050781 21.609375 95.207031 21.109375 95.207031 Z M 21.109375 95.207031 " fill-opacity="1" fill-rule="nonzero"/></g><g clip-path="url(#53d299c1da)"><path fill="#ffffff" d="M 77.046875 124.523438 L 26.457031 124.523438 C 26.101562 124.523438 25.820312 124.230469 25.820312 123.886719 L 25.820312 119.714844 C 25.820312 119.359375 26.113281 119.082031 26.457031 119.082031 L 77.046875 119.082031 C 77.402344 119.082031 77.683594 119.371094 77.683594 119.714844 L 77.683594 123.886719 C 77.695312 124.242188 77.402344 124.523438 77.046875 124.523438 Z M 77.046875 124.523438 " fill-opacity="1" fill-rule="nonzero"/></g><g clip-path="url(#1171434f24)"><g mask="url(#c93890bfce)"><g transform="matrix(1, 0, 0, 1, 51, 119)"><g clip-path="url(#40c22c1eac)"><g clip-path="url(#16e6a44510)"><path fill="#ffffff" d="M 1.089844 0.0820312 L 26.046875 0.0820312 C 26.402344 0.0820312 26.683594 0.371094 26.683594 0.714844 L 26.683594 4.886719 C 26.683594 5.242188 26.390625 5.523438 26.046875 5.523438 L 1.089844 5.523438 " fill-opacity="1" fill-rule="nonzero"/></g></g></g></g></g><g clip-path="url(#68fabed2ea)"><g mask="url(#efa96ce452)"><g transform="matrix(1, 0, 0, 1, 51, 66)"><g clip-path="url(#d144a2fa09)"><g clip-path="url(#829ed24c56)"><path fill="#ffffff" d="M 1.089844 0.957031 C 1.605469 0.957031 2.109375 1.113281 2.53125 1.433594 L 33.039062 24.628906 C 34.054688 25.4375 34.28125 26.90625 33.488281 27.925781 C 32.679688 28.945312 31.210938 29.167969 30.191406 28.375 L 1.101562 6.265625 " fill-opacity="1" fill-rule="nonzero"/></g></g></g></g></g><g clip-path="url(#84b8829db5)"><g mask="url(#85d465766b)"><g transform="matrix(1, 0, 0, 1, 19, 69)"><g clip-path="url(#53ba864645)"><g clip-path="url(#547b5de680)"><path fill="#ffffff" d="M 33.089844 0.324219 L 65.488281 24.9375 C 64.679688 25.957031 63.210938 26.183594 62.191406 25.386719 L 33.101562 3.277344 L 3.550781 25.730469 C 3.140625 26.050781 2.625 26.207031 2.148438 26.207031 C 1.445312 26.207031 0.746094 25.890625 0.292969 25.28125 Z M 33.089844 0.324219 " fill-opacity="1" fill-rule="nonzero"/></g></g></g></g></g><g clip-path="url(#6ee19d2aa6)"><g mask="url(#678c92feca)"><g transform="matrix(1, 0, 0, 1, 25, 121)"><g clip-path="url(#6fef822933)"><g clip-path="url(#4e14bf2fc7)"><path fill="#ffffff" d="M 52.695312 0.808594 L 52.695312 2.886719 C 52.695312 3.242188 52.402344 3.523438 52.058594 3.523438 L 1.457031 3.523438 C 1.101562 3.523438 0.820312 3.230469 0.820312 2.886719 L 0.820312 0.808594 " fill-opacity="1" fill-rule="nonzero"/></g></g></g></g></g></svg>