<svg xmlns="http://www.w3.org/2000/svg" xmlns:xlink="http://www.w3.org/1999/xlink" width="336" zoomAndPan="magnify" viewBox="0 0 252 143.999998" height="192" preserveAspectRatio="xMidYMid meet" version="1.0"><defs><clipPath id="c72dcda496"><path d="M 172.382812 85.542969 L 252 85.542969 L 252 144 L 172.382812 144 Z M 172.382812 85.542969 " clip-rule="nonzero"/></clipPath><clipPath id="26257756e2"><path d="M 230.378906 92.988281 L 256.613281 127.089844 C 259.355469 130.65625 259.835938 135.476562 257.847656 139.511719 C 255.859375 143.550781 251.746094 146.109375 247.246094 146.109375 L 184.242188 146.109375 C 179.738281 146.109375 175.628906 143.550781 173.640625 139.511719 C 171.652344 135.476562 172.132812 130.65625 174.875 127.089844 L 201.109375 92.988281 C 204.605469 88.445312 210.011719 85.785156 215.742188 85.785156 C 221.476562 85.785156 226.882812 88.445312 230.378906 92.988281 Z M 230.378906 92.988281 " clip-rule="nonzero"/></clipPath><clipPath id="dd468b406c"><path d="M 0.382812 0.679688 L 80 0.679688 L 80 59 L 0.382812 59 Z M 0.382812 0.679688 " clip-rule="nonzero"/></clipPath><clipPath id="9465b32083"><path d="M 58.378906 7.988281 L 84.613281 42.089844 C 87.355469 45.65625 87.835938 50.476562 85.847656 54.511719 C 83.859375 58.550781 79.746094 61.109375 75.246094 61.109375 L 12.242188 61.109375 C 7.738281 61.109375 3.628906 58.550781 1.640625 54.511719 C -0.347656 50.476562 0.132812 45.65625 2.875 42.089844 L 29.109375 7.988281 C 32.605469 3.445312 38.011719 0.785156 43.742188 0.785156 C 49.476562 0.785156 54.882812 3.445312 58.378906 7.988281 Z M 58.378906 7.988281 " clip-rule="nonzero"/></clipPath><clipPath id="a495bbd5f9"><rect x="0" width="80" y="0" height="59"/></clipPath><clipPath id="3c0af22add"><path d="M 83.121094 63.03125 L 209.9375 63.03125 L 209.9375 144 L 83.121094 144 Z M 83.121094 63.03125 " clip-rule="nonzero"/></clipPath><clipPath id="04c8e9768a"><path d="M 161.449219 70.597656 L 207.441406 129.269531 C 210.195312 132.789062 210.707031 137.570312 208.75 141.589844 C 206.792969 145.605469 202.714844 148.15625 198.246094 148.15625 L 95.042969 148.15625 C 90.570312 148.15625 86.496094 145.605469 84.539062 141.589844 C 82.582031 137.570312 83.089844 132.789062 85.847656 129.269531 L 131.839844 70.597656 C 135.40625 66.046875 140.863281 63.390625 146.644531 63.390625 C 152.425781 63.390625 157.882812 66.046875 161.449219 70.597656 Z M 161.449219 70.597656 " clip-rule="nonzero"/></clipPath><clipPath id="5562c7b51c"><path d="M 0.121094 0.359375 L 126.9375 0.359375 L 126.9375 81 L 0.121094 81 Z M 0.121094 0.359375 " clip-rule="nonzero"/></clipPath><clipPath id="ccf6bb7596"><path d="M 78.449219 7.597656 L 124.441406 66.269531 C 127.195312 69.789062 127.707031 74.570312 125.75 78.589844 C 123.792969 82.605469 119.714844 85.15625 115.246094 85.15625 L 12.042969 85.15625 C 7.570312 85.15625 3.496094 82.605469 1.539062 78.589844 C -0.417969 74.570312 0.0898438 69.789062 2.847656 66.269531 L 48.839844 7.597656 C 52.40625 3.046875 57.863281 0.390625 63.644531 0.390625 C 69.425781 0.390625 74.882812 3.046875 78.449219 7.597656 Z M 78.449219 7.597656 " clip-rule="nonzero"/></clipPath><clipPath id="d388e3c1d1"><rect x="0" width="127" y="0" height="81"/></clipPath><clipPath id="a21fdfe726"><path d="M 0 124.546875 L 225.660156 124.546875 L 225.660156 144 L 0 144 Z M 0 124.546875 " clip-rule="nonzero"/></clipPath><clipPath id="1ea0e647f9"><path d="M 0 0.546875 L 225.660156 0.546875 L 225.660156 20 L 0 20 Z M 0 0.546875 " clip-rule="nonzero"/></clipPath><clipPath id="9a50fd80df"><rect x="0" width="226" y="0" height="20"/></clipPath><clipPath id="747ba55eda"><path d="M 75.210938 50.632812 L 115.710938 50.632812 L 115.710938 71.632812 L 75.210938 71.632812 Z M 75.210938 50.632812 " clip-rule="nonzero"/></clipPath><clipPath id="714f3647c3"><path d="M 142.007812 0 L 185.507812 0 L 185.507812 28.5 L 142.007812 28.5 Z M 142.007812 0 " clip-rule="nonzero"/></clipPath><clipPath id="a04ebcd8f6"><path d="M 191.648438 45.75 L 215.648438 45.75 L 215.648438 58.5 L 191.648438 58.5 Z M 191.648438 45.75 " clip-rule="nonzero"/></clipPath><clipPath id="2a0d94f400"><path d="M 22.539062 71.21875 L 69.789062 71.21875 L 69.789062 117 L 22.539062 117 Z M 22.539062 71.21875 " clip-rule="nonzero"/></clipPath><clipPath id="4efd921638"><path d="M 32 81 L 62 81 L 62 128.96875 L 32 128.96875 Z M 32 81 " clip-rule="nonzero"/></clipPath><clipPath id="eff75acee0"><path d="M 14.398438 10.589844 L 57 10.589844 L 57 52.589844 L 14.398438 52.589844 Z M 14.398438 10.589844 " clip-rule="nonzero"/></clipPath></defs><g clip-path="url(#c72dcda496)"><g clip-path="url(#26257756e2)"><g transform="matrix(1, 0, 0, 1, 172, 85)"><g clip-path="url(#a495bbd5f9)"><g clip-path="url(#dd468b406c)"><g clip-path="url(#9465b32083)"><rect x="-227.44" width="362.88" fill="#141c44" height="207.359996" y="-116.679999" fill-opacity="1"/></g></g></g></g></g></g><g clip-path="url(#3c0af22add)"><g clip-path="url(#04c8e9768a)"><g transform="matrix(1, 0, 0, 1, 83, 63)"><g clip-path="url(#d388e3c1d1)"><g clip-path="url(#5562c7b51c)"><g clip-path="url(#ccf6bb7596)"><rect x="-138.44" width="362.88" fill="#141c44" height="207.359996" y="-94.679999" fill-opacity="1"/></g></g></g></g></g></g><g clip-path="url(#a21fdfe726)"><g transform="matrix(1, 0, 0, 1, 0, 124)"><g clip-path="url(#9a50fd80df)"><g clip-path="url(#1ea0e647f9)"><path fill="#141c44" d="M -7.199219 0.546875 L 225.667969 0.546875 L 225.667969 30.085938 L -7.199219 30.085938 Z M -7.199219 0.546875 " fill-opacity="1" fill-rule="nonzero"/></g></g></g></g><g clip-path="url(#747ba55eda)"><path fill="#141c44" d="M 108.050781 57.261719 C 107.382812 57.261719 106.738281 57.351562 106.125 57.515625 C 104.753906 53.527344 100.972656 50.660156 96.519531 50.660156 C 92.292969 50.660156 88.671875 53.242188 87.140625 56.914062 C 86.59375 56.738281 86.011719 56.644531 85.410156 56.644531 C 82.253906 56.644531 79.695312 59.207031 79.695312 62.363281 C 79.695312 62.367188 79.695312 62.371094 79.695312 62.375 C 77.191406 62.535156 75.210938 64.617188 75.210938 67.164062 C 75.210938 69.8125 77.359375 71.960938 80.007812 71.960938 C 80.082031 71.960938 80.15625 71.960938 80.230469 71.957031 L 80.230469 71.960938 L 80.265625 71.957031 C 80.300781 71.953125 80.332031 71.949219 80.363281 71.949219 L 107.484375 71.949219 C 107.671875 71.960938 107.859375 71.972656 108.050781 71.972656 C 112.113281 71.972656 115.40625 68.679688 115.40625 64.617188 C 115.40625 60.554688 112.113281 57.261719 108.050781 57.261719 Z M 108.050781 57.261719 " fill-opacity="1" fill-rule="nonzero"/></g><g clip-path="url(#714f3647c3)"><path fill="#141c44" d="M 185.203125 18.777344 C 185.203125 13.414062 180.980469 9.046875 175.675781 8.789062 C 173.964844 3.6875 169.148438 0 163.476562 0 C 156.785156 0 151.289062 5.105469 150.660156 11.628906 C 150.640625 11.628906 150.617188 11.625 150.601562 11.625 C 145.855469 11.625 142.011719 15.472656 142.011719 20.207031 C 142.011719 24.949219 145.855469 28.792969 150.597656 28.792969 L 175.550781 28.792969 L 175.550781 28.773438 C 180.910156 28.582031 185.203125 24.1875 185.203125 18.777344 Z M 185.203125 18.777344 " fill-opacity="1" fill-rule="nonzero"/></g><g clip-path="url(#a04ebcd8f6)"><path fill="#141c44" d="M 212.515625 52.398438 C 212.480469 52.398438 212.445312 52.398438 212.410156 52.402344 C 212.410156 52.359375 212.414062 52.320312 212.414062 52.277344 C 212.414062 50.523438 210.992188 49.105469 209.238281 49.105469 C 208.835938 49.105469 208.453125 49.179688 208.097656 49.316406 C 207.210938 47.230469 205.144531 45.765625 202.734375 45.765625 C 200.65625 45.765625 198.832031 46.855469 197.800781 48.496094 C 197.433594 48.394531 197.042969 48.335938 196.640625 48.335938 C 194.253906 48.335938 192.320312 50.273438 192.320312 52.65625 C 192.320312 53.128906 192.398438 53.585938 192.539062 54.011719 C 191.992188 54.523438 191.648438 55.25 191.648438 56.058594 C 191.648438 57.492188 192.730469 58.671875 194.121094 58.832031 L 194.121094 58.851562 L 194.171875 58.839844 L 194.21875 58.839844 C 194.292969 58.847656 194.367188 58.851562 194.441406 58.851562 C 194.515625 58.851562 194.589844 58.847656 194.664062 58.839844 L 212.304688 58.839844 C 212.375 58.84375 212.445312 58.847656 212.515625 58.847656 C 214.296875 58.847656 215.742188 57.40625 215.742188 55.625 C 215.742188 53.84375 214.296875 52.398438 212.515625 52.398438 Z M 212.515625 52.398438 " fill-opacity="1" fill-rule="nonzero"/></g><g clip-path="url(#2a0d94f400)"><path fill="#141c44" d="M 66.175781 101.359375 C 66.59375 100.410156 66.824219 99.359375 66.824219 98.253906 C 66.824219 96.035156 65.890625 94.03125 64.390625 92.621094 C 64.953125 91.6875 65.277344 90.597656 65.277344 89.429688 C 65.277344 86.007812 62.503906 83.234375 59.082031 83.234375 C 58.929688 83.234375 58.777344 83.242188 58.628906 83.253906 C 57.746094 77.628906 52.878906 73.324219 47.003906 73.324219 C 46.738281 73.324219 46.476562 73.335938 46.210938 73.355469 C 45.3125 72.117188 43.851562 71.3125 42.207031 71.3125 C 39.46875 71.3125 37.25 73.53125 37.25 76.265625 C 37.25 76.4375 37.257812 76.609375 37.277344 76.777344 C 32.84375 79.109375 29.816406 83.761719 29.816406 89.117188 C 29.816406 89.332031 29.824219 89.546875 29.832031 89.761719 C 28.304688 91.121094 27.339844 93.105469 27.339844 95.3125 C 27.339844 95.464844 27.347656 95.617188 27.355469 95.769531 C 25.6875 96.652344 24.554688 98.402344 24.554688 100.421875 C 24.554688 101.066406 24.671875 101.683594 24.882812 102.253906 C 23.449219 103.5 22.539062 105.339844 22.539062 107.390625 C 22.539062 111.152344 25.589844 114.203125 29.355469 114.203125 C 30.578125 114.203125 31.730469 113.878906 32.722656 113.308594 C 33.855469 115.234375 35.941406 116.527344 38.335938 116.527344 C 40.207031 116.527344 41.894531 115.734375 43.082031 114.46875 C 44.519531 114.898438 46.042969 115.132812 47.625 115.132812 C 50.191406 115.132812 52.617188 114.519531 54.757812 113.429688 C 55.734375 114.203125 56.96875 114.667969 58.308594 114.667969 C 59.738281 114.667969 61.042969 114.144531 62.046875 113.277344 C 62.488281 113.375 62.949219 113.429688 63.417969 113.429688 C 66.925781 113.429688 69.769531 110.585938 69.769531 107.078125 C 69.765625 104.5625 68.300781 102.386719 66.175781 101.359375 Z M 66.175781 101.359375 " fill-opacity="1" fill-rule="nonzero"/></g><g clip-path="url(#4efd921638)"><path fill="#141c44" d="M 48.617188 110.363281 L 61.601562 102.816406 C 61.601562 102.816406 51.621094 104.96875 48.183594 105.804688 C 47.828125 102.070312 47.464844 98.3125 47.128906 94.894531 L 54.839844 87.902344 L 46.785156 91.390625 C 46.195312 85.363281 45.765625 81.066406 45.765625 81.066406 C 45.765625 81.066406 45.117188 88.269531 44.316406 97.113281 L 32.785156 95.421875 L 43.855469 102.226562 C 42.957031 112.164062 41.992188 122.789062 41.585938 127.210938 C 41.390625 129.332031 50.257812 129.179688 50.101562 127.054688 C 49.867188 123.84375 49.285156 117.417969 48.617188 110.363281 Z M 48.617188 110.363281 " fill-opacity="1" fill-rule="nonzero"/></g><path fill="#141c44" d="M 46.605469 31.449219 C 46.605469 32.160156 46.535156 32.867188 46.394531 33.5625 C 46.253906 34.261719 46.042969 34.9375 45.769531 35.59375 C 45.492188 36.253906 45.152344 36.878906 44.75 37.46875 C 44.347656 38.0625 43.894531 38.609375 43.382812 39.109375 C 42.871094 39.613281 42.316406 40.0625 41.714844 40.457031 C 41.113281 40.855469 40.480469 41.1875 39.8125 41.460938 C 39.144531 41.730469 38.457031 41.9375 37.746094 42.078125 C 37.039062 42.214844 36.320312 42.285156 35.597656 42.285156 C 34.875 42.285156 34.160156 42.214844 33.453125 42.078125 C 32.742188 41.9375 32.054688 41.730469 31.386719 41.460938 C 30.71875 41.1875 30.085938 40.855469 29.484375 40.457031 C 28.882812 40.0625 28.328125 39.613281 27.816406 39.109375 C 27.304688 38.609375 26.847656 38.0625 26.449219 37.46875 C 26.046875 36.878906 25.707031 36.253906 25.429688 35.59375 C 25.152344 34.9375 24.945312 34.261719 24.804688 33.5625 C 24.664062 32.867188 24.59375 32.160156 24.59375 31.449219 C 24.59375 30.738281 24.664062 30.03125 24.804688 29.335938 C 24.945312 28.636719 25.152344 27.960938 25.429688 27.300781 C 25.707031 26.644531 26.046875 26.019531 26.449219 25.429688 C 26.847656 24.835938 27.304688 24.289062 27.816406 23.789062 C 28.328125 23.285156 28.882812 22.835938 29.484375 22.441406 C 30.085938 22.042969 30.71875 21.710938 31.386719 21.4375 C 32.054688 21.167969 32.742188 20.960938 33.453125 20.820312 C 34.160156 20.683594 34.875 20.613281 35.597656 20.613281 C 36.320312 20.613281 37.039062 20.683594 37.746094 20.820312 C 38.457031 20.960938 39.144531 21.167969 39.8125 21.4375 C 40.480469 21.710938 41.113281 22.042969 41.714844 22.441406 C 42.316406 22.835938 42.871094 23.285156 43.382812 23.789062 C 43.894531 24.289062 44.347656 24.835938 44.75 25.429688 C 45.152344 26.019531 45.492188 26.644531 45.769531 27.300781 C 46.042969 27.960938 46.253906 28.636719 46.394531 29.335938 C 46.535156 30.03125 46.605469 30.738281 46.605469 31.449219 Z M 46.605469 31.449219 " fill-opacity="1" fill-rule="nonzero"/><g clip-path="url(#eff75acee0)"><path fill="#141c44" d="M 35.597656 17.925781 C 35.277344 17.925781 35.027344 17.675781 35.027344 17.355469 L 35.027344 11.160156 C 35.027344 10.839844 35.277344 10.589844 35.597656 10.589844 C 35.917969 10.589844 36.171875 10.839844 36.171875 11.160156 L 36.171875 17.355469 C 36.171875 17.664062 35.90625 17.925781 35.597656 17.925781 Z M 36.171875 51.738281 L 36.171875 45.542969 C 36.171875 45.222656 35.917969 44.96875 35.597656 44.96875 C 35.277344 44.96875 35.027344 45.222656 35.027344 45.542969 L 35.027344 51.738281 C 35.027344 52.058594 35.277344 52.308594 35.597656 52.308594 C 35.917969 52.308594 36.171875 52.058594 36.171875 51.738281 Z M 21.835938 31.449219 C 21.835938 31.128906 21.585938 30.878906 21.265625 30.878906 L 14.980469 30.878906 C 14.660156 30.878906 14.410156 31.128906 14.410156 31.449219 C 14.410156 31.769531 14.660156 32.019531 14.980469 32.019531 L 21.265625 32.019531 C 21.585938 32.019531 21.835938 31.769531 21.835938 31.449219 Z M 56.789062 31.449219 C 56.789062 31.128906 56.539062 30.878906 56.21875 30.878906 L 49.933594 30.878906 C 49.613281 30.878906 49.359375 31.128906 49.359375 31.449219 C 49.359375 31.769531 49.613281 32.019531 49.933594 32.019531 L 56.21875 32.019531 C 56.539062 32.019531 56.789062 31.769531 56.789062 31.449219 Z M 25.871094 21.882812 C 26.089844 21.652344 26.089844 21.300781 25.859375 21.070312 L 21.414062 16.691406 C 21.1875 16.476562 20.832031 16.476562 20.601562 16.703125 C 20.386719 16.933594 20.386719 17.289062 20.613281 17.515625 L 25.0625 21.894531 C 25.175781 22.007812 25.3125 22.054688 25.460938 22.054688 C 25.609375 22.054688 25.757812 21.996094 25.871094 21.882812 Z M 50.582031 46.203125 C 50.800781 45.976562 50.800781 45.621094 50.570312 45.394531 L 46.125 41.015625 C 45.898438 40.796875 45.542969 40.796875 45.316406 41.027344 C 45.097656 41.257812 45.097656 41.609375 45.324219 41.839844 L 49.773438 46.214844 C 49.886719 46.332031 50.023438 46.375 50.171875 46.375 C 50.320312 46.375 50.46875 46.320312 50.582031 46.203125 Z M 21.414062 46.203125 L 25.859375 41.828125 C 26.089844 41.609375 26.089844 41.246094 25.871094 41.015625 C 25.65625 40.789062 25.289062 40.789062 25.0625 41.003906 L 20.613281 45.394531 C 20.386719 45.609375 20.386719 45.976562 20.601562 46.203125 C 20.71875 46.320312 20.867188 46.375 21.015625 46.375 C 21.164062 46.375 21.300781 46.320312 21.414062 46.203125 Z M 46.125 21.894531 L 50.570312 17.515625 C 50.800781 17.300781 50.800781 16.933594 50.582031 16.703125 C 50.367188 16.476562 50 16.476562 49.773438 16.691406 L 45.324219 21.070312 C 45.097656 21.289062 45.097656 21.652344 45.316406 21.882812 C 45.429688 21.996094 45.578125 22.054688 45.726562 22.054688 C 45.875 22.054688 46.023438 21.996094 46.125 21.894531 Z M 30.320312 18.921875 C 30.605469 18.796875 30.742188 18.464844 30.628906 18.179688 L 29.507812 15.515625 C 29.382812 15.230469 29.050781 15.09375 28.753906 15.207031 C 28.46875 15.332031 28.328125 15.664062 28.445312 15.949219 L 29.5625 18.613281 C 29.65625 18.832031 29.871094 18.96875 30.089844 18.96875 C 30.179688 18.96875 30.25 18.957031 30.320312 18.921875 Z M 42.433594 47.703125 C 42.71875 47.578125 42.855469 47.246094 42.742188 46.960938 L 41.621094 44.296875 C 41.496094 44.011719 41.164062 43.875 40.867188 43.988281 C 40.582031 44.113281 40.445312 44.445312 40.558594 44.730469 L 41.679688 47.394531 C 41.769531 47.609375 41.988281 47.746094 42.207031 47.746094 C 42.285156 47.746094 42.367188 47.726562 42.433594 47.703125 Z M 19.835938 38.488281 L 22.546875 37.382812 C 22.84375 37.265625 22.980469 36.925781 22.855469 36.636719 C 22.742188 36.339844 22.398438 36.203125 22.113281 36.328125 L 19.402344 37.4375 C 19.105469 37.550781 18.96875 37.894531 19.09375 38.179688 C 19.1875 38.398438 19.402344 38.535156 19.621094 38.535156 C 19.6875 38.535156 19.769531 38.523438 19.835938 38.488281 Z M 49.074219 26.578125 L 51.785156 25.472656 C 52.082031 25.355469 52.21875 25.015625 52.09375 24.726562 C 51.976562 24.429688 51.636719 24.292969 51.347656 24.417969 L 48.640625 25.527344 C 48.34375 25.644531 48.207031 25.984375 48.332031 26.269531 C 48.421875 26.488281 48.640625 26.625 48.859375 26.625 C 48.9375 26.613281 49.007812 26.601562 49.074219 26.578125 Z M 41.621094 18.625 L 42.742188 15.960938 C 42.867188 15.675781 42.730469 15.332031 42.433594 15.21875 C 42.136719 15.09375 41.804688 15.230469 41.679688 15.527344 L 40.558594 18.191406 C 40.433594 18.476562 40.570312 18.820312 40.867188 18.933594 C 40.9375 18.96875 41.015625 18.980469 41.085938 18.980469 C 41.3125 18.96875 41.53125 18.84375 41.621094 18.625 Z M 29.507812 47.394531 L 30.628906 44.730469 C 30.753906 44.445312 30.617188 44.101562 30.320312 43.988281 C 30.019531 43.863281 29.691406 44 29.5625 44.296875 L 28.445312 46.960938 C 28.320312 47.246094 28.457031 47.589844 28.753906 47.703125 C 28.820312 47.738281 28.902344 47.746094 28.96875 47.746094 C 29.199219 47.746094 29.414062 47.609375 29.507812 47.394531 Z M 22.867188 26.261719 C 22.980469 25.960938 22.84375 25.632812 22.558594 25.515625 L 19.847656 24.410156 C 19.550781 24.292969 19.21875 24.429688 19.105469 24.71875 C 18.992188 25.015625 19.128906 25.34375 19.414062 25.460938 L 22.125 26.570312 C 22.191406 26.601562 22.273438 26.613281 22.339844 26.613281 C 22.558594 26.613281 22.773438 26.476562 22.867188 26.261719 Z M 52.105469 38.179688 C 52.21875 37.882812 52.082031 37.550781 51.796875 37.4375 L 49.074219 36.328125 C 48.777344 36.214844 48.445312 36.351562 48.332031 36.636719 C 48.21875 36.933594 48.355469 37.265625 48.640625 37.382812 L 51.347656 38.488281 C 51.417969 38.523438 51.5 38.535156 51.566406 38.535156 C 51.796875 38.535156 52.011719 38.398438 52.105469 38.179688 Z M 52.105469 38.179688 " fill-opacity="1" fill-rule="nonzero"/></g></svg>