<svg xmlns="http://www.w3.org/2000/svg" xmlns:xlink="http://www.w3.org/1999/xlink" width="1080" zoomAndPan="magnify" viewBox="0 0 810 1012.49997" height="1350" preserveAspectRatio="xMidYMid meet" version="1.0"><defs><clipPath id="0dc96feddd"><path d="M 81.160156 135.898438 L 728.839844 135.898438 L 728.839844 320 L 81.160156 320 Z M 81.160156 135.898438 " clip-rule="nonzero"/></clipPath><clipPath id="848d1b486d"><path d="M 127 367 L 684 367 L 684 875.78125 L 127 875.78125 Z M 127 367 " clip-rule="nonzero"/></clipPath></defs><g clip-path="url(#0dc96feddd)"><path fill="#f56d44" d="M 705.707031 226.6875 L 543.789062 226.6875 L 543.789062 159.027344 C 543.789062 146.304688 533.378906 135.898438 520.65625 135.898438 L 289.34375 135.898438 C 276.621094 135.898438 266.210938 146.304688 266.210938 159.027344 L 266.210938 226.6875 L 104.292969 226.6875 C 91.570312 226.6875 81.164062 237.097656 81.164062 249.820312 L 81.164062 296.082031 C 81.164062 308.804688 91.570312 319.210938 104.292969 319.210938 L 705.707031 319.210938 C 718.429688 319.210938 728.835938 308.804688 728.835938 296.082031 L 728.835938 249.820312 C 728.835938 237.097656 718.429688 226.6875 705.707031 226.6875 Z M 705.707031 226.6875 " fill-opacity="1" fill-rule="nonzero"/></g><g clip-path="url(#848d1b486d)"><path fill="#f56d44" d="M 182.941406 855.859375 C 184.097656 867.421875 193.925781 876.097656 206.070312 876.097656 L 604.507812 876.097656 C 616.074219 876.097656 625.902344 867.421875 627.636719 855.859375 L 683.152344 367.789062 L 127.425781 367.789062 Z M 497.523438 780.679688 L 538.003906 457.421875 C 539.738281 444.699219 551.304688 436.027344 564.027344 437.183594 C 576.75 438.917969 585.425781 450.484375 584.265625 463.203125 L 543.789062 786.464844 C 542.054688 798.03125 532.222656 806.703125 520.65625 806.703125 C 519.5 806.703125 518.921875 806.703125 517.765625 806.703125 C 505.042969 804.96875 496.367188 793.402344 497.523438 780.679688 Z M 381.867188 460.3125 C 381.867188 447.589844 392.277344 437.183594 405 437.183594 C 417.722656 437.183594 428.132812 447.589844 428.132812 460.3125 L 428.132812 783.574219 C 428.132812 796.296875 417.722656 806.703125 405 806.703125 C 392.277344 806.703125 381.867188 796.296875 381.867188 783.574219 Z M 245.972656 437.183594 C 258.695312 435.445312 270.261719 444.699219 271.996094 457.421875 L 312.476562 780.679688 C 314.210938 793.402344 304.957031 804.96875 292.234375 806.703125 C 291.078125 806.703125 290.5 806.703125 289.34375 806.703125 C 277.777344 806.703125 267.945312 798.03125 266.210938 786.464844 L 225.734375 463.203125 C 224.574219 450.484375 233.25 438.917969 245.972656 437.183594 Z M 245.972656 437.183594 " fill-opacity="1" fill-rule="nonzero"/></g><path fill="#f56d44" d="M 451.035156 199.898438 C 451.035156 225.324219 430.425781 245.9375 404.996094 245.9375 C 379.570312 245.9375 358.960938 225.324219 358.960938 199.898438 C 358.960938 174.472656 379.570312 153.863281 404.996094 153.863281 C 430.425781 153.863281 451.035156 174.472656 451.035156 199.898438 Z M 451.035156 199.898438 " fill-opacity="1" fill-rule="nonzero"/><path fill="#f56d44" d="M 406.363281 215.769531 C 406.363281 215.769531 418.535156 215.769531 418.535156 215.769531 C 421.34375 215.769531 422.855469 217.644531 422.855469 219.445312 C 422.855469 221.246094 421.484375 223.046875 418.605469 223.046875 C 418.605469 223.046875 391.886719 223.046875 391.886719 223.046875 C 389.367188 222.832031 387.710938 221.03125 387.710938 219.011719 C 387.710938 218.003906 388.285156 216.851562 389.367188 215.988281 C 389.367188 215.988281 409.460938 200.210938 409.460938 200.210938 C 412.484375 198.050781 414.210938 194.375 413.636719 190.773438 C 413.058594 185.949219 409.386719 183.644531 405.066406 183.644531 C 400.746094 183.644531 397.289062 186.164062 396.425781 190.34375 C 396.136719 192.574219 394.335938 193.65625 392.464844 193.65625 C 390.300781 193.65625 388.070312 192.070312 388.359375 189.332031 C 389.511719 180.402344 396.425781 176.4375 405.066406 176.4375 C 413.277344 176.4375 420.835938 181.335938 421.703125 189.765625 C 422.496094 196.679688 419.398438 201.867188 414.570312 205.6875 C 414.570312 205.6875 401.320312 215.988281 401.320312 215.988281 C 401.320312 215.988281 406.363281 215.769531 406.363281 215.769531 Z M 406.363281 215.769531 " fill-opacity="1" fill-rule="nonzero"/></svg>