<?xml version="1.0" encoding="utf-8"?>
<svg version="1.1" xmlns:xlink="http://www.w3.org/1999/xlink" width="22px" height="33px" xmlns="http://www.w3.org/2000/svg">
  <g transform="matrix(1 0 0 1 -298 -246 )">
    <path d="M 14.888671875 14.888671875  C 15.962890625 13.814453124999961  16.5 12.518229166666668  16.5 11.000000000000039  C 16.5 9.481770833333254  15.962890625 8.185546875  14.888671875 7.11132812499996  C 13.814453125 6.03710937500004  12.518229166666673 5.49999999999996  11 5.49999999999996  C 9.481770833333327 5.49999999999996  8.185546875 6.03710937500004  7.111328125 7.11132812499996  C 6.037109375 8.185546875  5.5 9.481770833333254  5.5 11.000000000000039  C 5.5 12.518229166666668  6.037109375 13.814453124999961  7.111328125 14.888671875  C 8.185546875 15.962890625000039  9.481770833333327 16.5  11 16.5  C 12.518229166666673 16.5  13.814453125 15.962890625000039  14.888671875 14.888671875  Z M 18.77734375 3.22265625  C 20.92578125 5.37109374999996  22 7.963541666666627  22 11.000000000000039  C 22 12.561197916666746  21.763671875 13.843098958333332  21.291015625 14.845703124999961  C 21.092126686973504 15.267588751116786  19.68174815985376 18.5488977538802  17.668479584676227 22.208496854503707  C 14.89724890902339 27.24587408935433  11.298655249425629 33  11 33  C 10.708393862103273 33  7.103194658101475 27.193628443483124  4.331461916482867 22.148346507814022  C 2.202150032616912 18.27243934628849  0.708984375 14.845703124999961  0.708984375 14.845703124999961  C 0.236328125 13.843098958333332  0 12.561197916666746  0 11.000000000000039  C 0 7.963541666666627  1.07421875 5.37109374999996  3.22265625 3.22265625  C 5.37109375 1.0742187500000397  7.963541666666673 0  11 0  C 14.036458333333327 0  16.62890625 1.0742187500000397  18.77734375 3.22265625  Z " fill-rule="nonzero" fill="#f56d44" stroke="none" transform="matrix(1 0 0 1 298 246 )" />
  </g>
</svg>