<?xml version="1.0" encoding="utf-8"?>
<svg version="1.1" xmlns:xlink="http://www.w3.org/1999/xlink" width="60px" height="39px" xmlns="http://www.w3.org/2000/svg">
  <g transform="matrix(1 0 0 1 -525 -137 )">
    <path d="M 28.749999999999996 22.572265625000004  L 13.802083333333332 17.9765625  L 13.333333333333332 26.000000000000004  C 13.263888888888886 27.167968749999996  13.975694444444443 28.251302083333325  15.46875 29.25  C 16.96180555555555 30.248697916666664  19.001736111111104 31.0400390625  21.588541666666668 31.6240234375  C 24.17534722222222 32.2080078125  26.979166666666668 32.5  30 32.5  C 33.020833333333336 32.5  35.82465277777778 32.2080078125  38.411458333333336 31.6240234375  C 40.998263888888886 31.0400390625  43.03819444444444 30.248697916666664  44.53125 29.25  C 46.02430555555555 28.251302083333325  46.73611111111111 27.167968749999996  46.666666666666664 26.000000000000004  L 46.197916666666664 17.9765625  L 31.249999999999996 22.572265625000004  C 30.868055555555554 22.690755208333336  30.45138888888889 22.749999999999996  30 22.749999999999996  C 29.548611111111104 22.749999999999996  29.13194444444444 22.690755208333336  28.749999999999996 22.572265625000004  Z M 0.5729166666666696 8.962890625000002  C 0.19097222222221433 9.098307291666663  0 9.36067708333333  0 9.75  C 0 10.139322916666664  0.19097222222221433 10.401692708333329  0.5729166666666696 10.537109374999998  L 29.739583333333332 19.474609375  C 29.80902777777777 19.491536458333332  29.89583333333333 19.5  30 19.5  C 30.10416666666667 19.5  30.19097222222222 19.491536458333332  30.260416666666668 19.474609375  L 47.23958333333333 14.244140625  C 47.98611111111111 14.819661458333329  48.60243055555555 15.763346354166663  49.08854166666667 17.0751953125  C 49.57465277777777 18.387044270833332  49.869791666666664 19.89778645833333  49.973958333333336 21.607421874999996  C 48.88020833333333 22.216796874999996  48.333333333333336 23.13932291666666  48.333333333333336 24.375  C 48.333333333333336 25.542968750000004  48.83680555555556 26.44856770833333  49.84375 27.091796874999996  L 48.333333333333336 38.0859375  C 48.298611111111114 38.322916666666664  48.36805555555555 38.534505208333336  48.541666666666664 38.720703125  C 48.697916666666664 38.906901041666664  48.90625 39  49.166666666666664 39  L 54.166666666666664 39  C 54.427083333333336 39  54.635416666666664 38.906901041666664  54.791666666666664 38.720703125  C 54.96527777777778 38.534505208333336  55.03472222222222 38.322916666666664  55 38.0859375  L 53.489583333333336 27.091796874999996  C 54.49652777777778 26.44856770833333  55 25.542968750000004  55 24.375  C 55 23.13932291666666  54.43576388888889 22.199869791666668  53.30729166666667 21.556640625  C 53.11631944444444 18.052734375  52.265625 15.259765624999998  50.75520833333333 13.177734375  L 59.42708333333333 10.537109374999998  C 59.80902777777778 10.401692708333329  60 10.139322916666664  60 9.75  C 60 9.36067708333333  59.80902777777778 9.098307291666663  59.42708333333333 8.962890625000002  L 30.260416666666668 0.025390624999998557  C 30.19097222222222 0.008463541666664742  30.10416666666667 0  30 0  C 29.89583333333333 0  29.80902777777777 0.008463541666664742  29.739583333333332 0.025390624999998557  L 0.5729166666666696 8.962890625000002  Z " fill-rule="nonzero" fill="#77b6ea" stroke="none" transform="matrix(1 0 0 1 525 137 )" />
  </g>
</svg>