<svg xmlns="http://www.w3.org/2000/svg" xmlns:xlink="http://www.w3.org/1999/xlink" width="100" zoomAndPan="magnify" viewBox="0 0 75 74.999997" height="100" preserveAspectRatio="xMidYMid meet" version="1.0"><path fill="#ffffff" d="M 62.546875 47.332031 C 58.472656 42.59375 51.996094 35.09375 47.929688 40.128906 C 44.5625 44.285156 43.199219 45.460938 43.199219 45.460938 C 43.199219 45.460938 39.328125 45.460938 34.214844 39.988281 C 29.101562 34.519531 28.753906 30.984375 28.753906 30.984375 C 34.214844 26.710938 36.5625 23.976562 33.660156 19.773438 C 30.757812 15.570312 25.367188 7.503906 16.871094 12.640625 C 8.371094 17.777344 9.132812 29.984375 12.445312 36.421875 C 15.761719 42.863281 26.0625 55.46875 38.605469 61.476562 C 51.144531 67.480469 56.742188 63.410156 60.199219 60.277344 C 63.65625 57.148438 66.625 52.070312 62.546875 47.332031 Z M 57.789062 57.621094 C 55.917969 59.316406 53.777344 60.976562 50.03125 60.976562 C 47.265625 60.976562 43.941406 60.058594 40.152344 58.242188 C 28.894531 52.851562 18.863281 41.058594 15.632812 34.78125 C 12.867188 29.417969 12.378906 19.539062 18.722656 15.707031 C 19.972656 14.945312 21.144531 14.566406 22.203125 14.566406 C 25.710938 14.566406 28.640625 18.8125 30.585938 21.625 L 30.714844 21.816406 C 31.636719 23.152344 32.101562 23.820312 26.550781 28.164062 C 26.066406 28.542969 25.703125 29.011719 25.460938 29.574219 C 25.222656 30.136719 25.128906 30.726562 25.191406 31.335938 C 25.265625 32.128906 25.941406 36.386719 31.597656 42.433594 C 37.472656 48.722656 42.292969 49.039062 43.199219 49.039062 C 44.085938 49.039062 44.867188 48.75 45.539062 48.171875 C 45.808594 47.9375 47.320312 46.570312 50.714844 42.371094 C 50.816406 42.246094 51.007812 42.03125 51.121094 42.03125 C 53.265625 42.03125 58.039062 47.574219 59.828125 49.660156 C 62.269531 52.5 60.0625 55.554688 57.789062 57.621094 Z M 57.789062 57.621094 " fill-opacity="1" fill-rule="nonzero"/></svg>