<svg xmlns="http://www.w3.org/2000/svg" xmlns:xlink="http://www.w3.org/1999/xlink" width="100" zoomAndPan="magnify" viewBox="0 0 75 74.999997" height="100" preserveAspectRatio="xMidYMid meet" version="1.0"><defs><clipPath id="4910de954e"><path d="M 7.601562 7.5 L 67.601562 7.5 L 67.601562 67.5 L 7.601562 67.5 Z M 7.601562 7.5 " clip-rule="nonzero"/></clipPath></defs><g clip-path="url(#4910de954e)"><path fill="#141c44" d="M 37.539062 7.539062 C 21.175781 7.539062 7.859375 20.859375 7.851562 37.226562 C 7.851562 42.457031 9.214844 47.5625 11.8125 52.0625 L 7.601562 67.449219 L 23.339844 63.320312 C 27.675781 65.683594 32.554688 66.929688 37.523438 66.933594 L 37.539062 66.933594 C 53.898438 66.933594 67.214844 53.617188 67.226562 37.246094 C 67.226562 29.316406 64.144531 21.855469 58.535156 16.246094 C 52.933594 10.636719 45.480469 7.542969 37.539062 7.539062 Z M 37.539062 61.921875 L 37.527344 61.921875 C 33.101562 61.921875 28.757812 60.730469 24.96875 58.484375 L 24.070312 57.949219 L 14.730469 60.398438 L 17.222656 51.292969 L 16.636719 50.359375 C 14.164062 46.433594 12.863281 41.890625 12.863281 37.226562 C 12.871094 23.621094 23.9375 12.554688 37.550781 12.554688 C 44.140625 12.554688 50.335938 15.125 54.992188 19.789062 C 59.652344 24.453125 62.214844 30.652344 62.214844 37.246094 C 62.207031 50.851562 51.140625 61.921875 37.539062 61.921875 Z M 51.074219 43.441406 C 50.332031 43.070312 46.683594 41.277344 46.003906 41.03125 C 45.320312 40.78125 44.828125 40.65625 44.332031 41.402344 C 43.835938 42.144531 42.417969 43.816406 41.984375 44.308594 C 41.554688 44.808594 41.117188 44.867188 40.378906 44.496094 C 39.636719 44.125 37.246094 43.34375 34.414062 40.8125 C 32.207031 38.847656 30.71875 36.417969 30.289062 35.671875 C 29.855469 34.929688 30.242188 34.53125 30.613281 34.160156 C 30.945312 33.828125 31.355469 33.292969 31.726562 32.859375 C 32.09375 32.425781 32.21875 32.117188 32.46875 31.621094 C 32.714844 31.125 32.589844 30.691406 32.40625 30.320312 C 32.222656 29.949219 30.738281 26.296875 30.121094 24.8125 C 29.519531 23.367188 28.90625 23.558594 28.449219 23.539062 C 28.019531 23.515625 27.523438 23.511719 27.027344 23.511719 C 26.535156 23.511719 25.730469 23.695312 25.050781 24.4375 C 24.367188 25.179688 22.453125 26.976562 22.453125 30.625 C 22.453125 34.273438 25.113281 37.804688 25.484375 38.300781 C 25.855469 38.792969 30.714844 46.289062 38.15625 49.5 C 39.925781 50.261719 41.304688 50.71875 42.382812 51.058594 C 44.160156 51.625 45.777344 51.546875 47.054688 51.351562 C 48.484375 51.140625 51.445312 49.558594 52.0625 47.824219 C 52.679688 46.09375 52.679688 44.609375 52.492188 44.296875 C 52.304688 43.988281 51.8125 43.804688 51.074219 43.429688 Z M 103.589844 42.992188 L 103.511719 42.992188 L 98.589844 23.132812 L 92.660156 23.132812 L 87.660156 42.746094 L 87.578125 42.746094 L 83.019531 23.132812 L 76.6875 23.132812 L 84.3125 51.949219 L 90.726562 51.949219 L 95.527344 32.332031 L 95.609375 32.332031 L 100.492188 51.949219 L 106.785156 51.949219 L 114.53125 23.132812 L 108.320312 23.132812 L 103.601562 42.992188 Z M 133.847656 32.878906 C 133.285156 32.140625 132.511719 31.5625 131.53125 31.144531 C 130.546875 30.730469 129.289062 30.523438 127.757812 30.523438 C 126.683594 30.523438 125.582031 30.796875 124.449219 31.347656 C 123.320312 31.898438 122.394531 32.78125 121.667969 33.992188 L 121.542969 33.992188 L 121.542969 23.132812 L 115.816406 23.132812 L 115.816406 51.949219 L 121.542969 51.949219 L 121.542969 41.011719 C 121.542969 38.886719 121.894531 37.359375 122.59375 36.429688 C 123.292969 35.503906 124.425781 35.039062 125.984375 35.039062 C 127.355469 35.039062 128.308594 35.464844 128.851562 36.3125 C 129.386719 37.15625 129.65625 38.445312 129.65625 40.164062 L 129.65625 51.949219 L 135.386719 51.949219 L 135.386719 39.117188 C 135.386719 37.824219 135.269531 36.648438 135.039062 35.585938 C 134.8125 34.527344 134.414062 33.621094 133.847656 32.882812 Z M 157.449219 47.304688 L 157.449219 36.453125 C 157.449219 35.183594 157.167969 34.171875 156.601562 33.40625 C 156.035156 32.636719 155.3125 32.039062 154.421875 31.609375 C 153.535156 31.179688 152.550781 30.886719 151.476562 30.742188 C 150.402344 30.59375 149.339844 30.519531 148.292969 30.519531 C 147.136719 30.519531 145.984375 30.632812 144.84375 30.863281 C 143.699219 31.09375 142.671875 31.476562 141.753906 32.015625 C 140.84375 32.550781 140.085938 33.265625 139.5 34.152344 C 138.90625 35.042969 138.566406 36.15625 138.488281 37.503906 L 144.21875 37.503906 C 144.324219 36.375 144.703125 35.5625 145.347656 35.082031 C 145.992188 34.597656 146.878906 34.355469 148.011719 34.355469 C 148.519531 34.355469 148.996094 34.386719 149.441406 34.457031 C 149.886719 34.523438 150.277344 34.652344 150.613281 34.859375 C 150.949219 35.058594 151.21875 35.34375 151.417969 35.707031 C 151.621094 36.070312 151.722656 36.5625 151.722656 37.179688 C 151.75 37.773438 151.570312 38.222656 151.195312 38.53125 C 150.816406 38.84375 150.308594 39.078125 149.664062 39.238281 C 149.019531 39.398438 148.277344 39.523438 147.441406 39.601562 C 146.609375 39.683594 145.757812 39.792969 144.902344 39.925781 C 144.039062 40.058594 143.183594 40.238281 142.339844 40.46875 C 141.492188 40.695312 140.734375 41.042969 140.078125 41.496094 C 139.417969 41.957031 138.882812 42.566406 138.464844 43.332031 C 138.046875 44.097656 137.835938 45.078125 137.835938 46.257812 C 137.835938 47.332031 138.019531 48.261719 138.382812 49.039062 C 138.746094 49.824219 139.25 50.46875 139.894531 50.980469 C 140.539062 51.492188 141.292969 51.867188 142.152344 52.109375 C 143.011719 52.351562 143.941406 52.472656 144.933594 52.472656 C 146.226562 52.472656 147.492188 52.285156 148.726562 51.910156 C 149.964844 51.53125 151.042969 50.875 151.957031 49.929688 C 151.984375 50.28125 152.027344 50.621094 152.097656 50.957031 C 152.164062 51.292969 152.253906 51.625 152.359375 51.945312 L 158.167969 51.945312 C 157.898438 51.515625 157.710938 50.871094 157.601562 50.007812 C 157.492188 49.148438 157.441406 48.25 157.441406 47.304688 Z M 151.722656 43.875 C 151.722656 44.203125 151.6875 44.632812 151.621094 45.167969 C 151.554688 45.707031 151.371094 46.238281 151.078125 46.761719 C 150.78125 47.289062 150.320312 47.738281 149.707031 48.117188 C 149.089844 48.492188 148.210938 48.679688 147.082031 48.679688 C 146.625 48.679688 146.179688 48.640625 145.75 48.558594 C 145.320312 48.480469 144.945312 48.335938 144.621094 48.132812 C 144.296875 47.933594 144.042969 47.65625 143.855469 47.304688 C 143.667969 46.953125 143.570312 46.527344 143.570312 46.015625 C 143.570312 45.480469 143.664062 45.035156 143.855469 44.6875 C 144.042969 44.335938 144.289062 44.046875 144.601562 43.820312 C 144.910156 43.589844 145.273438 43.410156 145.6875 43.273438 C 146.105469 43.140625 146.527344 43.035156 146.960938 42.953125 C 147.417969 42.871094 147.875 42.800781 148.332031 42.75 C 148.796875 42.699219 149.230469 42.628906 149.648438 42.546875 C 150.066406 42.464844 150.453125 42.363281 150.820312 42.246094 C 151.183594 42.125 151.484375 41.957031 151.726562 41.742188 L 151.726562 43.878906 Z M 168.140625 24.828125 L 162.414062 24.828125 L 162.414062 31.082031 L 158.941406 31.082031 L 158.941406 34.917969 L 162.414062 34.917969 L 162.414062 47.226562 C 162.414062 48.277344 162.589844 49.125 162.9375 49.769531 C 163.289062 50.410156 163.765625 50.914062 164.371094 51.261719 C 164.976562 51.613281 165.675781 51.84375 166.472656 51.964844 C 167.261719 52.085938 168.105469 52.148438 168.992188 52.148438 C 169.5625 52.148438 170.136719 52.132812 170.730469 52.109375 C 171.320312 52.082031 171.859375 52.03125 172.34375 51.949219 L 172.34375 47.507812 C 172.070312 47.5625 171.792969 47.605469 171.496094 47.628906 C 171.199219 47.65625 170.890625 47.671875 170.570312 47.671875 C 169.605469 47.671875 168.957031 47.511719 168.632812 47.1875 C 168.3125 46.863281 168.152344 46.21875 168.152344 45.246094 L 168.152344 34.917969 L 172.347656 34.917969 L 172.347656 31.082031 L 168.152344 31.082031 L 168.152344 24.828125 Z M 191.820312 42.8125 C 191.445312 42.152344 190.949219 41.597656 190.328125 41.15625 C 189.710938 40.710938 189.003906 40.355469 188.210938 40.082031 C 187.417969 39.816406 186.601562 39.589844 185.773438 39.398438 C 184.964844 39.210938 184.175781 39.035156 183.394531 38.875 C 182.609375 38.710938 181.921875 38.527344 181.3125 38.332031 C 180.707031 38.128906 180.21875 37.867188 179.84375 37.542969 C 179.464844 37.21875 179.28125 36.808594 179.28125 36.289062 C 179.28125 35.859375 179.382812 35.519531 179.601562 35.261719 C 179.8125 35.003906 180.078125 34.8125 180.386719 34.675781 C 180.699219 34.539062 181.039062 34.457031 181.414062 34.414062 C 181.789062 34.371094 182.140625 34.355469 182.460938 34.355469 C 183.484375 34.355469 184.375 34.550781 185.128906 34.9375 C 185.878906 35.328125 186.296875 36.074219 186.375 37.175781 L 191.824219 37.175781 C 191.71875 35.882812 191.386719 34.816406 190.835938 33.964844 C 190.285156 33.121094 189.59375 32.441406 188.757812 31.929688 C 187.925781 31.417969 186.976562 31.054688 185.914062 30.839844 C 184.851562 30.625 183.757812 30.515625 182.625 30.515625 C 181.496094 30.515625 180.390625 30.617188 179.320312 30.816406 C 178.242188 31.015625 177.273438 31.367188 176.414062 31.867188 C 175.554688 32.363281 174.859375 33.042969 174.335938 33.902344 C 173.808594 34.765625 173.546875 35.867188 173.546875 37.214844 C 173.546875 38.125 173.738281 38.902344 174.113281 39.535156 C 174.488281 40.167969 174.988281 40.6875 175.605469 41.105469 C 176.226562 41.523438 176.933594 41.859375 177.726562 42.113281 C 178.519531 42.375 179.332031 42.59375 180.164062 42.785156 C 182.210938 43.214844 183.804688 43.644531 184.949219 44.074219 C 186.089844 44.503906 186.660156 45.148438 186.660156 46.011719 C 186.660156 46.523438 186.542969 46.941406 186.296875 47.277344 C 186.054688 47.617188 185.753906 47.882812 185.390625 48.085938 C 185.027344 48.285156 184.621094 48.4375 184.179688 48.527344 C 183.734375 48.621094 183.308594 48.671875 182.90625 48.671875 C 182.339844 48.671875 181.796875 48.605469 181.269531 48.46875 C 180.746094 48.335938 180.28125 48.125 179.878906 47.84375 C 179.476562 47.558594 179.144531 47.199219 178.886719 46.753906 C 178.636719 46.3125 178.503906 45.777344 178.503906 45.160156 L 173.058594 45.160156 C 173.113281 46.558594 173.429688 47.722656 174.007812 48.648438 C 174.585938 49.578125 175.324219 50.324219 176.226562 50.890625 C 177.125 51.457031 178.15625 51.859375 179.3125 52.105469 C 180.46875 52.34375 181.648438 52.46875 182.859375 52.46875 C 184.066406 52.46875 185.207031 52.351562 186.347656 52.125 C 187.492188 51.894531 188.507812 51.5 189.394531 50.933594 C 190.28125 50.371094 191 49.625 191.554688 48.695312 C 192.101562 47.765625 192.378906 46.617188 192.378906 45.246094 C 192.378906 44.273438 192.191406 43.460938 191.8125 42.804688 Z M 203.199219 23.132812 L 192.308594 51.949219 L 198.679688 51.949219 L 200.9375 45.53125 L 211.710938 45.53125 L 213.890625 51.949219 L 220.46875 51.949219 L 209.695312 23.132812 Z M 202.597656 40.8125 L 206.347656 30.242188 L 206.425781 30.242188 L 210.058594 40.8125 L 202.59375 40.8125 Z M 240.277344 33.910156 C 239.496094 32.886719 238.511719 32.070312 237.332031 31.449219 C 236.148438 30.832031 234.738281 30.523438 233.097656 30.523438 C 231.808594 30.523438 230.625 30.777344 229.546875 31.289062 C 228.46875 31.800781 227.582031 32.621094 226.882812 33.75 L 226.800781 33.75 L 226.800781 31.082031 L 221.351562 31.082031 L 221.351562 59.253906 L 227.085938 59.253906 L 227.085938 49.363281 L 227.164062 49.363281 C 227.863281 50.386719 228.757812 51.160156 229.851562 51.683594 C 230.941406 52.207031 232.128906 52.46875 233.421875 52.46875 C 234.957031 52.46875 236.292969 52.171875 237.433594 51.582031 C 238.578125 50.988281 239.535156 50.195312 240.300781 49.199219 C 241.066406 48.203125 241.636719 47.0625 242.015625 45.769531 C 242.390625 44.476562 242.582031 43.132812 242.582031 41.734375 C 242.582031 40.25 242.390625 38.835938 242.015625 37.476562 C 241.636719 36.121094 241.058594 34.925781 240.277344 33.90625 Z M 236.605469 44.039062 C 236.441406 44.847656 236.164062 45.550781 235.777344 46.15625 C 235.386719 46.761719 234.875 47.257812 234.242188 47.628906 C 233.613281 48.003906 232.824219 48.199219 231.882812 48.199219 C 230.941406 48.199219 230.191406 48.007812 229.546875 47.628906 C 228.902344 47.253906 228.382812 46.761719 227.992188 46.15625 C 227.601562 45.554688 227.320312 44.847656 227.148438 44.039062 C 226.972656 43.230469 226.886719 42.410156 226.886719 41.578125 C 226.886719 40.75 226.964844 39.882812 227.125 39.078125 C 227.285156 38.273438 227.5625 37.558594 227.957031 36.9375 C 228.34375 36.320312 228.855469 35.816406 229.488281 35.425781 C 230.121094 35.035156 230.90625 34.835938 231.847656 34.835938 C 232.789062 34.835938 233.535156 35.035156 234.167969 35.425781 C 234.800781 35.8125 235.320312 36.324219 235.722656 36.960938 C 236.125 37.589844 236.414062 38.3125 236.589844 39.117188 C 236.765625 39.925781 236.847656 40.75 236.847656 41.582031 C 236.847656 42.417969 236.769531 43.238281 236.609375 44.042969 Z M 264.84375 37.480469 C 264.46875 36.125 263.886719 34.933594 263.109375 33.910156 C 262.332031 32.890625 261.351562 32.070312 260.164062 31.449219 C 258.980469 30.832031 257.566406 30.523438 255.925781 30.523438 C 254.636719 30.523438 253.453125 30.777344 252.378906 31.289062 C 251.304688 31.800781 250.414062 32.621094 249.714844 33.75 L 249.636719 33.75 L 249.636719 31.082031 L 244.1875 31.082031 L 244.1875 59.253906 L 249.917969 59.253906 L 249.917969 49.363281 L 250 49.363281 C 250.699219 50.386719 251.59375 51.160156 252.679688 51.683594 C 253.769531 52.207031 254.960938 52.46875 256.25 52.46875 C 257.785156 52.46875 259.117188 52.171875 260.261719 51.582031 C 261.40625 50.988281 262.363281 50.195312 263.128906 49.199219 C 263.898438 48.203125 264.464844 47.0625 264.839844 45.769531 C 265.21875 44.476562 265.40625 43.132812 265.40625 41.734375 C 265.40625 40.25 265.21875 38.835938 264.839844 37.476562 Z M 259.4375 44.039062 C 259.277344 44.847656 259 45.550781 258.609375 46.15625 C 258.21875 46.761719 257.710938 47.257812 257.078125 47.628906 C 256.445312 48.003906 255.660156 48.199219 254.71875 48.199219 C 253.773438 48.199219 253.023438 48.007812 252.375 47.628906 C 251.726562 47.253906 251.210938 46.761719 250.820312 46.15625 C 250.433594 45.554688 250.148438 44.847656 249.976562 44.039062 C 249.800781 43.230469 249.710938 42.410156 249.710938 41.578125 C 249.710938 40.75 249.792969 39.882812 249.957031 39.078125 C 250.117188 38.273438 250.394531 37.558594 250.785156 36.9375 C 251.171875 36.320312 251.683594 35.816406 252.316406 35.425781 C 252.945312 35.035156 253.734375 34.835938 254.679688 34.835938 C 255.621094 34.835938 256.363281 35.035156 256.996094 35.425781 C 257.628906 35.8125 258.148438 36.324219 258.550781 36.960938 C 258.953125 37.589844 259.242188 38.3125 259.417969 39.117188 C 259.59375 39.925781 259.679688 40.75 259.679688 41.582031 C 259.679688 42.417969 259.597656 43.238281 259.4375 44.042969 Z M 259.4375 44.039062 " fill-opacity="1" fill-rule="nonzero"/></g></svg>