<svg xmlns="http://www.w3.org/2000/svg" xmlns:xlink="http://www.w3.org/1999/xlink" width="100" zoomAndPan="magnify" viewBox="0 0 75 74.999997" height="100" preserveAspectRatio="xMidYMid meet" version="1.0"><defs><clipPath id="29bfb572f8"><path d="M 7.601562 7.5 L 67.601562 7.5 L 67.601562 67.5 L 7.601562 67.5 Z M 7.601562 7.5 " clip-rule="nonzero"/></clipPath></defs><g clip-path="url(#29bfb572f8)"><path fill="#ffffff" d="M 37.558594 7.539062 C 21.1875 7.539062 7.859375 20.859375 7.851562 37.226562 C 7.851562 42.457031 9.214844 47.5625 11.816406 52.0625 L 7.601562 67.449219 L 23.351562 63.320312 C 27.691406 65.683594 32.574219 66.929688 37.546875 66.933594 L 37.558594 66.933594 C 53.929688 66.933594 67.257812 53.617188 67.269531 37.246094 C 67.269531 29.316406 64.183594 21.855469 58.574219 16.246094 C 52.964844 10.636719 45.507812 7.542969 37.558594 7.539062 Z M 37.558594 61.921875 L 37.550781 61.921875 C 33.117188 61.921875 28.773438 60.730469 24.984375 58.484375 L 24.082031 57.949219 L 14.734375 60.398438 L 17.230469 51.292969 L 16.644531 50.359375 C 14.171875 46.433594 12.867188 41.890625 12.867188 37.226562 C 12.875 23.621094 23.949219 12.554688 37.570312 12.554688 C 44.167969 12.554688 50.367188 15.125 55.027344 19.789062 C 59.691406 24.453125 62.257812 30.652344 62.253906 37.246094 C 62.246094 50.851562 51.171875 61.921875 37.558594 61.921875 Z M 51.105469 43.441406 C 50.363281 43.070312 46.710938 41.277344 46.03125 41.03125 C 45.347656 40.78125 44.855469 40.65625 44.359375 41.402344 C 43.863281 42.144531 42.441406 43.816406 42.007812 44.308594 C 41.578125 44.808594 41.140625 44.867188 40.402344 44.496094 C 39.660156 44.125 37.265625 43.34375 34.433594 40.8125 C 32.226562 38.847656 30.734375 36.417969 30.304688 35.671875 C 29.871094 34.929688 30.257812 34.53125 30.632812 34.160156 C 30.964844 33.828125 31.375 33.292969 31.742188 32.859375 C 32.113281 32.425781 32.238281 32.117188 32.484375 31.621094 C 32.734375 31.125 32.609375 30.691406 32.425781 30.320312 C 32.242188 29.949219 30.753906 26.296875 30.136719 24.8125 C 29.535156 23.367188 28.921875 23.558594 28.464844 23.539062 C 28.035156 23.515625 27.539062 23.511719 27.042969 23.511719 C 26.546875 23.511719 25.746094 23.695312 25.0625 24.4375 C 24.382812 25.179688 22.464844 26.976562 22.464844 30.625 C 22.464844 34.273438 25.125 37.804688 25.496094 38.300781 C 25.871094 38.792969 30.730469 46.289062 38.175781 49.5 C 39.949219 50.261719 41.332031 50.71875 42.410156 51.058594 C 44.1875 51.625 45.804688 51.546875 47.085938 51.351562 C 48.511719 51.140625 51.476562 49.558594 52.09375 47.824219 C 52.710938 46.09375 52.710938 44.609375 52.523438 44.296875 C 52.339844 43.988281 51.84375 43.804688 51.105469 43.429688 Z M 103.660156 42.992188 L 103.582031 42.992188 L 98.65625 23.132812 L 92.722656 23.132812 L 87.714844 42.746094 L 87.636719 42.746094 L 83.074219 23.132812 L 76.734375 23.132812 L 84.367188 51.949219 L 90.789062 51.949219 L 95.59375 32.332031 L 95.675781 32.332031 L 100.558594 51.949219 L 106.855469 51.949219 L 114.609375 23.132812 L 108.394531 23.132812 L 103.667969 42.992188 Z M 133.941406 32.878906 C 133.375 32.140625 132.601562 31.5625 131.621094 31.144531 C 130.636719 30.730469 129.378906 30.523438 127.847656 30.523438 C 126.769531 30.523438 125.667969 30.796875 124.535156 31.347656 C 123.402344 31.898438 122.476562 32.78125 121.75 33.992188 L 121.628906 33.992188 L 121.628906 23.132812 L 115.894531 23.132812 L 115.894531 51.949219 L 121.628906 51.949219 L 121.628906 41.011719 C 121.628906 38.886719 121.976562 37.359375 122.679688 36.429688 C 123.378906 35.503906 124.507812 35.039062 126.070312 35.039062 C 127.445312 35.039062 128.398438 35.464844 128.9375 36.3125 C 129.476562 37.15625 129.746094 38.445312 129.746094 40.164062 L 129.746094 51.949219 L 135.476562 51.949219 L 135.476562 39.117188 C 135.476562 37.824219 135.363281 36.648438 135.132812 35.585938 C 134.902344 34.527344 134.507812 33.621094 133.941406 32.882812 Z M 157.558594 47.304688 L 157.558594 36.453125 C 157.558594 35.183594 157.277344 34.171875 156.710938 33.40625 C 156.144531 32.636719 155.417969 32.039062 154.53125 31.609375 C 153.640625 31.179688 152.65625 30.886719 151.582031 30.742188 C 150.503906 30.59375 149.441406 30.519531 148.394531 30.519531 C 147.238281 30.519531 146.085938 30.632812 144.941406 30.863281 C 143.796875 31.09375 142.769531 31.476562 141.851562 32.015625 C 140.941406 32.550781 140.179688 33.265625 139.59375 34.152344 C 139 35.042969 138.664062 36.15625 138.582031 37.503906 L 144.316406 37.503906 C 144.421875 36.375 144.800781 35.5625 145.449219 35.082031 C 146.09375 34.597656 146.980469 34.355469 148.113281 34.355469 C 148.621094 34.355469 149.097656 34.386719 149.546875 34.457031 C 149.988281 34.523438 150.378906 34.652344 150.714844 34.859375 C 151.050781 35.058594 151.320312 35.34375 151.523438 35.707031 C 151.726562 36.070312 151.824219 36.5625 151.824219 37.179688 C 151.851562 37.773438 151.675781 38.222656 151.300781 38.53125 C 150.921875 38.84375 150.410156 39.078125 149.765625 39.238281 C 149.121094 39.398438 148.382812 39.523438 147.542969 39.601562 C 146.710938 39.683594 145.859375 39.792969 145 39.925781 C 144.140625 40.058594 143.285156 40.238281 142.4375 40.46875 C 141.589844 40.695312 140.832031 41.042969 140.175781 41.496094 C 139.515625 41.957031 138.976562 42.566406 138.558594 43.332031 C 138.144531 44.097656 137.933594 45.078125 137.933594 46.257812 C 137.933594 47.332031 138.117188 48.261719 138.476562 49.039062 C 138.839844 49.824219 139.34375 50.46875 139.988281 50.980469 C 140.632812 51.492188 141.390625 51.867188 142.25 52.109375 C 143.109375 52.351562 144.042969 52.472656 145.035156 52.472656 C 146.328125 52.472656 147.59375 52.285156 148.832031 51.910156 C 150.066406 51.53125 151.148438 50.875 152.0625 49.929688 C 152.089844 50.28125 152.132812 50.621094 152.203125 50.957031 C 152.269531 51.292969 152.355469 51.625 152.464844 51.945312 L 158.277344 51.945312 C 158.007812 51.515625 157.820312 50.871094 157.710938 50.007812 C 157.601562 49.148438 157.550781 48.25 157.550781 47.304688 Z M 151.824219 43.875 C 151.824219 44.203125 151.792969 44.632812 151.726562 45.167969 C 151.65625 45.707031 151.476562 46.238281 151.179688 46.761719 C 150.882812 47.289062 150.425781 47.738281 149.808594 48.117188 C 149.191406 48.492188 148.3125 48.679688 147.183594 48.679688 C 146.726562 48.679688 146.28125 48.640625 145.851562 48.558594 C 145.417969 48.480469 145.042969 48.335938 144.71875 48.132812 C 144.394531 47.933594 144.140625 47.65625 143.953125 47.304688 C 143.765625 46.953125 143.667969 46.527344 143.667969 46.015625 C 143.667969 45.480469 143.761719 45.035156 143.953125 44.6875 C 144.140625 44.335938 144.390625 44.046875 144.703125 43.820312 C 145.011719 43.589844 145.375 43.410156 145.789062 43.273438 C 146.207031 43.140625 146.628906 43.035156 147.0625 42.953125 C 147.519531 42.871094 147.976562 42.800781 148.4375 42.75 C 148.898438 42.699219 149.332031 42.628906 149.75 42.546875 C 150.167969 42.464844 150.558594 42.363281 150.925781 42.246094 C 151.289062 42.125 151.589844 41.957031 151.832031 41.742188 L 151.832031 43.878906 Z M 168.257812 24.828125 L 162.523438 24.828125 L 162.523438 31.082031 L 159.054688 31.082031 L 159.054688 34.917969 L 162.523438 34.917969 L 162.523438 47.226562 C 162.523438 48.277344 162.703125 49.125 163.050781 49.769531 C 163.402344 50.410156 163.878906 50.914062 164.484375 51.261719 C 165.089844 51.613281 165.789062 51.84375 166.585938 51.964844 C 167.378906 52.085938 168.222656 52.148438 169.109375 52.148438 C 169.679688 52.148438 170.253906 52.132812 170.851562 52.109375 C 171.441406 52.082031 171.976562 52.03125 172.464844 51.949219 L 172.464844 47.507812 C 172.191406 47.5625 171.910156 47.605469 171.613281 47.628906 C 171.316406 47.65625 171.007812 47.671875 170.6875 47.671875 C 169.722656 47.671875 169.074219 47.511719 168.75 47.1875 C 168.429688 46.863281 168.265625 46.21875 168.265625 45.246094 L 168.265625 34.917969 L 172.464844 34.917969 L 172.464844 31.082031 L 168.265625 31.082031 L 168.265625 24.828125 Z M 191.957031 42.8125 C 191.578125 42.152344 191.082031 41.597656 190.460938 41.15625 C 189.84375 40.710938 189.136719 40.355469 188.34375 40.082031 C 187.550781 39.816406 186.734375 39.589844 185.902344 39.398438 C 185.09375 39.210938 184.304688 39.035156 183.519531 38.875 C 182.738281 38.710938 182.046875 38.527344 181.441406 38.332031 C 180.835938 38.128906 180.34375 37.867188 179.96875 37.542969 C 179.589844 37.21875 179.402344 36.808594 179.402344 36.289062 C 179.402344 35.859375 179.507812 35.519531 179.726562 35.261719 C 179.9375 35.003906 180.203125 34.8125 180.511719 34.675781 C 180.824219 34.539062 181.164062 34.457031 181.539062 34.414062 C 181.917969 34.371094 182.269531 34.355469 182.589844 34.355469 C 183.613281 34.355469 184.5 34.550781 185.257812 34.9375 C 186.007812 35.328125 186.425781 36.074219 186.507812 37.175781 L 191.957031 37.175781 C 191.851562 35.882812 191.523438 34.816406 190.96875 33.964844 C 190.417969 33.121094 189.726562 32.441406 188.890625 31.929688 C 188.054688 31.417969 187.109375 31.054688 186.042969 30.839844 C 184.980469 30.625 183.882812 30.515625 182.753906 30.515625 C 181.621094 30.515625 180.515625 30.617188 179.445312 30.816406 C 178.363281 31.015625 177.394531 31.367188 176.539062 31.867188 C 175.675781 32.363281 174.980469 33.042969 174.457031 33.902344 C 173.929688 34.765625 173.667969 35.867188 173.667969 37.214844 C 173.667969 38.125 173.855469 38.902344 174.234375 39.535156 C 174.609375 40.167969 175.109375 40.6875 175.726562 41.105469 C 176.347656 41.523438 177.058594 41.859375 177.847656 42.113281 C 178.644531 42.375 179.457031 42.59375 180.289062 42.785156 C 182.339844 43.214844 183.933594 43.644531 185.078125 44.074219 C 186.21875 44.503906 186.789062 45.148438 186.789062 46.011719 C 186.789062 46.523438 186.671875 46.941406 186.425781 47.277344 C 186.183594 47.617188 185.882812 47.882812 185.519531 48.085938 C 185.15625 48.285156 184.75 48.4375 184.304688 48.527344 C 183.863281 48.621094 183.433594 48.671875 183.03125 48.671875 C 182.464844 48.671875 181.921875 48.605469 181.398438 48.46875 C 180.871094 48.335938 180.40625 48.125 180.003906 47.84375 C 179.601562 47.558594 179.269531 47.199219 179.011719 46.753906 C 178.757812 46.3125 178.628906 45.777344 178.628906 45.160156 L 173.179688 45.160156 C 173.234375 46.558594 173.546875 47.722656 174.128906 48.648438 C 174.707031 49.578125 175.445312 50.324219 176.347656 50.890625 C 177.25 51.457031 178.28125 51.859375 179.4375 52.105469 C 180.59375 52.34375 181.777344 52.46875 182.984375 52.46875 C 184.195312 52.46875 185.335938 52.351562 186.480469 52.125 C 187.621094 51.894531 188.640625 51.5 189.527344 50.933594 C 190.414062 50.371094 191.132812 49.625 191.6875 48.695312 C 192.238281 47.765625 192.511719 46.617188 192.511719 45.246094 C 192.511719 44.273438 192.324219 43.460938 191.945312 42.804688 Z M 203.34375 23.132812 L 192.441406 51.949219 L 198.820312 51.949219 L 201.078125 45.53125 L 211.859375 45.53125 L 214.039062 51.949219 L 220.621094 51.949219 L 209.84375 23.132812 Z M 202.738281 40.8125 L 206.492188 30.242188 L 206.570312 30.242188 L 210.203125 40.8125 L 202.734375 40.8125 Z M 240.445312 33.910156 C 239.664062 32.886719 238.679688 32.070312 237.5 31.449219 C 236.3125 30.832031 234.902344 30.523438 233.261719 30.523438 C 231.96875 30.523438 230.789062 30.777344 229.707031 31.289062 C 228.628906 31.800781 227.742188 32.621094 227.042969 33.75 L 226.960938 33.75 L 226.960938 31.082031 L 221.507812 31.082031 L 221.507812 59.253906 L 227.246094 59.253906 L 227.246094 49.363281 L 227.324219 49.363281 C 228.023438 50.386719 228.917969 51.160156 230.015625 51.683594 C 231.101562 52.207031 232.292969 52.46875 233.585938 52.46875 C 235.121094 52.46875 236.460938 52.171875 237.601562 51.582031 C 238.746094 50.988281 239.703125 50.195312 240.46875 49.199219 C 241.234375 48.203125 241.808594 47.0625 242.1875 45.769531 C 242.558594 44.476562 242.753906 43.132812 242.753906 41.734375 C 242.753906 40.25 242.558594 38.835938 242.1875 37.476562 C 241.808594 36.121094 241.230469 34.925781 240.449219 33.90625 L 240.445312 33.90625 Z M 236.769531 44.039062 C 236.609375 44.847656 236.332031 45.550781 235.941406 46.15625 C 235.550781 46.761719 235.042969 47.257812 234.40625 47.628906 C 233.777344 48.003906 232.988281 48.199219 232.046875 48.199219 C 231.105469 48.199219 230.351562 48.007812 229.707031 47.628906 C 229.0625 47.253906 228.542969 46.761719 228.152344 46.15625 C 227.761719 45.554688 227.480469 44.847656 227.304688 44.039062 C 227.132812 43.230469 227.046875 42.410156 227.046875 41.578125 C 227.046875 40.75 227.125 39.882812 227.285156 39.078125 C 227.445312 38.273438 227.722656 37.558594 228.117188 36.9375 C 228.503906 36.320312 229.019531 35.816406 229.648438 35.425781 C 230.28125 35.035156 231.070312 34.835938 232.007812 34.835938 C 232.949219 34.835938 233.699219 35.035156 234.332031 35.425781 C 234.964844 35.8125 235.484375 36.324219 235.886719 36.960938 C 236.292969 37.589844 236.578125 38.3125 236.753906 39.117188 C 236.933594 39.925781 237.015625 40.75 237.015625 41.582031 C 237.015625 42.417969 236.9375 43.238281 236.777344 44.042969 Z M 265.03125 37.480469 C 264.65625 36.125 264.074219 34.933594 263.296875 33.910156 C 262.515625 32.890625 261.535156 32.070312 260.347656 31.449219 C 259.164062 30.832031 257.75 30.523438 256.105469 30.523438 C 254.816406 30.523438 253.632812 30.777344 252.554688 31.289062 C 251.480469 31.800781 250.589844 32.621094 249.890625 33.75 L 249.8125 33.75 L 249.8125 31.082031 L 244.359375 31.082031 L 244.359375 59.253906 L 250.09375 59.253906 L 250.09375 49.363281 L 250.175781 49.363281 C 250.875 50.386719 251.769531 51.160156 252.859375 51.683594 C 253.945312 52.207031 255.140625 52.46875 256.429688 52.46875 C 257.964844 52.46875 259.300781 52.171875 260.445312 51.582031 C 261.589844 50.988281 262.546875 50.195312 263.3125 49.199219 C 264.082031 48.203125 264.652344 47.0625 265.027344 45.769531 C 265.40625 44.476562 265.59375 43.132812 265.59375 41.734375 C 265.59375 40.25 265.40625 38.835938 265.027344 37.476562 Z M 259.617188 44.039062 C 259.460938 44.847656 259.183594 45.550781 258.792969 46.15625 C 258.402344 46.761719 257.890625 47.257812 257.257812 47.628906 C 256.625 48.003906 255.839844 48.199219 254.898438 48.199219 C 253.953125 48.199219 253.199219 48.007812 252.554688 47.628906 C 251.90625 47.253906 251.390625 46.761719 250.996094 46.15625 C 250.609375 45.554688 250.324219 44.847656 250.152344 44.039062 C 249.976562 43.230469 249.886719 42.410156 249.886719 41.578125 C 249.886719 40.75 249.96875 39.882812 250.132812 39.078125 C 250.292969 38.273438 250.570312 37.558594 250.960938 36.9375 C 251.347656 36.320312 251.863281 35.816406 252.496094 35.425781 C 253.125 35.035156 253.914062 34.835938 254.859375 34.835938 C 255.800781 34.835938 256.542969 35.035156 257.175781 35.425781 C 257.808594 35.8125 258.328125 36.324219 258.734375 36.960938 C 259.136719 37.589844 259.425781 38.3125 259.601562 39.117188 C 259.777344 39.925781 259.863281 40.75 259.863281 41.582031 C 259.863281 42.417969 259.78125 43.238281 259.617188 44.042969 Z M 259.617188 44.039062 " fill-opacity="1" fill-rule="nonzero"/></g></svg>